<svg width="20" height="20" viewBox="0 0 20 20" fill="none" xmlns="http://www.w3.org/2000/svg">
<path fill-rule="evenodd" clip-rule="evenodd" d="M3.33203 4.99998C3.33203 4.07951 4.07822 3.33331 4.9987 3.33331H6.66536C7.58584 3.33331 8.33203 4.07951 8.33203 4.99998V6.66665C8.33203 7.58712 7.58584 8.33331 6.66536 8.33331H4.9987C4.07822 8.33331 3.33203 7.58712 3.33203 6.66665V4.99998ZM13.332 3.33331C12.4116 3.33331 11.6654 4.07951 11.6654 4.99998V6.66665C11.6654 7.58712 12.4116 8.33331 13.332 8.33331H14.9987C15.9192 8.33331 16.6654 7.58712 16.6654 6.66665V4.99998C16.6654 4.07951 15.9192 3.33331 14.9987 3.33331H13.332ZM14.1654 16.6666C15.5461 16.6666 16.6654 15.5474 16.6654 14.1666C16.6654 12.7859 15.5461 11.6666 14.1654 11.6666C12.7847 11.6666 11.6654 12.7859 11.6654 14.1666C11.6654 15.5474 12.7847 16.6666 14.1654 16.6666ZM4.9987 11.6666C4.07822 11.6666 3.33203 12.4128 3.33203 13.3333V15C3.33203 15.9205 4.07822 16.6666 4.9987 16.6666H6.66536C7.58584 16.6666 8.33203 15.9205 8.33203 15V13.3333C8.33203 12.4128 7.58584 11.6666 6.66536 11.6666H4.9987Z" fill="white"/>
</svg>
