<svg width="20" height="20" viewBox="0 0 20 20" fill="none" xmlns="http://www.w3.org/2000/svg">
<path fill-rule="evenodd" clip-rule="evenodd" d="M9.79167 2.5C10.1368 2.5 10.4167 2.77982 10.4167 3.125L10.4167 16.875C10.4167 17.2202 10.1368 17.5 9.79167 17.5C9.44649 17.5 9.16667 17.2202 9.16667 16.875L9.16667 3.125C9.16667 2.77982 9.44649 2.5 9.79167 2.5ZM3.125 10C3.47018 10 3.75 10.2798 3.75 10.625L3.75 16.875C3.75 17.2202 3.47018 17.5 3.125 17.5C2.77982 17.5 2.5 17.2202 2.5 16.875L2.5 10.625C2.5 10.2798 2.77982 10 3.125 10ZM17.0833 7.29167C17.0833 6.94649 16.8035 6.66667 16.4583 6.66667C16.1132 6.66667 15.8333 6.94649 15.8333 7.29167L15.8333 16.875C15.8333 17.2202 16.1132 17.5 16.4583 17.5C16.8035 17.5 17.0833 17.2202 17.0833 16.875V7.29167Z" fill="#222222"/>
</svg>
