<svg width="24" height="24" viewBox="0 0 24 24" fill="none" xmlns="http://www.w3.org/2000/svg">
<path fill-rule="evenodd" clip-rule="evenodd" d="M2.74637 5.76506C1.43652 3.82334 2.85623 1.25 5.17993 1.25H18.8176C21.1413 1.25 22.561 3.82335 21.2511 5.76506C21.2428 5.77738 21.2342 5.78944 21.2251 5.80124L15.5176 13.2645C15.1316 13.8442 14.9263 14.5222 14.9263 15.2148V18.7699C14.9263 19.2571 14.7304 19.7225 14.3846 20.0642L12.2071 22.2161C11.0606 23.3492 9.07125 22.5649 9.07125 20.9219V15.2148C9.07125 14.5222 8.86593 13.8442 8.47989 13.2645L2.77237 5.80124C2.76335 5.78944 2.75468 5.77738 2.74637 5.76506ZM3.97881 4.90955L9.68558 12.3718C9.69461 12.3836 9.70328 12.3957 9.71158 12.408C10.2718 13.2384 10.5712 14.2151 10.5712 15.2148V20.9219C10.5712 21.196 10.9274 21.3719 11.1527 21.1492L13.3302 18.9973C13.3928 18.9355 13.4263 18.8535 13.4263 18.7699V15.2148C13.4263 14.2151 13.7258 13.2384 14.2859 12.408C14.2942 12.3957 14.3029 12.3836 14.3119 12.3718L20.0187 4.90954C20.6193 3.99261 19.9653 2.75 18.8176 2.75H5.17993C4.03226 2.75 3.37823 3.99262 3.97881 4.90955Z"/>
</svg>
