<svg width="14" height="14" viewBox="0 0 14 14" fill="none" xmlns="http://www.w3.org/2000/svg">
<path fill-rule="evenodd" clip-rule="evenodd" d="M7 1.60425C4.33699 1.60425 2.1875 3.73497 2.1875 6.35193C2.1875 7.63758 2.93704 9.16032 3.97093 10.3842C4.48206 10.9893 5.04606 11.5009 5.58931 11.8577C6.14149 12.2204 6.63024 12.3959 7 12.3959C7.36976 12.3959 7.85851 12.2204 8.41069 11.8577C8.95394 11.5009 9.51794 10.9893 10.0291 10.3842C11.063 9.16032 11.8125 7.63758 11.8125 6.35193C11.8125 3.73497 9.66301 1.60425 7 1.60425ZM1.3125 6.35193C1.3125 3.2415 3.86402 0.729248 7 0.729248C10.136 0.729248 12.6875 3.2415 12.6875 6.35193C12.6875 7.92999 11.7964 9.64799 10.6975 10.9489C10.1422 11.6062 9.51677 12.1781 8.89107 12.5891C8.2743 12.9942 7.61461 13.2709 7 13.2709C6.38539 13.2709 5.7257 12.9942 5.10893 12.5891C4.48323 12.1781 3.85778 11.6062 3.3025 10.9489C2.20358 9.64799 1.3125 7.92999 1.3125 6.35193ZM7 5.10425C6.27513 5.10425 5.6875 5.69187 5.6875 6.41675C5.6875 7.14162 6.27513 7.72925 7 7.72925C7.72487 7.72925 8.3125 7.14162 8.3125 6.41675C8.3125 5.69187 7.72487 5.10425 7 5.10425ZM4.8125 6.41675C4.8125 5.20862 5.79188 4.22925 7 4.22925C8.20812 4.22925 9.1875 5.20862 9.1875 6.41675C9.1875 7.62487 8.20812 8.60425 7 8.60425C5.79188 8.60425 4.8125 7.62487 4.8125 6.41675Z" fill="#222222"/>
</svg>
