<svg width="30" height="30" viewBox="0 0 30 30" fill="none" xmlns="http://www.w3.org/2000/svg">
<g clip-path="url(#clip0_4018_43839)">
<path d="M12.8506 18.6284C11.6118 18.3182 10.5064 17.7931 9.51296 17.0315C9.22738 16.8124 9.22223 16.7737 9.43103 16.4852C9.76671 16.022 10.1029 15.5587 10.4385 15.0955C10.6558 14.7957 10.7134 14.7895 10.9919 15.0167C11.8281 15.698 12.7527 16.2037 13.8117 16.4299C15.6053 16.8129 17.2055 16.3407 18.669 15.2886C18.8212 15.1791 18.9677 15.0615 19.111 14.9397C19.2542 14.8179 19.3755 14.8259 19.4865 14.9789C19.8774 15.5186 20.2669 16.0588 20.6602 16.5971C20.7603 16.734 20.7084 16.8133 20.5913 16.9078C19.61 17.7015 18.5122 18.2573 17.294 18.5718C17.2341 18.5874 17.1755 18.6081 17.088 18.635C17.2238 18.8811 17.3525 19.1195 17.4855 19.3561C18.1896 20.6064 18.8947 21.8568 19.5988 23.1072C19.6297 23.1619 19.663 23.2158 19.6864 23.2738C19.7542 23.4419 19.6892 23.5642 19.5094 23.5652C18.6667 23.5713 17.824 23.5742 16.9817 23.5581C16.9017 23.5567 16.7916 23.433 16.7504 23.3414C16.2378 22.2048 15.7359 21.063 15.2308 19.9232C15.1488 19.7381 15.065 19.553 14.9676 19.3353C14.6226 20.1125 14.2921 20.8572 13.9611 21.6018C13.6998 22.1892 13.432 22.7738 13.1811 23.3659C13.1141 23.5241 13.0233 23.5732 12.8623 23.5723C12.0977 23.5666 11.3327 23.5704 10.5682 23.5694C10.2115 23.5694 10.1427 23.4552 10.3168 23.1454C11.1347 21.6896 11.955 20.2348 12.7738 18.7795C12.7963 18.7399 12.8155 18.6983 12.8501 18.6299L12.8506 18.6284Z" fill="#686868"/>
<path d="M10.7934 10.6912C10.7822 8.36188 12.6764 6.43913 14.9929 6.42826C17.294 6.41788 19.2004 8.32411 19.2098 10.6454C19.2191 12.9908 17.3446 14.9064 15.0267 14.9197C12.7148 14.9329 10.8047 13.0248 10.793 10.6912H10.7934ZM15.0238 8.73066C13.9639 8.72783 13.1067 9.58863 13.0992 10.6638C13.0917 11.7092 13.9616 12.5946 14.9995 12.5984C16.0683 12.6021 16.9401 11.7253 16.9349 10.652C16.9302 9.59619 16.0726 8.73397 15.0238 8.73114V8.73066Z" fill="#686868"/>
</g>
<defs>
<clipPath id="clip0_4018_43839">
<rect width="11.4286" height="17.1429" fill="white" transform="translate(9.28516 6.42822)"/>
</clipPath>
</defs>
</svg>
