<svg width="20" height="20" viewBox="0 0 20 20" fill="none" xmlns="http://www.w3.org/2000/svg">
<path fill-rule="evenodd" clip-rule="evenodd" d="M9.58464 2.29169C5.55756 2.29169 2.29297 5.55628 2.29297 9.58335C2.29297 13.6104 5.55756 16.875 9.58464 16.875C13.6117 16.875 16.8763 13.6104 16.8763 9.58335C16.8763 5.55628 13.6117 2.29169 9.58464 2.29169ZM1.04297 9.58335C1.04297 4.86592 4.8672 1.04169 9.58464 1.04169C14.3021 1.04169 18.1263 4.86592 18.1263 9.58335C18.1263 14.3008 14.3021 18.125 9.58464 18.125C4.8672 18.125 1.04297 14.3008 1.04297 9.58335ZM16.2261 16.2247C16.4701 15.9807 16.8659 15.9807 17.1099 16.2247L18.7766 17.8914C19.0207 18.1355 19.0207 18.5312 18.7766 18.7753C18.5325 19.0194 18.1368 19.0194 17.8927 18.7753L16.2261 17.1086C15.982 16.8646 15.982 16.4688 16.2261 16.2247Z" fill="#222222"/>
</svg>
