<svg width="12" height="12" viewBox="0 0 12 12" fill="none" xmlns="http://www.w3.org/2000/svg">
<path d="M3.69998 10.4452H3.69878C3.48578 10.5634 3.21218 10.4836 3.08978 10.2364C3.04012 10.1351 3.02354 10.0207 3.04238 9.9094V9.90879L3.45158 7.43619C3.45928 7.38943 3.45579 7.3415 3.4414 7.29634C3.42701 7.25119 3.40212 7.21008 3.36878 7.1764L1.64798 5.43639V5.43519C1.55593 5.33921 1.50321 5.2122 1.50021 5.07925C1.49721 4.94629 1.54415 4.81704 1.63178 4.717C1.70057 4.63971 1.79413 4.58879 1.89638 4.573L4.28678 4.21239C4.33536 4.20505 4.38139 4.1859 4.42083 4.1566C4.46027 4.12731 4.49191 4.08878 4.51298 4.0444L5.59178 1.7734V1.7722C5.70998 1.522 5.98178 1.4362 6.19778 1.549C6.29029 1.59845 6.36345 1.67685 6.40718 1.7722L6.40778 1.7734L7.48658 4.0444C7.50764 4.08878 7.53929 4.12731 7.57873 4.1566C7.61817 4.1859 7.6642 4.20505 7.71278 4.21239L10.102 4.57239H10.1032C10.3414 4.60839 10.5334 4.8502 10.495 5.13939C10.4809 5.25092 10.4307 5.35478 10.3522 5.43519L10.3516 5.4358L8.63078 7.17579C8.59735 7.20954 8.57241 7.25075 8.55801 7.29602C8.54362 7.34129 8.54018 7.38933 8.54798 7.43619L8.95658 9.90879V9.91C9.00518 10.198 8.82158 10.4482 8.58338 10.4926C8.48667 10.5105 8.38674 10.4942 8.30078 10.4464L8.29958 10.4458L6.14318 9.26979C6.09918 9.24585 6.04988 9.2333 5.99978 9.2333C5.94968 9.2333 5.90038 9.24585 5.85638 9.26979L3.69998 10.4452Z"/>
<path fill-rule="evenodd" clip-rule="evenodd" d="M5.99971 2.07982L7.0348 4.25881C7.03478 4.25876 7.03482 4.25886 7.0348 4.25881C7.09098 4.37711 7.17541 4.47996 7.28053 4.55803C7.38571 4.63615 7.50846 4.68724 7.638 4.70681L9.99971 5.06267C9.99991 5.06535 9.99988 5.06895 9.99926 5.07361L9.99886 5.07667C9.99845 5.07994 9.99704 5.08299 9.99482 5.08543C9.99496 5.08529 9.9947 5.08557 9.99482 5.08543L8.2755 6.82394M8.0546 7.51775L8.45651 9.94986V9.95192L8.45837 9.96294L6.3825 8.83086C6.26515 8.767 6.1333 8.73333 5.99971 8.73333C5.86612 8.73333 5.73465 8.76679 5.61731 8.83065L3.57249 9.94523H3.56927L3.54067 9.9611L3.54231 9.95145V9.94992L3.9448 7.51786C3.96534 7.39315 3.9561 7.26497 3.91772 7.14455C3.87936 7.02419 3.81305 6.91464 3.72422 6.82484L2.04402 5.1259L2.00879 5.08916C2.00332 5.08345 2.00019 5.0759 2.00001 5.068C1.99997 5.06632 2.00007 5.06464 2.00029 5.063L4.36129 4.70683C4.49083 4.68726 4.6137 4.63615 4.71888 4.55803C4.82401 4.47995 4.90837 4.37726 4.96454 4.25897C4.96452 4.25902 4.96456 4.25892 4.96454 4.25897L5.99971 2.07982M1.40766 4.51763L1.25821 4.38461C1.40425 4.22052 1.60289 4.11242 1.81998 4.07889L1.82172 4.07862L4.10687 3.7339L5.09171 1.6607L5.13962 1.55865C5.37317 1.06428 5.94927 0.855211 6.42916 1.10582L6.31448 1.32542L6.31664 1.32655L6.43343 1.10808C6.62066 1.20817 6.76827 1.36548 6.8574 1.55479L6.85943 1.55884L7.89253 3.73388L10.1394 4.07243H10.1407L10.1778 4.07804C10.7026 4.15735 11.0617 4.66267 10.9908 5.20356C10.9628 5.42263 10.8641 5.62661 10.7098 5.78461L10.7059 5.78863L9.0578 7.45503L9.45651 9.86779V9.87484C9.51989 10.3956 9.18418 10.8892 8.67493 10.9842C8.4682 11.0225 8.25421 10.9891 8.06925 10.8897L8.06798 10.8891L5.99968 9.76113L3.82733 10.9452H3.80331C3.35935 11.1054 2.86153 10.9024 2.64163 10.4583L2.64071 10.4564C2.55214 10.2757 2.51815 10.0734 2.54231 9.87427V9.86773L2.94151 7.45553L1.14791 5.64191V5.59954C1.05588 5.44674 1.00434 5.27149 1.00026 5.09055C0.994443 4.83254 1.08554 4.58172 1.25558 4.38758L1.40607 4.51939L1.40766 4.51763ZM9.04112 7.35411C9.04109 7.35392 9.04115 7.35431 9.04112 7.35411ZM7.93803 3.82965C7.93796 3.82952 7.93809 3.82978 7.93803 3.82965ZM4.06127 3.82989C4.06126 3.82992 4.06129 3.82985 4.06127 3.82989Z"/>
</svg>
