<svg width="12" height="19" viewBox="0 0 12 19" fill="none" xmlns="http://www.w3.org/2000/svg">
<path d="M6.364 7.444C7.26533 7.444 8.132 7.63467 8.964 8.016C9.81333 8.39733 10.5067 8.98667 11.044 9.784C11.5813 10.564 11.85 11.526 11.85 12.67C11.85 13.814 11.5727 14.8107 11.018 15.66C10.4807 16.5093 9.76133 17.1593 8.86 17.61C7.95867 18.0433 6.988 18.26 5.948 18.26C4.66533 18.26 3.556 17.9393 2.62 17.298C1.684 16.6567 0.912667 15.8507 0.306 14.88L1.294 14.178C2.47267 16.05 4.024 16.986 5.948 16.986C7.26533 16.986 8.34 16.5873 9.172 15.79C10.0213 14.9927 10.446 13.9527 10.446 12.67C10.446 11.422 10.0213 10.434 9.172 9.706C8.34 8.978 7.17867 8.614 5.688 8.614H4.232V8.198L9.172 2.088H1.398V0.839999H11.356V1.282L6.364 7.444Z" fill="#222222"/>
</svg>
