<svg width="24" height="24" viewBox="0 0 24 24" fill="none" xmlns="http://www.w3.org/2000/svg">
<path fill-rule="evenodd" clip-rule="evenodd" d="M7.22748 7.22699C7.52038 6.9341 7.99525 6.9341 8.28814 7.22699L12.0005 10.9393L15.7128 7.22705C16.0057 6.93415 16.4805 6.93415 16.7734 7.22705C17.0663 7.51994 17.0663 7.99481 16.7734 8.28771L13.0611 12L16.7734 15.7123C17.0663 16.0052 17.0663 16.48 16.7734 16.7729C16.4805 17.0658 16.0057 17.0658 15.7128 16.7729L12.0005 13.0607L8.28814 16.773C7.99525 17.0659 7.52038 17.0659 7.22748 16.773C6.93459 16.4801 6.93459 16.0052 7.22748 15.7123L10.9398 12L7.22748 8.28765C6.93459 7.99476 6.93459 7.51989 7.22748 7.22699Z" fill="#686868"/>
</svg>
