<svg width="20" height="20" viewBox="0 0 20 20" fill="none" xmlns="http://www.w3.org/2000/svg">
<path fill-rule="evenodd" clip-rule="evenodd" d="M8.90627 4.3444C7.39294 2.71853 4.95918 2.71853 3.44585 4.3444C1.90868 5.99587 1.90868 8.69074 3.44585 10.3422L9.18371 16.5067C9.64073 16.9978 10.3619 16.9978 10.8189 16.5067L16.5568 10.3422C18.0939 8.69074 18.0939 5.99587 16.5568 4.3444C15.0434 2.71853 12.6097 2.71853 11.0963 4.3444L10.4588 5.02935C10.3406 5.15637 10.1748 5.22852 10.0013 5.22852C9.82777 5.22852 9.66204 5.15637 9.54381 5.02935L8.90627 4.3444ZM2.53087 3.49275C4.53857 1.33575 7.81355 1.33575 9.82125 3.49275L10.0013 3.68619L10.1813 3.49275C12.1891 1.33575 15.464 1.33575 17.4717 3.49275C19.4556 5.62413 19.4556 9.06249 17.4717 11.1939L11.7339 17.3584C10.7825 18.3805 9.22012 18.3805 8.26873 17.3584L2.53087 11.1939C0.547002 9.06249 0.547003 5.62413 2.53087 3.49275Z"/>
</svg>
