<svg width="64" height="64" viewBox="0 0 64 64" fill="none" xmlns="http://www.w3.org/2000/svg">
<path d="M16.0002 21.3333H10.6668C7.72131 21.3333 5.3335 23.7211 5.3335 26.6667V50.6667C5.3335 53.6122 7.72131 56 10.6668 56H16.0002C18.9457 56 21.3335 53.6122 21.3335 50.6667V26.6667C21.3335 23.7211 18.9457 21.3333 16.0002 21.3333Z" stroke="#0AB3A3" stroke-width="3.5" stroke-linecap="round" stroke-linejoin="round"/>
<path d="M42.3385 56H32.5631C30.4572 56 28.3985 55.3767 26.6463 54.2085L22.521 51.4583C21.7791 50.9637 21.3335 50.1311 21.3335 49.2395V27.3748C21.3335 26.9108 21.4546 26.4547 21.6848 26.0518L32.0002 8H35.5434C40.868 8 44.044 13.9343 41.0904 18.3647L37.3335 24H51.836C55.3057 24 57.8516 27.2607 57.0101 30.6269L52.6867 47.9204C51.4996 52.6688 47.2331 56 42.3385 56Z" stroke="#0AB3A3" stroke-width="3.5" stroke-linecap="round" stroke-linejoin="round"/>
</svg>
