<svg width="64" height="64" viewBox="0 0 64 64" fill="none" xmlns="http://www.w3.org/2000/svg">
<path d="M26.6668 24C26.6668 25.4728 25.4729 26.6667 24.0002 26.6667C22.5274 26.6667 21.3335 25.4728 21.3335 24C21.3335 22.5272 22.5274 21.3333 24.0002 21.3333C25.4729 21.3333 26.6668 22.5272 26.6668 24Z" fill="#0AB3A3"/>
<path d="M42.6668 40C42.6668 41.4728 41.4729 42.6667 40.0002 42.6667C38.5274 42.6667 37.3335 41.4728 37.3335 40C37.3335 38.5273 38.5274 37.3333 40.0002 37.3333C41.4729 37.3333 42.6668 38.5273 42.6668 40Z" fill="#0AB3A3"/>
<path d="M50.6667 5.33333H13.3333C10.3878 5.33333 8 7.72114 8 10.6667V51.0783C8 54.7721 11.6643 57.3475 15.1398 56.0963L19.3045 54.597C20.6059 54.1285 22.0384 54.1839 23.2997 54.7515L29.8114 57.6818C31.2032 58.3081 32.7968 58.3081 34.1886 57.6818L40.7003 54.7515C41.9616 54.1839 43.3941 54.1285 44.6955 54.597L48.8602 56.0963C52.3357 57.3475 56 54.7721 56 51.0783V10.6667C56 7.72114 53.6122 5.33333 50.6667 5.33333Z" stroke="#0AB3A3" stroke-width="3.5" stroke-linecap="round"/>
<path d="M24 40L40 24" stroke="#0AB3A3" stroke-width="3.5" stroke-linecap="round"/>
</svg>
