<svg width="54" height="54" viewBox="0 0 54 54" fill="none" xmlns="http://www.w3.org/2000/svg">
<path fill-rule="evenodd" clip-rule="evenodd" d="M3.92773 10.8C3.92773 9.71552 4.80688 8.83636 5.89137 8.83636H10.8005C11.8849 8.83636 12.7641 9.71551 12.7641 10.8V23.6781H23.5641V10.8C23.5641 9.71552 24.4432 8.83636 25.5277 8.83636H30.4368C31.5213 8.83636 32.4005 9.71551 32.4005 10.8V43.2C32.4005 44.2845 31.5213 45.1636 30.4368 45.1636H25.5277C24.4432 45.1636 23.5641 44.2845 23.5641 43.2V30.7963H12.7641V43.2C12.7641 44.2845 11.8849 45.1636 10.8005 45.1636H5.89137C4.80688 45.1636 3.92773 44.2845 3.92773 43.2V10.8Z" fill="#222222"/>
<path d="M47.9938 38.2881C48.6327 38.5388 49.1615 38.9476 49.5805 39.5145C49.9994 40.0813 50.2088 40.7627 50.2088 41.5585C50.2088 42.2779 50.0308 42.9266 49.6747 43.5043C49.3186 44.0821 48.8317 44.5345 48.2138 44.8615C47.5959 45.1886 46.9099 45.3521 46.1559 45.3521C45.2552 45.3521 44.4593 45.1232 43.7681 44.6653C43.0874 44.1966 42.569 43.5643 42.2129 42.7685L44.0823 41.3949C44.386 41.8746 44.6897 42.2234 44.9934 42.4415C45.2971 42.6595 45.6479 42.7685 46.0459 42.7685C46.4543 42.7685 46.7895 42.6649 47.0513 42.4578C47.3131 42.2507 47.444 41.9564 47.444 41.5748C47.444 41.1933 47.2974 40.9153 47.0042 40.7409C46.7109 40.5556 46.2606 40.4629 45.6532 40.4629H44.1765V39.7434L46.0145 36.8982H43.0612V34.3636H50.0517V35.0995L47.9938 38.2881Z" fill="#222222"/>
<path d="M40.8301 34.3636V45.1559H38.1281V37.6994L36.3687 38.3044L35.7246 35.819L39.9661 34.3636H40.8301Z" fill="#222222"/>
<path fill-rule="evenodd" clip-rule="evenodd" d="M36.3281 20.5427C36.3281 20.0421 36.8015 19.6364 37.3855 19.6364C40.5972 19.6364 43.2009 21.8681 43.2009 24.621C43.2009 25.1215 42.7275 25.5273 42.1435 25.5273C41.5596 25.5273 41.0862 25.1215 41.0862 24.621C41.0862 22.8691 39.4293 21.449 37.3855 21.449C36.8015 21.449 36.3281 21.0432 36.3281 20.5427Z" fill="black"/>
<path fill-rule="evenodd" clip-rule="evenodd" d="M36.3281 15.7091C36.3281 15.1669 36.8077 14.7273 37.3992 14.7273C43.3146 14.7273 48.1099 19.123 48.1099 24.5455C48.1099 25.0877 47.6304 25.5273 47.0389 25.5273C46.4473 25.5273 45.9678 25.0877 45.9678 24.5455C45.9678 20.2075 42.1315 16.6909 37.3992 16.6909C36.8077 16.6909 36.3281 16.2513 36.3281 15.7091Z" fill="black"/>
<path fill-rule="evenodd" clip-rule="evenodd" d="M36.3281 9.87955C36.3281 9.30342 36.7952 8.83637 37.3713 8.83637C46.0133 8.83637 53.019 15.8421 53.019 24.4841C53.019 25.0602 52.552 25.5273 51.9759 25.5273C51.3997 25.5273 50.9327 25.0602 50.9327 24.4841C50.9327 16.9944 44.861 10.9227 37.3713 10.9227C36.7952 10.9227 36.3281 10.4557 36.3281 9.87955Z" fill="black"/>
</svg>
