<svg width="54" height="54" viewBox="0 0 54 54" fill="none" xmlns="http://www.w3.org/2000/svg">
<path d="M38.25 46.1765V35.9999V32.8909H15.75V35.9999V46.1765C15.75 47.7683 17.3577 48.8568 18.8356 48.2656L26.1644 45.3341C26.7008 45.1195 27.2992 45.1195 27.8356 45.3341L35.1644 48.2656C36.6423 48.8568 38.25 47.7683 38.25 46.1765Z" fill="#222222"/>
<path d="M23.8327 5.66651C25.6578 4.11116 28.3422 4.11116 30.1673 5.66652L31.7767 7.03806C32.5588 7.70456 33.5313 8.10736 34.5556 8.1891L36.6635 8.35731C39.0538 8.54806 40.9519 10.4462 41.1427 12.8366L41.3109 14.9444C41.3926 15.9687 41.7954 16.9412 42.4619 17.7233L43.8335 19.3327C45.3888 21.1578 45.3888 23.8422 43.8335 25.6673L42.4619 27.2767C41.7954 28.0588 41.3926 29.0313 41.3109 30.0556L41.1427 32.1634C40.9519 34.5538 39.0538 36.4519 36.6634 36.6427L34.5556 36.8109C33.5313 36.8926 32.5588 37.2954 31.7767 37.9619L30.1673 39.3335C28.3422 40.8888 25.6578 40.8888 23.8327 39.3335L22.2233 37.9619C21.4412 37.2954 20.4687 36.8926 19.4444 36.8109L17.3365 36.6427C14.9462 36.4519 13.0481 34.5538 12.8573 32.1634L12.6891 30.0556C12.6074 29.0313 12.2046 28.0588 11.5381 27.2767L10.1665 25.6673C8.61116 23.8422 8.61116 21.1578 10.1665 19.3327L11.5381 17.7233C12.2046 16.9412 12.6074 15.9687 12.6891 14.9444L12.8573 12.8365C13.0481 10.4462 14.9462 8.54806 17.3365 8.35731L19.4444 8.1891C20.4687 8.10736 21.4412 7.70456 22.2233 7.03806L23.8327 5.66651Z" fill="white" stroke="#222222" stroke-width="2"/>
<path d="M27.5096 38.1C25.8896 38.1 24.6596 37.65 23.8196 36.75C22.9996 35.85 22.5896 34.56 22.5896 32.88V31.17H25.7096V33.03C25.7096 34.41 26.2796 35.1 27.4196 35.1C27.9796 35.1 28.3996 34.93 28.6796 34.59C28.9796 34.23 29.1296 33.61 29.1296 32.73V31.02C29.1296 30.06 28.9596 29.38 28.6196 28.98C28.2796 28.56 27.7296 28.35 26.9696 28.35H25.8596V25.35H27.0596C27.7196 25.35 28.2096 25.18 28.5296 24.84C28.8696 24.5 29.0396 23.93 29.0396 23.13V21.6C29.0396 20.88 28.8896 20.35 28.5896 20.01C28.2896 19.67 27.8896 19.5 27.3896 19.5C26.3296 19.5 25.7996 20.15 25.7996 21.45V22.83H22.6796V21.72C22.6796 20.04 23.0896 18.75 23.9096 17.85C24.7496 16.95 25.9496 16.5 27.5096 16.5C29.0896 16.5 30.2896 16.95 31.1096 17.85C31.9296 18.73 32.3396 20.01 32.3396 21.69V22.44C32.3396 23.58 32.1496 24.5 31.7696 25.2C31.3896 25.88 30.7996 26.37 29.9996 26.67V26.73C30.8596 27.05 31.4796 27.57 31.8596 28.29C32.2396 29.01 32.4296 29.93 32.4296 31.05V32.91C32.4296 34.59 32.0096 35.88 31.1696 36.78C30.3496 37.66 29.1296 38.1 27.5096 38.1Z" fill="#222222"/>
</svg>
