<svg width="18" height="18" viewBox="0 0 18 18" fill="none" xmlns="http://www.w3.org/2000/svg">
<path fill-rule="evenodd" clip-rule="evenodd" d="M0.9375 9C0.9375 4.96142 4.21142 1.6875 8.25 1.6875H9.75C13.7886 1.6875 17.0625 4.96142 17.0625 9C17.0625 13.0386 13.7886 16.3125 9.75 16.3125H4.5C2.53249 16.3125 0.9375 14.7175 0.9375 12.75V9ZM8.25 2.8125C4.83274 2.8125 2.0625 5.58274 2.0625 9V12.75C2.0625 14.0962 3.15381 15.1875 4.5 15.1875H9.75C13.1673 15.1875 15.9375 12.4173 15.9375 9C15.9375 5.58274 13.1673 2.8125 9.75 2.8125H8.25Z" fill="#222222"/>
</svg>
