<svg style="display: none;" aria-hidden="true" xmlns="http://www.w3.org/2000/svg" xmlns:xlink="http://www.w3.org/1999/xlink">
  <symbol viewBox="0 0 20 20" fill="none" id="svg-cart">
    <path fill-rule="evenodd" clip-rule="evenodd" d="M4.53115 1.90909C5.23302 1.34759 6.10508 1.04169 7.00391 1.04169L12.9987 1.0417C13.8975 1.0417 14.7696 1.3476 15.4714 1.90909L18.0996 4.01158C18.6432 4.44648 18.9596 5.1049 18.9596 5.80107V15C18.9596 17.1862 17.1874 18.9584 15.0013 18.9584H5.0013C2.81518 18.9584 1.04297 17.1862 1.04297 15V5.80107C1.04297 5.1049 1.35942 4.44648 1.90304 4.01158L2.29347 4.49962L1.90304 4.01158L4.53115 1.90909ZM7.00391 2.29169C6.38892 2.29169 5.79225 2.50099 5.31202 2.88517L2.68391 4.98767C2.43681 5.18535 2.29297 5.48463 2.29297 5.80107V15C2.29297 16.4958 3.50553 17.7084 5.0013 17.7084H15.0013C16.4971 17.7084 17.7096 16.4958 17.7096 15V5.80107C17.7096 5.48463 17.5658 5.18535 17.3187 4.98767L14.6906 2.88518C14.2104 2.501 13.6137 2.2917 12.9987 2.2917L7.00391 2.29169Z" />
    <path fill-rule="evenodd" clip-rule="evenodd" d="M6.875 5C6.875 4.65482 7.15482 4.375 7.5 4.375H12.5C12.8452 4.375 13.125 4.65482 13.125 5V7.5C13.125 9.22589 11.7259 10.625 10 10.625C8.27411 10.625 6.875 9.22589 6.875 7.5V5ZM8.125 5.625V7.5C8.125 8.53553 8.96447 9.375 10 9.375C11.0355 9.375 11.875 8.53553 11.875 7.5V5.625H8.125Z" />
    <path fill-rule="evenodd" clip-rule="evenodd" d="M1.45703 5C1.45703 4.65482 1.73685 4.375 2.08203 4.375H17.9154C18.2605 4.375 18.5404 4.65482 18.5404 5C18.5404 5.34518 18.2605 5.625 17.9154 5.625H2.08203C1.73685 5.625 1.45703 5.34518 1.45703 5Z" />
  </symbol>
  <symbol viewBox="0 0 20 20" fill="none" id="svg-catalog">
    <path fill-rule="evenodd" clip-rule="evenodd" d="M3.33203 4.99998C3.33203 4.07951 4.07822 3.33331 4.9987 3.33331H6.66536C7.58584 3.33331 8.33203 4.07951 8.33203 4.99998V6.66665C8.33203 7.58712 7.58584 8.33331 6.66536 8.33331H4.9987C4.07822 8.33331 3.33203 7.58712 3.33203 6.66665V4.99998ZM13.332 3.33331C12.4116 3.33331 11.6654 4.07951 11.6654 4.99998V6.66665C11.6654 7.58712 12.4116 8.33331 13.332 8.33331H14.9987C15.9192 8.33331 16.6654 7.58712 16.6654 6.66665V4.99998C16.6654 4.07951 15.9192 3.33331 14.9987 3.33331H13.332ZM14.1654 16.6666C15.5461 16.6666 16.6654 15.5474 16.6654 14.1666C16.6654 12.7859 15.5461 11.6666 14.1654 11.6666C12.7847 11.6666 11.6654 12.7859 11.6654 14.1666C11.6654 15.5474 12.7847 16.6666 14.1654 16.6666ZM4.9987 11.6666C4.07822 11.6666 3.33203 12.4128 3.33203 13.3333V15C3.33203 15.9205 4.07822 16.6666 4.9987 16.6666H6.66536C7.58584 16.6666 8.33203 15.9205 8.33203 15V13.3333C8.33203 12.4128 7.58584 11.6666 6.66536 11.6666H4.9987Z" fill="#fff" />
  </symbol>
  <symbol viewBox="0 0 24 24" fill="none" id="svg-close">
    <path fill-rule="evenodd" clip-rule="evenodd" d="M7.22748 7.22699C7.52038 6.9341 7.99525 6.9341 8.28814 7.22699L12.0005 10.9393L15.7128 7.22705C16.0057 6.93415 16.4805 6.93415 16.7734 7.22705C17.0663 7.51994 17.0663 7.99481 16.7734 8.28771L13.0611 12L16.7734 15.7123C17.0663 16.0052 17.0663 16.48 16.7734 16.7729C16.4805 17.0658 16.0057 17.0658 15.7128 16.7729L12.0005 13.0607L8.28814 16.773C7.99525 17.0659 7.52038 17.0659 7.22748 16.773C6.93459 16.4801 6.93459 16.0052 7.22748 15.7123L10.9398 12L7.22748 8.28765C6.93459 7.99476 6.93459 7.51989 7.22748 7.22699Z" fill="#686868" />
  </symbol>
  <symbol viewBox="0 0 20 20" fill="none" id="svg-compare">
    <path fill-rule="evenodd" clip-rule="evenodd" d="M9.79167 2.5C10.1368 2.5 10.4167 2.77982 10.4167 3.125L10.4167 16.875C10.4167 17.2202 10.1368 17.5 9.79167 17.5C9.44649 17.5 9.16667 17.2202 9.16667 16.875L9.16667 3.125C9.16667 2.77982 9.44649 2.5 9.79167 2.5ZM3.125 10C3.47018 10 3.75 10.2798 3.75 10.625L3.75 16.875C3.75 17.2202 3.47018 17.5 3.125 17.5C2.77982 17.5 2.5 17.2202 2.5 16.875L2.5 10.625C2.5 10.2798 2.77982 10 3.125 10ZM17.0833 7.29167C17.0833 6.94649 16.8035 6.66667 16.4583 6.66667C16.1132 6.66667 15.8333 6.94649 15.8333 7.29167L15.8333 16.875C15.8333 17.2202 16.1132 17.5 16.4583 17.5C16.8035 17.5 17.0833 17.2202 17.0833 16.875V7.29167Z" fill="#222" />
  </symbol>
  <symbol viewBox="0 0 14 14" fill="none" id="svg-location">
    <path fill-rule="evenodd" clip-rule="evenodd" d="M7 1.60425C4.33699 1.60425 2.1875 3.73497 2.1875 6.35193C2.1875 7.63758 2.93704 9.16032 3.97093 10.3842C4.48206 10.9893 5.04606 11.5009 5.58931 11.8577C6.14149 12.2204 6.63024 12.3959 7 12.3959C7.36976 12.3959 7.85851 12.2204 8.41069 11.8577C8.95394 11.5009 9.51794 10.9893 10.0291 10.3842C11.063 9.16032 11.8125 7.63758 11.8125 6.35193C11.8125 3.73497 9.66301 1.60425 7 1.60425ZM1.3125 6.35193C1.3125 3.2415 3.86402 0.729248 7 0.729248C10.136 0.729248 12.6875 3.2415 12.6875 6.35193C12.6875 7.92999 11.7964 9.64799 10.6975 10.9489C10.1422 11.6062 9.51677 12.1781 8.89107 12.5891C8.2743 12.9942 7.61461 13.2709 7 13.2709C6.38539 13.2709 5.7257 12.9942 5.10893 12.5891C4.48323 12.1781 3.85778 11.6062 3.3025 10.9489C2.20358 9.64799 1.3125 7.92999 1.3125 6.35193ZM7 5.10425C6.27513 5.10425 5.6875 5.69187 5.6875 6.41675C5.6875 7.14162 6.27513 7.72925 7 7.72925C7.72487 7.72925 8.3125 7.14162 8.3125 6.41675C8.3125 5.69187 7.72487 5.10425 7 5.10425ZM4.8125 6.41675C4.8125 5.20862 5.79188 4.22925 7 4.22925C8.20812 4.22925 9.1875 5.20862 9.1875 6.41675C9.1875 7.62487 8.20812 8.60425 7 8.60425C5.79188 8.60425 4.8125 7.62487 4.8125 6.41675Z" fill="#222" />
  </symbol>
  <symbol viewBox="0 0 30 30" fill="none" id="svg-ok">
    <g clip-path="url(#fclip0_4018_43839)" fill="#686868">
      <path d="M12.8506 18.6284C11.6118 18.3182 10.5064 17.7931 9.51296 17.0315C9.22738 16.8124 9.22223 16.7737 9.43103 16.4852C9.76671 16.022 10.1029 15.5587 10.4385 15.0955C10.6558 14.7957 10.7134 14.7895 10.9919 15.0167C11.8281 15.698 12.7527 16.2037 13.8117 16.4299C15.6053 16.8129 17.2055 16.3407 18.669 15.2886C18.8212 15.1791 18.9677 15.0615 19.111 14.9397C19.2542 14.8179 19.3755 14.8259 19.4865 14.9789C19.8774 15.5186 20.2669 16.0588 20.6602 16.5971C20.7603 16.734 20.7084 16.8133 20.5913 16.9078C19.61 17.7015 18.5122 18.2573 17.294 18.5718C17.2341 18.5874 17.1755 18.6081 17.088 18.635C17.2238 18.8811 17.3525 19.1195 17.4855 19.3561C18.1896 20.6064 18.8947 21.8568 19.5988 23.1072C19.6297 23.1619 19.663 23.2158 19.6864 23.2738C19.7542 23.4419 19.6892 23.5642 19.5094 23.5652C18.6667 23.5713 17.824 23.5742 16.9817 23.5581C16.9017 23.5567 16.7916 23.433 16.7504 23.3414C16.2378 22.2048 15.7359 21.063 15.2308 19.9232C15.1488 19.7381 15.065 19.553 14.9676 19.3353C14.6226 20.1125 14.2921 20.8572 13.9611 21.6018C13.6998 22.1892 13.432 22.7738 13.1811 23.3659C13.1141 23.5241 13.0233 23.5732 12.8623 23.5723C12.0977 23.5666 11.3327 23.5704 10.5682 23.5694C10.2115 23.5694 10.1427 23.4552 10.3168 23.1454C11.1347 21.6896 11.955 20.2348 12.7738 18.7795C12.7963 18.7399 12.8155 18.6983 12.8501 18.6299L12.8506 18.6284Z" />
      <path d="M10.7934 10.6912C10.7822 8.36188 12.6764 6.43913 14.9929 6.42826C17.294 6.41788 19.2004 8.32411 19.2098 10.6454C19.2191 12.9908 17.3446 14.9064 15.0267 14.9197C12.7148 14.9329 10.8047 13.0248 10.793 10.6912H10.7934ZM15.0238 8.73066C13.9639 8.72783 13.1067 9.58863 13.0992 10.6638C13.0917 11.7092 13.9616 12.5946 14.9995 12.5984C16.0683 12.6021 16.9401 11.7253 16.9349 10.652C16.9302 9.59619 16.0726 8.73397 15.0238 8.73114V8.73066Z" />
    </g>
    <defs>
      <clipPath id="fclip0_4018_43839">
        <path fill="#fff" transform="translate(9.285 6.428)" d="M0 0H11.429V17.143H0z" />
      </clipPath>
    </defs>
  </symbol>
  <symbol viewBox="0 0 20 20" fill="none" id="svg-search">
    <path fill-rule="evenodd" clip-rule="evenodd" d="M9.58464 2.29169C5.55756 2.29169 2.29297 5.55628 2.29297 9.58335C2.29297 13.6104 5.55756 16.875 9.58464 16.875C13.6117 16.875 16.8763 13.6104 16.8763 9.58335C16.8763 5.55628 13.6117 2.29169 9.58464 2.29169ZM1.04297 9.58335C1.04297 4.86592 4.8672 1.04169 9.58464 1.04169C14.3021 1.04169 18.1263 4.86592 18.1263 9.58335C18.1263 14.3008 14.3021 18.125 9.58464 18.125C4.8672 18.125 1.04297 14.3008 1.04297 9.58335ZM16.2261 16.2247C16.4701 15.9807 16.8659 15.9807 17.1099 16.2247L18.7766 17.8914C19.0207 18.1355 19.0207 18.5312 18.7766 18.7753C18.5325 19.0194 18.1368 19.0194 17.8927 18.7753L16.2261 17.1086C15.982 16.8646 15.982 16.4688 16.2261 16.2247Z" fill="#222" />
  </symbol>
  <symbol viewBox="0 0 14 14" fill="none" id="svg-select">
    <path fill-rule="evenodd" clip-rule="evenodd" d="M3.74042 5.56003C3.89136 5.37135 4.16667 5.34076 4.35535 5.4917L6.99871 7.60639L9.64208 5.4917C9.83075 5.34076 10.1061 5.37135 10.257 5.56003C10.408 5.7487 10.3774 6.02402 10.1887 6.17496L7.27202 8.50829C7.11224 8.63612 6.88519 8.63612 6.72541 8.50829L3.80874 6.17496C3.62007 6.02402 3.58948 5.7487 3.74042 5.56003Z" fill="#222" />
  </symbol>
  <symbol viewBox="0 0 18 18" fill="none" id="svg-text-link">
    <path d="M10.5 12L13.5 9M13.5 9L10.5 6M13.5 9L1.5 9" stroke="#222" stroke-linecap="round" stroke-linejoin="round" />
  </symbol>
  <symbol viewBox="0 0 30 30" fill="none" id="svg-vk">
    <path fill-rule="evenodd" clip-rule="evenodd" d="M24.5411 10.334C24.6802 9.87049 24.5411 9.52979 23.8794 9.52979H21.6914C21.135 9.52979 20.8787 9.82407 20.7396 10.1487C20.7396 10.1487 19.6269 12.8607 18.0505 14.6224C17.5406 15.1323 17.3088 15.2944 17.0306 15.2944C16.8915 15.2944 16.6902 15.1323 16.6902 14.6688V10.334C16.6902 9.77766 16.5288 9.52979 16.0651 9.52979H12.6268C12.2792 9.52979 12.0701 9.78797 12.0701 10.0327C12.0701 10.5602 12.8581 10.6818 12.9394 12.1652V15.3874C12.9394 16.0938 12.8118 16.222 12.5336 16.222C11.7919 16.222 9.98773 13.4976 8.91748 10.3805C8.70774 9.77453 8.49738 9.52979 7.93819 9.52979H5.75018C5.12503 9.52979 5 9.82407 5 10.1487C5 10.7282 5.74189 13.6026 8.45393 17.4041C10.2622 20 12.8093 21.4076 15.1274 21.4076C16.5183 21.4076 16.6902 21.095 16.6902 20.5566V18.5944C16.6902 17.9693 16.822 17.8445 17.2622 17.8445C17.587 17.8445 18.1432 18.0068 19.4415 19.2585C20.925 20.7418 21.1694 21.4076 22.004 21.4076H24.192C24.8171 21.4076 25.1297 21.095 24.9493 20.4781C24.7521 19.8633 24.0438 18.9715 23.1039 17.9141C22.594 17.3113 21.8289 16.6622 21.5973 16.3378C21.2727 15.9205 21.3654 15.7351 21.5973 15.3644C21.5973 15.3644 24.2629 11.6092 24.5411 10.3342V10.334Z" fill="#686868" />
  </symbol>
  <symbol viewBox="0 0 20 20" fill="none" id="svg-wishlist">
    <path clip-rule="evenodd" d="M8.90627 4.3444C7.39294 2.71853 4.95918 2.71853 3.44585 4.3444C1.90868 5.99587 1.90868 8.69074 3.44585 10.3422L9.18371 16.5067C9.64073 16.9978 10.3619 16.9978 10.8189 16.5067L16.5568 10.3422C18.0939 8.69074 18.0939 5.99587 16.5568 4.3444C15.0434 2.71853 12.6097 2.71853 11.0963 4.3444L10.4588 5.02935C10.3406 5.15637 10.1748 5.22852 10.0013 5.22852C9.82777 5.22852 9.66204 5.15637 9.54381 5.02935L8.90627 4.3444ZM2.53087 3.49275C4.53857 1.33575 7.81355 1.33575 9.82125 3.49275L10.0013 3.68619L10.1813 3.49275C12.1891 1.33575 15.464 1.33575 17.4717 3.49275C19.4556 5.62413 19.4556 9.06249 17.4717 11.1939L11.7339 17.3584C10.7825 18.3805 9.22012 18.3805 8.26873 17.3584L2.53087 11.1939C0.547002 9.06249 0.547003 5.62413 2.53087 3.49275Z" />
  </symbol>
  <symbol viewBox="0 0 30 30" fill="none" id="svg-youtube">
    <path fill-rule="evenodd" clip-rule="evenodd" d="M22.3362 8.8376C23.1393 9.05382 23.7726 9.68706 23.9888 10.4902C24.3904 11.9574 24.3749 15.0155 24.3749 15.0155C24.3749 15.0155 24.3749 18.0581 23.9888 19.5254C23.7726 20.3285 23.1393 20.9617 22.3362 21.1779C20.869 21.5641 15 21.5641 15 21.5641C15 21.5641 9.1464 21.5641 7.66371 21.1625C6.86058 20.9463 6.22735 20.313 6.01112 19.5099C5.625 18.0581 5.625 15.0001 5.625 15.0001C5.625 15.0001 5.625 11.9574 6.01112 10.4902C6.22735 9.68706 6.87602 9.03838 7.66371 8.82215C9.13096 8.43604 15 8.43604 15 8.43604C15 8.43604 20.869 8.43604 22.3362 8.8376ZM18.0117 15.0001L13.1311 17.811V12.1891L18.0117 15.0001Z" fill="#686868" />
  </symbol>
</svg>