<svg width="16" height="16" viewBox="0 0 16 16" fill="none" xmlns="http://www.w3.org/2000/svg">
<path fill-rule="evenodd" clip-rule="evenodd" d="M14.6668 8.00016C14.6668 11.6821 11.6821 14.6668 8.00016 14.6668C4.31826 14.6668 1.3335 11.6821 1.3335 8.00016C1.3335 4.31826 4.31826 1.3335 8.00016 1.3335C11.6821 1.3335 14.6668 4.31826 14.6668 8.00016ZM8.00016 5.16683C7.53993 5.16683 7.16683 5.53993 7.16683 6.00016C7.16683 6.2763 6.94297 6.50016 6.66683 6.50016C6.39069 6.50016 6.16683 6.2763 6.16683 6.00016C6.16683 4.98764 6.98764 4.16683 8.00016 4.16683C9.01268 4.16683 9.8335 4.98764 9.8335 6.00016C9.8335 6.36439 9.72677 6.70521 9.54271 6.99125C9.42742 7.17041 9.29264 7.34146 9.16836 7.49592L9.10133 7.579C8.99821 7.70663 8.90355 7.82379 8.81608 7.94401C8.60036 8.24049 8.50016 8.46329 8.50016 8.66683V9.00016C8.50016 9.2763 8.2763 9.50016 8.00016 9.50016C7.72402 9.50016 7.50016 9.2763 7.50016 9.00016V8.66683C7.50016 8.13399 7.76177 7.69334 8.00747 7.35566C8.11129 7.21298 8.22505 7.07225 8.3285 6.94429L8.38926 6.86902C8.51272 6.71558 8.61781 6.5806 8.70176 6.45013C8.7851 6.32062 8.8335 6.16681 8.8335 6.00016C8.8335 5.53993 8.4604 5.16683 8.00016 5.16683ZM8.50016 10.6668C8.50016 10.3907 8.2763 10.1668 8.00016 10.1668C7.72402 10.1668 7.50016 10.3907 7.50016 10.6668V11.3335C7.50016 11.6096 7.72402 11.8335 8.00016 11.8335C8.2763 11.8335 8.50016 11.6096 8.50016 11.3335V10.6668Z" fill="#ACACAC"/>
</svg>
