<svg width="20" height="20" viewBox="0 0 20 20" fill="none" xmlns="http://www.w3.org/2000/svg">
<path d="M10.8346 14.1668C10.8346 13.7066 10.4615 13.3335 10.0013 13.3335C9.54106 13.3335 9.16797 13.7066 9.16797 14.1668C9.16797 14.627 9.54106 15.0001 10.0013 15.0001C10.4615 15.0001 10.8346 14.627 10.8346 14.1668Z" fill="#ACACAC"/>
<path fill-rule="evenodd" clip-rule="evenodd" d="M10.0013 17.7084C5.74411 17.7084 2.29297 14.2573 2.29297 10.0001C2.29297 5.74291 5.74411 2.29177 10.0013 2.29177C14.2585 2.29177 17.7096 5.74291 17.7096 10.0001C17.7096 14.2573 14.2585 17.7084 10.0013 17.7084ZM1.04297 10.0001C1.04297 14.9477 5.05375 18.9584 10.0013 18.9584C14.9489 18.9584 18.9596 14.9477 18.9596 10.0001C18.9596 5.05255 14.9489 1.04177 10.0013 1.04177C5.05375 1.04177 1.04297 5.05255 1.04297 10.0001ZM8.54297 11.6668C8.54297 12.0119 8.82279 12.2918 9.16797 12.2918L10.0013 12.2918C10.3465 12.2918 10.6263 12.0119 10.6263 11.6668V5.83343C10.6263 5.48826 10.3465 5.20843 10.0013 5.20843C9.65612 5.20843 9.3763 5.48826 9.3763 5.83343V11.0418L9.16797 11.0418C8.82279 11.0418 8.54297 11.3216 8.54297 11.6668Z" fill="#ACACAC"/>
</svg>
