<svg width="50" height="50" viewBox="0 0 50 50" fill="none" xmlns="http://www.w3.org/2000/svg">
<path fill-rule="evenodd" clip-rule="evenodd" d="M26.4809 43.75H33.0763C36.9002 43.75 40.2333 41.1475 41.1608 37.4378L44.5384 23.9272C45.1959 21.2975 43.2069 18.75 40.4962 18.75H30.2077L32.9303 14.0827C34.9558 10.6105 32.4512 6.25 28.4315 6.25H26.0411L17.9822 20.353C17.8023 20.6678 17.7077 21.024 17.7077 21.3866V38.4684C17.7077 39.1649 18.0559 39.8154 18.6354 40.2018L21.8584 42.3504C23.2273 43.263 24.8356 43.75 26.4809 43.75ZM8.33268 18.75H10.416C12.7172 18.75 14.5827 20.6155 14.5827 22.9167V37.5C14.5827 39.8012 12.7172 41.6667 10.416 41.6667H8.33268C6.0315 41.6667 4.16602 39.8012 4.16602 37.5V22.9167C4.16602 20.6155 6.0315 18.75 8.33268 18.75Z" fill="#222222"/>
</svg>
