<svg width="24" height="24" viewBox="0 0 24 24" fill="none" xmlns="http://www.w3.org/2000/svg">
<path d="M13 17.25H11C10.59 17.25 10.25 17.59 10.25 18C10.25 18.41 10.59 18.75 11 18.75H13C13.41 18.75 13.75 18.41 13.75 18C13.75 17.59 13.41 17.25 13 17.25Z" fill="#FF3030"/>
<path d="M18 4.25H14.75V4C14.75 3.04 13.96 2.25 13 2.25H11C10.04 2.25 9.25 3.04 9.25 4V4.25H6C5.59 4.25 5.25 4.59 5.25 5C5.25 5.41 5.59 5.75 6 5.75H6.32L7.24 14.91L6.17 18.13C5.89 18.98 6.02 19.88 6.55 20.61C7.07 21.34 7.89 21.75 8.78 21.75H15.23C16.12 21.75 16.94 21.33 17.46 20.61C17.98 19.88 18.12 18.98 17.84 18.13L16.77 14.91L17.69 5.75H18.01C18.7 5.75 19.26 6.31 19.26 7V11C19.26 11.41 19.6 11.75 20.01 11.75C20.42 11.75 20.76 11.41 20.76 11V7C20.76 5.48 19.53 4.25 18.01 4.25H18ZM10.75 4C10.75 3.86 10.86 3.75 11 3.75H13C13.14 3.75 13.25 3.86 13.25 4V4.25H10.75V4ZM15.32 14.25H8.68L8.42 11.62C8.42 11.62 8.44 11.62 8.45 11.61C9.35 10.95 10.18 10.67 10.92 10.75C11.3 10.8 11.61 10.94 11.99 11.12C12.45 11.34 13.03 11.61 13.89 11.75C14.26 11.81 14.63 11.84 15 11.84C15.19 11.84 15.38 11.81 15.58 11.79L15.33 14.26L15.32 14.25ZM16.24 19.73C16 20.06 15.63 20.25 15.23 20.25H8.78C8.37 20.25 8 20.06 7.77 19.73C7.53 19.4 7.47 18.99 7.6 18.6L8.55 15.75H15.47L16.42 18.6C16.55 18.99 16.49 19.4 16.25 19.73H16.24ZM15.72 10.27C15.18 10.34 14.64 10.34 14.12 10.26C13.47 10.15 13.05 9.96 12.61 9.75C12.17 9.54 11.71 9.33 11.09 9.25C10.18 9.14 9.23 9.39 8.25 9.95L7.83 5.74H16.17L15.72 10.26V10.27Z" fill="#FF3030"/>
</svg>
