<svg width="24" height="24" viewBox="0 0 24 24" fill="none" xmlns="http://www.w3.org/2000/svg">
<path d="M20.0005 13.25H18.4605L16.9405 10.22C16.6405 9.62 16.0405 9.25 15.3705 9.25H14.7405V5C14.7405 3.48 13.5105 2.25 11.9905 2.25C10.4705 2.25 9.24047 3.48 9.24047 5V9.25H8.61047C7.94047 9.25 7.34047 9.62 7.04047 10.22L5.52047 13.25H3.98047C3.02047 13.25 2.23047 14.04 2.23047 15V16C2.23047 16.96 3.02047 17.75 3.98047 17.75H4.23047V20C4.23047 20.96 5.02047 21.75 5.98047 21.75H17.9805C18.9405 21.75 19.7305 20.96 19.7305 20V17.75H19.9805C20.9405 17.75 21.7305 16.96 21.7305 16V15C21.7305 14.04 20.9405 13.25 19.9805 13.25H20.0005ZM10.7505 5C10.7505 4.31 11.3105 3.75 12.0005 3.75C12.6905 3.75 13.2505 4.31 13.2505 5V9.25H10.7505V5ZM8.39047 10.89C8.43047 10.81 8.52047 10.75 8.61047 10.75H15.3705C15.4705 10.75 15.5505 10.8 15.5905 10.89L16.7705 13.25H7.21047L8.39047 10.89ZM18.2505 20C18.2505 20.14 18.1405 20.25 18.0005 20.25H16.7505V19C16.7505 18.59 16.4105 18.25 16.0005 18.25C15.5905 18.25 15.2505 18.59 15.2505 19V20.25H12.7505V19C12.7505 18.59 12.4105 18.25 12.0005 18.25C11.5905 18.25 11.2505 18.59 11.2505 19V20.25H8.75047V19C8.75047 18.59 8.41047 18.25 8.00047 18.25C7.59047 18.25 7.25047 18.59 7.25047 19V20.25H6.00047C5.86047 20.25 5.75047 20.14 5.75047 20V17.75H18.2505V20ZM20.2505 16C20.2505 16.14 20.1405 16.25 20.0005 16.25H4.00047C3.86047 16.25 3.75047 16.14 3.75047 16V15C3.75047 14.86 3.86047 14.75 4.00047 14.75H20.0005C20.1405 14.75 20.2505 14.86 20.2505 15V16Z" fill="#FF3030"/>
</svg>
