<svg width="82" height="82" viewBox="0 0 82 82" fill="none" xmlns="http://www.w3.org/2000/svg">
<path d="M33.3079 37.4338C33.3079 35.06 31.9033 33.1954 29.689 32.4532L32.6086 28.2638V26.0066H22.2671V28.8956H28.634L25.5548 33.2567L26.6528 34.9312H27.4624C28.8548 34.9312 30.3453 35.5875 30.3453 37.4338C30.3453 39.2801 28.8793 39.9364 27.5054 39.9364C26.4565 39.9364 25.1009 39.6481 24.5857 38.2557L24.2054 37.2314L21.666 38.7341L21.9543 39.4641C22.7824 41.5557 24.9108 42.8499 27.5176 42.8499C30.8728 42.8499 33.3079 40.5743 33.3079 37.4338Z" fill="#222222"/>
<path d="M40.4718 42.8499C43.8761 42.8499 46.348 40.4209 46.348 37.078C46.348 33.8149 44.0172 31.4227 40.7601 31.2878L44.3852 26.0066H40.8951L35.6691 33.5879C34.9576 34.5939 34.5957 35.7654 34.5957 37.078C34.5957 40.4209 37.0676 42.8499 40.4718 42.8499ZM40.4718 34.1952C42.2506 34.1952 43.3977 35.3299 43.3977 37.078C43.3977 38.8139 42.2506 39.9425 40.4718 39.9425C38.7053 39.9425 37.5706 38.82 37.5706 37.078C37.5706 35.2992 38.6808 34.1952 40.4718 34.1952Z" fill="#222222"/>
<path d="M54.2376 42.8496C58.2123 42.8496 60.6842 39.5803 60.6842 34.3114C60.6842 29.0425 58.2123 25.7732 54.2376 25.7732C50.2629 25.7732 47.791 29.0425 47.791 34.3114C47.7849 39.5742 50.2568 42.8496 54.2376 42.8496ZM54.2376 28.6867C57.372 28.6867 57.7093 32.6246 57.7093 34.3114C57.7093 36.0043 57.372 39.9361 54.2376 39.9361C51.1033 39.9361 50.7659 35.9982 50.7659 34.3114C50.7598 32.6185 51.0971 28.6867 54.2376 28.6867Z" fill="#222222"/>
<path d="M63.0705 28.6502C64.5426 28.6502 65.7387 27.4541 65.7387 25.982C65.7387 24.5099 64.5426 23.3138 63.0705 23.3138C61.5984 23.3138 60.4023 24.5099 60.4023 25.982C60.4023 27.4541 61.5984 28.6502 63.0705 28.6502ZM63.0705 24.7307C63.7575 24.7307 64.3218 25.2889 64.3218 25.982C64.3218 26.669 63.7636 27.2333 63.0705 27.2333C62.3835 27.2333 61.8192 26.6751 61.8192 25.982C61.8254 25.2889 62.3835 24.7307 63.0705 24.7307Z" fill="#222222"/>
<path d="M13.7784 43.5C13.7784 41.8009 15.6737 40.2368 18.8633 38.9548V37.6177C13.3858 39.3903 10 41.8132 10 44.4875C10 48.0941 16.1706 51.4677 25.3283 53.3262C25.7822 52.9766 26.2238 52.6393 26.5857 52.3019C26.8556 52.0443 27.15 51.8112 27.4383 51.572C26.8924 50.7685 26.3158 49.9833 25.8128 49.1614C18.5627 48.1064 13.7784 46.2049 13.7784 43.5Z" fill="#0AB3A3"/>
<path d="M63.3774 37.6974V39.0468C66.4259 40.3104 68.2231 41.8438 68.2231 43.4999C68.2231 47.6954 56.7407 49.9833 42.3202 50.1121L42.5778 45.659L30.3164 51.7314L41.7927 59.1778L42.0442 54.8045C58.6789 54.6082 72.0015 49.7993 72.0015 44.4875C72.0015 41.8499 68.7076 39.4639 63.3774 37.6974Z" fill="#0AB3A3"/>
</svg>
