<svg width="65" height="57" viewBox="0 0 65 57" fill="none" xmlns="http://www.w3.org/2000/svg">
<path fill-rule="evenodd" clip-rule="evenodd" d="M27.1891 10.5577C27.725 10.0669 28.4208 9.78724 29.1473 9.77074L45.8475 9.39129C47.6621 9.35006 49.0974 10.9171 48.8973 12.7211L47.0566 29.3239C46.9765 30.0461 46.637 30.7148 46.1012 31.2056L21.1225 54.0843C19.9007 55.2034 18.0031 55.1201 16.884 53.8983L2.02451 37.6749C0.905423 36.4531 0.988691 34.5555 2.2105 33.4364L27.1891 10.5577ZM37.2299 25.7717C35.6008 27.2638 33.0706 27.1528 31.5785 25.5237C30.0864 23.8947 30.1974 21.3644 31.8265 19.8723C33.4555 18.3802 35.9858 18.4912 37.4779 20.1203C38.97 21.7494 38.859 24.2796 37.2299 25.7717ZM17.0552 31.4994C17.1956 32.0483 17.4655 32.5408 17.865 32.9771C18.2557 33.4036 18.7139 33.7059 19.2395 33.8841C19.7833 34.0633 20.3218 34.1049 20.855 34.0087C21.3976 33.9039 21.88 33.6581 22.3024 33.2713C22.7247 32.8845 23.0071 32.4297 23.1496 31.907C23.3015 31.3757 23.3073 30.8356 23.167 30.2868C23.0449 29.739 22.7886 29.2518 22.3979 28.8253C21.9983 28.3891 21.5266 28.0813 20.9828 27.9021C20.4572 27.7239 19.9231 27.6872 19.3805 27.792C18.8473 27.8882 18.3696 28.1297 17.9473 28.5165C17.5249 28.9033 17.2378 29.3624 17.0859 29.8937C16.9434 30.4164 16.9332 30.9516 17.0552 31.4994ZM27.7701 35.0015L26.8512 33.9982L12.5259 37.0116L13.4449 38.0149L27.7701 35.0015ZM20.0354 32.8877C19.5052 32.8741 19.0492 32.6589 18.6674 32.2421C18.2857 31.8253 18.1065 31.3565 18.1301 30.8358C18.163 30.3065 18.3906 29.8484 18.813 29.4616C19.2353 29.0748 19.7068 28.8925 20.2276 28.9146C20.7577 28.9282 21.2137 29.1434 21.5955 29.5602C21.9773 29.9771 22.1517 30.4501 22.1188 30.9794C22.0858 31.5087 21.8629 31.9625 21.45 32.3407C21.037 32.7189 20.5655 32.9013 20.0354 32.8877ZM17.1025 41.6973C17.2428 42.2462 17.5083 42.7339 17.899 43.1605C18.2896 43.587 18.7522 43.8942 19.2867 44.082C19.8305 44.2613 20.3691 44.3028 20.9023 44.2066C21.4448 44.1019 21.9273 43.8561 22.3496 43.4693C22.7719 43.0824 23.0543 42.6277 23.1968 42.105C23.3487 41.5737 23.3545 41.0336 23.2142 40.4847C23.0833 39.9272 22.8225 39.4352 22.4318 39.0087C22.0411 38.5822 21.5739 38.2793 21.03 38.1C20.5044 37.9218 19.9703 37.8852 19.4277 37.9899C18.9034 38.0958 18.4301 38.3422 18.0078 38.729C17.5855 39.1158 17.294 39.57 17.1332 40.0916C16.9907 40.6143 16.9804 41.1496 17.1025 41.6973ZM20.0693 43.0711C19.5485 43.0489 19.1017 42.8343 18.7288 42.4272C18.347 42.0103 18.1678 41.5416 18.1914 41.0208C18.2243 40.4915 18.4473 40.0378 18.8602 39.6596C19.2825 39.2728 19.754 39.0904 20.2748 39.1126C20.805 39.1261 21.2609 39.3413 21.6427 39.7582C22.0156 40.1653 22.1856 40.6335 22.1527 41.1628C22.1291 41.6835 21.9062 42.1373 21.4839 42.5241C21.071 42.9023 20.5994 43.0846 20.0693 43.0711Z" fill="white"/>
<path d="M36.1953 19.0001C36.1953 27.5001 62.8622 21.9952 64.002 12.0001C64.2802 9.55981 64.502 7.00006 63.502 7.00006" stroke="white"/>
</svg>
