<svg width="50" height="50" viewBox="0 0 50 50" fill="none" xmlns="http://www.w3.org/2000/svg">
<path fill-rule="evenodd" clip-rule="evenodd" d="M4.16602 10.25C4.16602 8.04086 5.95688 6.25 8.16602 6.25H41.8327C44.0418 6.25 45.8327 8.04086 45.8327 10.25V13.0208H4.16602V10.25ZM45.8327 21.3542V16.1458H4.16602V21.3542H45.8327ZM45.8327 24.4792H4.16602V39.75C4.16602 41.9591 5.95688 43.75 8.16602 43.75H41.8327C44.0418 43.75 45.8327 41.9591 45.8327 39.75V24.4792ZM12.4993 34.6667C12.0851 34.6667 11.7493 35.0025 11.7493 35.4167C11.7493 35.8309 12.0851 36.1667 12.4993 36.1667H16.666C17.0802 36.1667 17.416 35.8309 17.416 35.4167C17.416 35.0025 17.0802 34.6667 16.666 34.6667H12.4993Z" fill="#222222"/>
</svg>
