<svg width="24" height="24" viewBox="0 0 24 24" fill="none" xmlns="http://www.w3.org/2000/svg">
<path fill-rule="evenodd" clip-rule="evenodd" d="M11.25 2C11.25 1.58579 11.5858 1.25 12 1.25C15.1756 1.25 17.75 3.82436 17.75 7C17.75 10.1756 15.1756 12.75 12 12.75C11.5858 12.75 11.25 12.4142 11.25 12V2ZM12.75 2.81597V11.184C14.7395 10.8298 16.25 9.09127 16.25 7C16.25 4.90871 14.7395 3.1702 12.75 2.81597Z" fill="#222222"/>
<path fill-rule="evenodd" clip-rule="evenodd" d="M11.25 12C11.25 11.5858 11.5858 11.25 12 11.25H22C22.4142 11.25 22.75 11.5858 22.75 12C22.75 15.1756 20.1756 17.75 17 17.75C13.8244 17.75 11.25 15.1756 11.25 12ZM12.816 12.75C13.1702 14.7395 14.9087 16.25 17 16.25C19.0913 16.25 20.8298 14.7395 21.184 12.75H12.816Z" fill="#222222"/>
<path fill-rule="evenodd" clip-rule="evenodd" d="M1.25 12C1.25 8.82439 3.82436 6.25 7 6.25C10.1756 6.25 12.75 8.82439 12.75 12C12.75 12.4142 12.4142 12.75 12 12.75H2C1.58579 12.75 1.25 12.4142 1.25 12ZM2.81597 11.25H11.184C10.8298 9.26051 9.09127 7.75 7 7.75C4.90871 7.75 3.1702 9.26051 2.81597 11.25Z" fill="#222222"/>
<path fill-rule="evenodd" clip-rule="evenodd" d="M6.25 17C6.25 13.8244 8.82439 11.25 12 11.25C12.4142 11.25 12.75 11.5858 12.75 12V22C12.75 22.4142 12.4142 22.75 12 22.75C8.82439 22.75 6.25 20.1756 6.25 17ZM11.25 12.816C9.26051 13.1702 7.75 14.9087 7.75 17C7.75 19.0913 9.26051 20.8298 11.25 21.184V12.816Z" fill="#222222"/>
</svg>
