<svg width="25" height="24" viewBox="0 0 25 24" fill="none" xmlns="http://www.w3.org/2000/svg">
<path fill-rule="evenodd" clip-rule="evenodd" d="M2.88556 18.6433L2.88852 18.6415L2.90522 18.6317C2.92092 18.6226 2.94561 18.6085 2.97869 18.5899C3.04489 18.5529 3.14448 18.4985 3.27263 18.4326C3.5294 18.3005 3.89828 18.1234 4.34098 17.9464C5.23773 17.5877 6.38603 17.25 7.49993 17.25C9.12947 17.25 10.5674 17.9166 12.1796 18.6782C12.1997 18.6876 12.2198 18.6971 12.2399 18.7066C13.7876 19.4379 15.5066 20.25 17.4999 20.25C18.886 20.25 20.2377 19.8377 21.216 19.4464C21.7108 19.2484 22.1231 19.0505 22.4133 18.9013C22.5585 18.8266 22.6738 18.7638 22.7541 18.7188C22.7942 18.6963 22.8257 18.6783 22.8478 18.6654L22.874 18.6501L22.8817 18.6455L22.8851 18.6435C22.8853 18.6434 22.8858 18.6431 22.4999 18L22.8851 18.6435C23.2403 18.4304 23.3562 17.9693 23.1431 17.6141C22.93 17.259 22.4695 17.1438 22.1143 17.3567L22.1113 17.3585L22.0946 17.3683C22.079 17.3774 22.0543 17.3915 22.0212 17.4101C21.955 17.4471 21.8554 17.5015 21.7272 17.5674C21.4705 17.6995 21.1016 17.8766 20.6589 18.0536C19.7621 18.4123 18.6138 18.75 17.4999 18.75C15.8704 18.75 14.4325 18.0834 12.8203 17.3218C12.8002 17.3124 12.7801 17.3029 12.76 17.2934C11.2122 16.5621 9.49328 15.75 7.49993 15.75C6.11383 15.75 4.76214 16.1623 3.78389 16.5536C3.28909 16.7516 2.87672 16.9495 2.58661 17.0987C2.44132 17.1734 2.32607 17.2362 2.24579 17.2812C2.20563 17.3037 2.17417 17.3217 2.15202 17.3346L2.12584 17.3499L2.11812 17.3545L2.11563 17.3559L2.11473 17.3565C2.11457 17.3566 2.11406 17.3569 2.4998 17.9998L2.11473 17.3565C1.75955 17.5696 1.6437 18.0307 1.85681 18.3859C2.06988 18.741 2.53041 18.8562 2.88556 18.6433Z" fill="#222222"/>
<path fill-rule="evenodd" clip-rule="evenodd" d="M2.88556 12.6433L2.88852 12.6415L2.90522 12.6317C2.92092 12.6226 2.94561 12.6085 2.97869 12.5899C3.04489 12.5529 3.14448 12.4985 3.27263 12.4326C3.5294 12.3005 3.89828 12.1234 4.34098 11.9464C5.23773 11.5877 6.38603 11.25 7.49993 11.25C9.12947 11.25 10.5674 11.9166 12.1796 12.6782C12.1997 12.6876 12.2198 12.6971 12.2399 12.7066C13.7876 13.4379 15.5066 14.25 17.4999 14.25C18.886 14.25 20.2377 13.8377 21.216 13.4464C21.7108 13.2484 22.1231 13.0505 22.4133 12.9013C22.5585 12.8266 22.6738 12.7638 22.7541 12.7188C22.7942 12.6963 22.8257 12.6783 22.8478 12.6654L22.874 12.6501L22.8817 12.6455L22.8851 12.6435C22.8853 12.6434 22.8858 12.6431 22.4999 12L22.8851 12.6435C23.2403 12.4304 23.3562 11.9693 23.1431 11.6141C22.93 11.259 22.4695 11.1438 22.1143 11.3567L22.1113 11.3585L22.0946 11.3683C22.079 11.3774 22.0543 11.3915 22.0212 11.4101C21.955 11.4471 21.8554 11.5015 21.7272 11.5674C21.4705 11.6995 21.1016 11.8766 20.6589 12.0536C19.7621 12.4123 18.6138 12.75 17.4999 12.75C15.8704 12.75 14.4325 12.0834 12.8203 11.3218C12.8002 11.3124 12.7801 11.3029 12.76 11.2934C11.2122 10.5621 9.49328 9.75 7.49993 9.75C6.11383 9.75 4.76214 10.1623 3.78389 10.5536C3.28909 10.7516 2.87672 10.9495 2.58661 11.0987C2.44132 11.1734 2.32607 11.2362 2.24579 11.2812C2.20563 11.3037 2.17417 11.3217 2.15202 11.3346L2.12584 11.3499L2.11812 11.3545L2.11563 11.3559L2.11473 11.3565C2.11457 11.3566 2.11406 11.3569 2.4998 11.9998L2.11473 11.3565C1.75955 11.5696 1.6437 12.0307 1.85681 12.3859C2.06988 12.741 2.53041 12.8562 2.88556 12.6433Z" fill="#222222"/>
<path fill-rule="evenodd" clip-rule="evenodd" d="M2.88556 6.64327L2.88852 6.64151L2.90522 6.63175C2.92092 6.62263 2.94561 6.60845 2.97869 6.58993C3.04489 6.55285 3.14448 6.4985 3.27263 6.43259C3.5294 6.30054 3.89828 6.12344 4.34098 5.94636C5.23773 5.58766 6.38603 5.25 7.49993 5.25C9.12947 5.25 10.5674 5.9166 12.1796 6.67815C12.1997 6.68763 12.2198 6.69713 12.2399 6.70664C13.7876 7.43787 15.5066 8.25 17.4999 8.25C18.886 8.25 20.2377 7.83766 21.216 7.44636C21.7108 7.24844 22.1231 7.05054 22.4133 6.90134C22.5585 6.82662 22.6738 6.76379 22.7541 6.71883C22.7942 6.69634 22.8257 6.6783 22.8478 6.66544L22.874 6.65012L22.8817 6.64555L22.8851 6.64352C22.8853 6.64343 22.8858 6.64312 22.4999 6L22.8851 6.64352C23.2403 6.43041 23.3562 5.96931 23.1431 5.61413C22.93 5.25903 22.4695 5.14382 22.1143 5.35673L22.1113 5.35849L22.0946 5.36825C22.079 5.37737 22.0543 5.39155 22.0212 5.41007C21.955 5.44715 21.8554 5.5015 21.7272 5.56741C21.4705 5.69946 21.1016 5.87656 20.6589 6.05364C19.7621 6.41234 18.6138 6.75 17.4999 6.75C15.8704 6.75 14.4325 6.0834 12.8203 5.32185C12.8002 5.31237 12.7801 5.30287 12.76 5.29336C11.2122 4.56213 9.49328 3.75 7.49993 3.75C6.11383 3.75 4.76214 4.16234 3.78389 4.55364C3.28909 4.75156 2.87672 4.94946 2.58661 5.09866C2.44132 5.17338 2.32607 5.23621 2.24579 5.28117C2.20563 5.30366 2.17417 5.3217 2.15202 5.33456L2.12584 5.34988L2.11812 5.35445L2.11563 5.35594L2.11473 5.35648C2.11457 5.35657 2.11406 5.35688 2.4998 5.99977L2.11473 5.35648C1.75955 5.56959 1.6437 6.03069 1.85681 6.38587C2.06988 6.74097 2.53041 6.85618 2.88556 6.64327Z" fill="#222222"/>
</svg>
