<svg width="64" height="64" viewBox="0 0 64 64" fill="none" xmlns="http://www.w3.org/2000/svg">
<path d="M53.3332 34.6667H55.0832V32.9167H53.3332V34.6667ZM31.9998 42.6667V40.9167C31.0333 40.9167 30.2498 41.7002 30.2498 42.6667H31.9998ZM42.6665 42.6667H44.4165C44.4165 41.7002 43.633 40.9167 42.6665 40.9167V42.6667ZM42.6665 58.6667L41.4291 59.9041C41.9296 60.4046 42.6823 60.5543 43.3362 60.2835C43.9901 60.0126 44.4165 59.3745 44.4165 58.6667H42.6665ZM31.9998 58.6667H30.2498C30.2498 59.3745 30.6762 60.0126 31.3301 60.2835C31.9841 60.5543 32.7368 60.4046 33.2373 59.9041L31.9998 58.6667ZM37.3332 53.3333L38.5706 52.0959C37.8872 51.4125 36.7792 51.4125 36.0957 52.0959L37.3332 53.3333ZM21.3332 14.25C20.3667 14.25 19.5832 15.0335 19.5832 16C19.5832 16.9665 20.3667 17.75 21.3332 17.75V14.25ZM42.6665 17.75C43.633 17.75 44.4165 16.9665 44.4165 16C44.4165 15.0335 43.633 14.25 42.6665 14.25V17.75ZM21.3332 23.5833C20.3667 23.5833 19.5832 24.3668 19.5832 25.3333C19.5832 26.2998 20.3667 27.0833 21.3332 27.0833V23.5833ZM31.9998 27.0833C32.9663 27.0833 33.7498 26.2998 33.7498 25.3333C33.7498 24.3668 32.9663 23.5833 31.9998 23.5833V27.0833ZM18.6665 7.08334H45.3332V3.58334H18.6665V7.08334ZM51.5832 13.3333V42.6667H55.0832V13.3333H51.5832ZM12.4165 42.6667V13.3333H8.9165V42.6667H12.4165ZM45.3332 48.9167H44.1903V52.4167H45.3332V48.9167ZM31.9998 48.9167H18.6665V52.4167H31.9998V48.9167ZM8.9165 42.6667C8.9165 48.0514 13.2817 52.4167 18.6665 52.4167V48.9167C15.2147 48.9167 12.4165 46.1184 12.4165 42.6667H8.9165ZM51.5832 42.6667C51.5832 46.1184 48.785 48.9167 45.3332 48.9167V52.4167C50.7179 52.4167 55.0832 48.0514 55.0832 42.6667H51.5832ZM45.3332 7.08334C48.785 7.08334 51.5832 9.88156 51.5832 13.3333H55.0832C55.0832 7.94856 50.7179 3.58334 45.3332 3.58334V7.08334ZM18.6665 3.58334C13.2817 3.58334 8.9165 7.94856 8.9165 13.3333H12.4165C12.4165 9.88156 15.2147 7.08334 18.6665 7.08334V3.58334ZM18.6665 36.4167H53.3332V32.9167H18.6665V36.4167ZM51.5832 34.6667V42.6667H55.0832V34.6667H51.5832ZM18.6665 32.9167C13.2817 32.9167 8.9165 37.2819 8.9165 42.6667H12.4165C12.4165 39.2149 15.2147 36.4167 18.6665 36.4167V32.9167ZM31.9998 44.4167H42.6665V40.9167H31.9998V44.4167ZM40.9165 42.6667V58.6667H44.4165V42.6667H40.9165ZM33.7498 58.6667V42.6667H30.2498V58.6667H33.7498ZM43.9039 57.4292L38.5706 52.0959L36.0957 54.5708L41.4291 59.9041L43.9039 57.4292ZM36.0957 52.0959L30.7624 57.4292L33.2373 59.9041L38.5706 54.5708L36.0957 52.0959ZM21.3332 17.75H42.6665V14.25H21.3332V17.75ZM21.3332 27.0833H31.9998V23.5833H21.3332V27.0833Z" fill="#0AB3A3"/>
</svg>
