<svg width="129" height="46" viewBox="0 0 129 46" fill="none" xmlns="http://www.w3.org/2000/svg">
<path fill-rule="evenodd" clip-rule="evenodd" d="M79.3408 3.13807C79.3408 4.87118 77.8602 6.27615 76.0337 6.27615C74.2073 6.27615 72.7266 4.87118 72.7266 3.13807C72.7266 1.40496 74.2073 0 76.0337 0C77.8602 0 79.3408 1.40496 79.3408 3.13807ZM21.4941 32H10.3141L9.9301 31.9629C5.50477 31.5369 0.933115 31.0968 0 25.9635V23.0011C1.51973 16.7075 9.27151 15.9083 14.7849 16.2324C15.6528 16.2846 15.8943 15.9418 15.5095 15.204C13.6869 11.7196 9.71986 11.8719 6.12108 12.01C5.77699 12.0232 5.43626 12.0363 5.1011 12.046C4.85763 12.0535 4.73785 11.9417 4.74178 11.7107L4.75945 9.90529C4.76075 9.72534 4.82427 9.55076 4.94026 9.40839C5.05626 9.26601 5.2183 9.16371 5.40151 9.11719C9.88215 7.94343 13.9976 8.30674 17.7478 10.2071C21.0288 11.8727 21.5118 14.5668 21.5353 17.9931C21.5589 22.6621 21.5452 27.331 21.4941 32ZM15.7569 28.1825L15.6155 19.8879C15.6139 19.8295 15.5884 19.7741 15.5444 19.7334C15.5004 19.6927 15.4413 19.6699 15.3799 19.6699L11.8986 19.7202C11.0996 19.732 10.3101 19.8463 9.57514 20.0566C8.84018 20.2669 8.17418 20.569 7.61517 20.9459C7.05615 21.3227 6.61508 21.7667 6.31712 22.2527C6.01916 22.7386 5.87016 23.257 5.87863 23.7781L5.89041 24.5829C5.89869 25.1041 6.06434 25.618 6.37789 26.095C6.69145 26.5721 7.14677 27.003 7.71785 27.3632C8.28892 27.7235 8.96456 28.0059 9.70617 28.1944C10.4478 28.3829 11.2408 28.4738 12.04 28.4619L15.5212 28.406C15.5837 28.406 15.6437 28.3825 15.6878 28.3406C15.732 28.2986 15.7569 28.2418 15.7569 28.1825ZM26.1947 32H32.0144C32.0301 26.977 32.036 21.9522 32.0321 16.9255C32.0321 11.9038 37.2832 11.9522 41.1785 11.9881H41.1786H41.1786H41.1786H41.1787H41.1787H41.1787C41.6883 11.9928 42.1747 11.9972 42.623 11.9901C42.8744 11.9864 42.9981 11.8653 42.9941 11.6268L42.9706 10.2239C42.9588 9.53826 42.6014 9.11161 41.8985 8.94393C37.2039 7.82606 28.6215 8.45206 26.7072 13.7787C26.3459 14.7885 26.1711 16.3442 26.1829 18.4458C26.2065 22.9695 26.2104 27.4875 26.1947 32ZM67.9459 32H62.0849C62.0928 26.9249 62.081 21.846 62.0496 16.7634C62.0201 12.3814 56.7305 11.0511 53.3377 12.6944C51.5234 13.57 50.6124 14.6935 50.6045 16.0648C50.5849 21.3821 50.5672 26.6938 50.5515 32H44.7141C44.6945 26.9733 44.7004 21.941 44.7318 16.9032C44.7553 12.9943 46.7188 10.4605 50.6222 9.30165C55.5152 7.85214 60.0076 8.14279 64.0994 10.1736C67.4805 11.8504 67.94 14.6786 67.9577 18.1552C67.9812 22.772 67.9773 27.3869 67.9459 32ZM73.0824 32H78.9551L78.9846 8.73711C78.9846 8.69674 78.9762 8.65677 78.9599 8.61947C78.9436 8.58217 78.9197 8.54828 78.8897 8.51974C78.8596 8.49119 78.8239 8.46855 78.7846 8.4531C78.7453 8.43765 78.7031 8.4297 78.6606 8.4297H73.3298C73.2595 8.4297 73.192 8.45679 73.1423 8.505C73.0926 8.55322 73.0647 8.61862 73.0647 8.68681L73.0824 32ZM126.508 32H115.458C110.104 31.782 104.891 30.6809 104.967 24.4152C105.061 16.6796 114.25 15.9697 120.359 16.2101C120.416 16.2114 120.473 16.1999 120.524 16.1767C120.576 16.1534 120.621 16.1191 120.655 16.0764C120.69 16.0338 120.713 15.9842 120.723 15.9316C120.733 15.879 120.729 15.825 120.712 15.7741C119.324 11.5963 114.479 11.8429 110.645 12.038L110.645 12.038C110.478 12.0465 110.313 12.0549 110.151 12.0628C110.104 12.0651 110.057 12.0582 110.012 12.0427C109.968 12.0271 109.928 12.0032 109.893 11.9723C109.859 11.9415 109.832 11.9044 109.814 11.8632C109.795 11.8221 109.785 11.7778 109.786 11.733L109.768 9.96678C109.766 9.77209 109.831 9.58214 109.953 9.42577C110.076 9.26941 110.248 9.15518 110.445 9.10043C115.317 7.77575 123.687 8.35146 125.919 13.4825C126.351 14.4811 126.563 16.4448 126.556 19.3737C126.544 23.5843 126.528 27.7931 126.508 32ZM120.783 28.2328L120.642 19.8264C120.642 19.7819 120.623 19.7393 120.59 19.7078C120.557 19.6764 120.512 19.6587 120.465 19.6587L116.966 19.7146C115.338 19.7386 113.784 20.1801 112.645 20.9422C111.506 21.7042 110.876 22.7243 110.893 23.7781L110.905 24.5718C110.913 25.0938 111.08 25.6084 111.396 26.0862C111.712 26.5639 112.171 26.9955 112.747 27.3563C113.323 27.717 114.005 27.9999 114.753 28.1886C115.501 28.3774 116.301 28.4683 117.107 28.4563L120.606 28.4005C120.629 28.4005 120.652 28.3961 120.674 28.3877C120.695 28.3793 120.715 28.3669 120.731 28.3513C120.748 28.3358 120.761 28.3173 120.769 28.2969C120.778 28.2766 120.783 28.2548 120.783 28.2328ZM96.9915 28.3893C94.0169 28.4284 89.6285 27.6124 89.6992 23.9346C89.7463 21.6541 89.7424 19.3252 89.6874 16.9479C89.6344 14.8854 90.4944 13.516 92.556 12.6441C93.9305 12.0628 97.1839 11.8653 102.316 12.0516C102.729 12.0665 102.935 11.8783 102.935 11.4871V10.1512C102.935 9.43579 102.562 9.01659 101.816 8.89363C95.6367 7.89872 83.8677 7.77017 83.8029 16.6181C83.7832 18.8799 83.7695 21.071 83.7617 23.1912C83.7459 27.3944 85.8252 30.053 89.9996 31.1672C93.4514 32.0876 97.4981 32.1658 102.14 31.4019C102.366 31.3638 102.571 31.2515 102.719 31.0849C102.867 30.9183 102.947 30.7079 102.947 30.4909L102.935 28.8923C102.935 28.5383 102.746 28.3595 102.369 28.3557C100.559 28.352 98.7665 28.3632 96.9915 28.3893ZM128.574 9.94844V8.13711L127.785 9.51172H127.536L126.744 8.13711V9.94844H126.322V7.40685H126.774L127.661 8.96044L128.547 7.40685H129V9.94844H128.574ZM125.072 7.76124H125.962V7.40685H123.752V7.76124H124.646V9.94844H125.072V7.76124Z" fill="#FF0000"/>
<path d="M126.709 38.5112C127.146 38.5112 127.539 38.619 127.888 38.8347C128.237 39.0439 128.51 39.3325 128.706 39.7003C128.903 40.0681 129.001 40.4771 129.001 40.9274C129.001 41.3776 128.9 41.7898 128.697 42.164C128.5 42.5318 128.227 42.8235 127.879 43.0391C127.53 43.2484 127.14 43.353 126.709 43.353C126.366 43.353 126.043 43.2864 125.738 43.1533C125.44 43.0137 125.196 42.8235 125.006 42.5825V44.9606H124.273V38.6159H124.958V39.3578C125.136 39.0915 125.38 38.8854 125.691 38.7395C126.008 38.5873 126.347 38.5112 126.709 38.5112ZM126.604 42.6776C126.915 42.6776 127.194 42.6047 127.441 42.4589C127.695 42.3067 127.891 42.0974 128.031 41.831C128.177 41.5647 128.25 41.2666 128.25 40.9369C128.25 40.6071 128.177 40.3091 128.031 40.0427C127.891 39.7764 127.695 39.5671 127.441 39.4149C127.194 39.2627 126.915 39.1866 126.604 39.1866C126.325 39.1866 126.062 39.25 125.814 39.3769C125.573 39.5037 125.377 39.6971 125.225 39.9571C125.072 40.2171 124.996 40.5405 124.996 40.9274C124.996 41.3142 125.069 41.6408 125.215 41.9071C125.367 42.1671 125.564 42.3606 125.805 42.4874C126.052 42.6142 126.319 42.6776 126.604 42.6776Z" fill="#222222"/>
<path d="M122.927 41.1557H119.265C119.309 41.6123 119.49 41.9801 119.807 42.2591C120.124 42.5381 120.511 42.6776 120.968 42.6776C121.494 42.6776 121.966 42.4684 122.385 42.0498L122.813 42.5445C122.572 42.7981 122.293 42.9979 121.976 43.1437C121.665 43.2833 121.326 43.353 120.958 43.353C120.502 43.353 120.086 43.2484 119.712 43.0391C119.338 42.8235 119.043 42.5318 118.827 42.164C118.612 41.7962 118.504 41.3871 118.504 40.9369C118.504 40.493 118.609 40.0871 118.818 39.7193C119.027 39.3451 119.312 39.0503 119.674 38.8347C120.035 38.619 120.435 38.5112 120.872 38.5112C121.266 38.5112 121.624 38.6 121.947 38.7776C122.271 38.9551 122.524 39.2025 122.708 39.5195C122.892 39.8366 122.984 40.1981 122.984 40.6039C122.984 40.7815 122.965 40.9654 122.927 41.1557ZM120.853 39.1771C120.467 39.1771 120.131 39.3008 119.845 39.5481C119.56 39.7891 119.376 40.1093 119.293 40.5088H122.233C122.226 40.0966 122.09 39.7732 121.824 39.5386C121.564 39.2976 121.24 39.1771 120.853 39.1771Z" fill="#222222"/>
<path d="M115.552 39.2724H113.992V38.616H117.835V39.2724H116.275V43.2485H115.552V39.2724Z" fill="#222222"/>
<path d="M111.024 38.5112C111.455 38.5112 111.852 38.619 112.213 38.8347C112.581 39.0503 112.869 39.342 113.079 39.7098C113.294 40.0776 113.402 40.4835 113.402 40.9274C113.402 41.3649 113.294 41.7708 113.079 42.145C112.869 42.5128 112.581 42.8045 112.213 43.0201C111.852 43.2357 111.452 43.3435 111.015 43.3435C110.596 43.3435 110.212 43.2452 109.864 43.0486C109.515 42.852 109.233 42.5825 109.017 42.2401C108.801 41.8976 108.681 41.5203 108.655 41.1081H107.818V43.2484H107.086V38.6159H107.818V40.4613H108.684C108.754 40.0871 108.9 39.7542 109.122 39.4625C109.344 39.1644 109.619 38.9329 109.949 38.7681C110.279 38.5968 110.637 38.5112 111.024 38.5112ZM111.015 42.6681C111.319 42.6681 111.595 42.592 111.842 42.4398C112.096 42.2876 112.292 42.0815 112.432 41.8215C112.578 41.5552 112.651 41.2603 112.651 40.9369C112.651 40.6135 112.578 40.3186 112.432 40.0522C112.292 39.7859 112.099 39.5766 111.852 39.4244C111.604 39.2659 111.328 39.1866 111.024 39.1866C110.713 39.1866 110.434 39.2627 110.187 39.4149C109.94 39.5671 109.746 39.7764 109.607 40.0427C109.467 40.3091 109.397 40.6071 109.397 40.9369C109.397 41.2603 109.467 41.5552 109.607 41.8215C109.746 42.0815 109.94 42.2876 110.187 42.4398C110.434 42.592 110.71 42.6681 111.015 42.6681Z" fill="#222222"/>
<path d="M102.238 38.616H102.971V40.2141H104.074C104.601 40.2141 105.019 40.3536 105.33 40.6326C105.647 40.9053 105.805 41.27 105.805 41.7266C105.805 42.1832 105.647 42.551 105.33 42.83C105.019 43.109 104.601 43.2485 104.074 43.2485H102.238V38.616ZM104.036 42.6017C104.36 42.6017 104.61 42.5224 104.788 42.3639C104.965 42.2054 105.054 41.9961 105.054 41.7361C105.054 41.4761 104.962 41.2668 104.778 41.1083C104.601 40.9434 104.35 40.8609 104.027 40.8609H102.971V42.6017H104.036Z" fill="#222222"/>
<path d="M98.6407 38.6823C99.0592 38.6823 99.4461 38.7869 99.8012 38.9962C100.156 39.2054 100.435 39.4908 100.638 39.8523C100.848 40.2074 100.952 40.5942 100.952 41.0128C100.952 41.4377 100.844 41.8308 100.629 42.1923C100.413 42.5474 100.121 42.8296 99.7536 43.0389C99.3858 43.2418 98.98 43.3433 98.536 43.3433C98.0668 43.3433 97.6514 43.2355 97.2899 43.0199C96.9285 42.7979 96.6463 42.4904 96.4433 42.0972C96.2467 41.6977 96.1484 41.2442 96.1484 40.7369V39.9284C96.1484 39.2181 96.2182 38.6347 96.3577 38.1781C96.5036 37.7215 96.7826 37.341 97.1948 37.0366C97.6133 36.7322 98.2158 36.5134 99.0021 36.3803C99.7885 36.2407 100.309 36.1171 100.562 36.0093V36.7132C100.27 36.84 99.779 36.9542 99.0878 37.0556C98.4282 37.1508 97.9368 37.3188 97.6133 37.5598C97.2899 37.7944 97.0838 38.0735 96.995 38.3969C96.9063 38.714 96.8619 39.1198 96.8619 39.6145C97.0584 39.3227 97.3121 39.0945 97.6228 38.9296C97.9399 38.7647 98.2792 38.6823 98.6407 38.6823ZM98.5455 42.6679C98.8499 42.6679 99.129 42.595 99.3826 42.4491C99.6363 42.3033 99.8361 42.1035 99.9819 41.8499C100.128 41.5962 100.201 41.3172 100.201 41.0128C100.201 40.7084 100.128 40.4294 99.9819 40.1757C99.8361 39.922 99.6363 39.7223 99.3826 39.5764C99.129 39.4306 98.8499 39.3576 98.5455 39.3576C98.2475 39.3576 97.9716 39.4306 97.718 39.5764C97.4643 39.7223 97.2614 39.922 97.1092 40.1757C96.9633 40.4294 96.8904 40.7084 96.8904 41.0128C96.8904 41.3108 96.9633 41.5867 97.1092 41.8404C97.2614 42.094 97.4643 42.2969 97.718 42.4491C97.9716 42.595 98.2475 42.6679 98.5455 42.6679Z" fill="#222222"/>
<path d="M94.7732 38.5112V43.2484H94.0407V39.9761L91.2156 43.353H90.9492V38.6159H91.6817V41.8976L94.5068 38.5112H94.7732Z" fill="#222222"/>
<path d="M87.3766 38.5112C87.8141 38.5112 88.2073 38.619 88.5561 38.8347C88.9049 39.0439 89.1776 39.3325 89.3742 39.7003C89.5708 40.0681 89.669 40.4771 89.669 40.9274C89.669 41.3776 89.5676 41.7898 89.3646 42.164C89.1681 42.5318 88.8954 42.8235 88.5466 43.0391C88.1978 43.2484 87.8078 43.353 87.3766 43.353C87.0341 43.353 86.7107 43.2864 86.4063 43.1533C86.1083 43.0137 85.8641 42.8235 85.6739 42.5825V44.9606H84.9414V38.6159H85.6263V39.3578C85.8039 39.0915 86.048 38.8854 86.3588 38.7395C86.6758 38.5873 87.0151 38.5112 87.3766 38.5112ZM87.2719 42.6776C87.5827 42.6776 87.8617 42.6047 88.109 42.4589C88.3627 42.3067 88.5593 42.0974 88.6988 41.831C88.8446 41.5647 88.9176 41.2666 88.9176 40.9369C88.9176 40.6071 88.8446 40.3091 88.6988 40.0427C88.5593 39.7764 88.3627 39.5671 88.109 39.4149C87.8617 39.2627 87.5827 39.1866 87.2719 39.1866C86.9929 39.1866 86.7297 39.25 86.4824 39.3769C86.2414 39.5037 86.0448 39.6971 85.8926 39.9571C85.7404 40.2171 85.6643 40.5405 85.6643 40.9274C85.6643 41.3142 85.7373 41.6408 85.8831 41.9071C86.0353 42.1671 86.2319 42.3606 86.4729 42.4874C86.7202 42.6142 86.9866 42.6776 87.2719 42.6776Z" fill="#222222"/>
<path d="M81.646 39.2724H80.0859V38.616H83.9289V39.2724H82.3689V43.2485H81.646V39.2724Z" fill="#222222"/>
<path d="M77.5585 43.353C77.1146 43.353 76.7055 43.2452 76.3314 43.0296C75.9636 42.814 75.6718 42.5223 75.4562 42.1545C75.2406 41.7803 75.1328 41.3713 75.1328 40.9274C75.1328 40.4835 75.2406 40.0776 75.4562 39.7098C75.6718 39.342 75.9636 39.0503 76.3314 38.8347C76.7055 38.619 77.1146 38.5112 77.5585 38.5112C77.9643 38.5112 78.3321 38.6032 78.6619 38.7871C78.9917 38.9647 79.2612 39.2088 79.4705 39.5195L78.9473 39.9381C78.5731 39.4371 78.1134 39.1866 77.568 39.1866C77.2509 39.1866 76.9624 39.2659 76.7024 39.4244C76.4487 39.5766 76.2489 39.7859 76.1031 40.0522C75.9572 40.3186 75.8843 40.6103 75.8843 40.9274C75.8843 41.2508 75.9572 41.5457 76.1031 41.812C76.2489 42.0784 76.4487 42.2908 76.7024 42.4493C76.9624 42.6015 77.2509 42.6776 77.568 42.6776C78.1134 42.6776 78.57 42.4303 78.9378 41.9357L79.4609 42.3447C79.2517 42.6554 78.9821 42.9028 78.6524 43.0867C78.329 43.2642 77.9643 43.353 77.5585 43.353Z" fill="#222222"/>
<path d="M73.8552 38.5112V43.2484H73.1228V39.9761L70.2976 43.353H70.0312V38.6159H70.7637V41.8976L73.5889 38.5112H73.8552Z" fill="#222222"/>
<path d="M68.8777 42.6017V44.5898H68.1452V43.2485H64.502V44.5898H63.7695V42.6017H64.2927C64.5083 42.3798 64.6605 42.0532 64.7493 41.6219C64.8381 41.1844 64.8888 40.6168 64.9015 39.9192L64.93 38.616H68.1262V42.6017H68.8777ZM65.5959 39.9287C65.5832 40.5756 65.5293 41.1305 65.4342 41.5934C65.3391 42.05 65.2154 42.3861 65.0632 42.6017H67.3937V39.2724H65.6244L65.5959 39.9287Z" fill="#222222"/>
<path d="M60.2537 38.5113V43.2484H59.5212V39.9762L56.696 43.3531H56.4297V38.6159H57.1621V41.8977L59.9873 38.5113H60.2537ZM58.4463 37.7978C58.0151 37.7978 57.6663 37.6615 57.3999 37.3888C57.1399 37.1098 57.0099 36.7451 57.0099 36.2949V36H57.6282V36.2759C57.6282 36.5866 57.698 36.8276 57.8375 36.9988C57.9834 37.1637 58.1863 37.2461 58.4463 37.2461C58.7127 37.2461 58.9156 37.1637 59.0551 36.9988C59.201 36.8276 59.2739 36.5866 59.2739 36.2759V36H59.8922V36.2949C59.8922 36.7451 59.759 37.1098 59.4927 37.3888C59.2327 37.6615 58.8839 37.7978 58.4463 37.7978Z" fill="#222222"/>
<path d="M49.8438 38.616H50.5762V40.2141H51.6796C52.1996 40.2141 52.6182 40.3536 52.9353 40.6326C53.2523 40.9053 53.4109 41.27 53.4109 41.7266C53.4109 42.1895 53.2523 42.5605 52.9353 42.8395C52.6245 43.1122 52.206 43.2485 51.6796 43.2485H49.8438V38.616ZM54.0863 38.616H54.8187V43.2485H54.0863V38.616ZM51.6416 42.6017C51.9713 42.6017 52.2218 42.5288 52.3931 42.3829C52.5706 42.2307 52.6594 42.0151 52.6594 41.7361C52.6594 41.4571 52.5706 41.2414 52.3931 41.0892C52.2155 40.937 51.9618 40.8609 51.6321 40.8609H50.5762V42.6017H51.6416Z" fill="#222222"/>
<path d="M44.5039 38.616H45.2364V40.4614H47.5098V38.616H48.2423V43.2485H47.5098V41.1083H45.2364V43.2485H44.5039V38.616Z" fill="#222222"/>
<path d="M39.6562 38.616H40.3887V40.2141H41.4921C42.0185 40.2141 42.437 40.3536 42.7478 40.6326C43.0648 40.9053 43.2234 41.27 43.2234 41.7266C43.2234 42.1832 43.0648 42.551 42.7478 42.83C42.437 43.109 42.0185 43.2485 41.4921 43.2485H39.6562V38.616ZM41.4541 42.6017C41.7775 42.6017 42.028 42.5224 42.2056 42.3639C42.3831 42.2054 42.4719 41.9961 42.4719 41.7361C42.4719 41.4761 42.38 41.2668 42.196 41.1083C42.0185 40.9434 41.768 40.8609 41.4446 40.8609H40.3887V42.6017H41.4541Z" fill="#222222"/>
<path d="M38.0382 38.616V43.2485H37.3057V39.2724H35.584L35.565 39.8431C35.5396 40.6548 35.4794 41.308 35.3842 41.8027C35.2891 42.2973 35.1369 42.6683 34.9277 42.9156C34.7184 43.1629 34.433 43.2866 34.0715 43.2866C33.9828 43.2866 33.9003 43.2739 33.8242 43.2485V42.6302C33.9003 42.6429 33.9637 42.6493 34.0145 42.6493C34.3125 42.6493 34.525 42.4178 34.6518 41.9549C34.7786 41.4856 34.8516 40.7753 34.8706 39.8241L34.8991 38.616H38.0382Z" fill="#222222"/>
<path d="M31.1758 38.5112C31.7211 38.5112 32.1587 38.6729 32.4885 38.9964C32.8182 39.3198 32.9831 39.7859 32.9831 40.3947V43.2484H32.2982V42.6491C32.127 42.8774 31.9082 43.0518 31.6419 43.1723C31.3755 43.2928 31.0743 43.353 30.7382 43.353C30.2626 43.353 29.8726 43.2357 29.5682 43.0011C29.2701 42.7664 29.1211 42.4493 29.1211 42.0498C29.1211 41.6567 29.2733 41.3427 29.5777 41.1081C29.8821 40.8735 30.2848 40.7561 30.7858 40.7561H32.2507V40.3566C32.2507 39.9761 32.1492 39.6876 31.9463 39.491C31.7497 39.2881 31.477 39.1866 31.1282 39.1866C30.8492 39.1866 30.6019 39.25 30.3862 39.3769C30.1706 39.4973 29.9677 39.6813 29.7774 39.9286L29.2923 39.5291C29.5016 39.1866 29.7711 38.9329 30.1009 38.7681C30.4306 38.5968 30.7889 38.5112 31.1758 38.5112ZM30.8333 42.7442C31.087 42.7442 31.3216 42.6903 31.5372 42.5825C31.7528 42.4684 31.9241 42.313 32.0509 42.1164C32.1841 41.9198 32.2507 41.7042 32.2507 41.4696V41.3554H30.8714C30.5479 41.3554 30.3006 41.4125 30.1294 41.5266C29.9582 41.6345 29.8726 41.7962 29.8726 42.0118C29.8726 42.2464 29.9645 42.4272 30.1484 42.554C30.3323 42.6808 30.5606 42.7442 30.8333 42.7442Z" fill="#222222"/>
<path d="M27.9021 38.5112V43.2484H27.1696V39.9761L24.3445 43.353H24.0781V38.6159H24.8106V41.8976L27.6357 38.5112H27.9021Z" fill="#222222"/>
<path d="M22.1942 43.2485H18.4844V38.616H19.2168V42.6017H21.4427V38.616H22.1752V42.6017H22.9266V44.5898H22.1942V43.2485Z" fill="#222222"/>
<path d="M16.8747 38.5112V43.2484H16.1423V39.9761L13.3171 43.353H13.0508V38.6159H13.7832V41.8976L16.6084 38.5112H16.8747Z" fill="#222222"/>
<path d="M11.7689 40.9464C11.7689 41.422 11.6548 41.8405 11.4265 42.202C11.2045 42.5571 10.8938 42.833 10.4943 43.0296C10.1011 43.2261 9.65402 43.334 9.15304 43.353V44.9606H8.42059V43.353C7.91326 43.334 7.45984 43.2261 7.06032 43.0296C6.66714 42.8266 6.35958 42.5476 6.13762 42.1925C5.91567 41.831 5.80469 41.4125 5.80469 40.9368C5.80469 40.4612 5.91567 40.0458 6.13762 39.6907C6.36592 39.3356 6.67665 39.0597 7.06983 38.8631C7.46935 38.6602 7.9196 38.5492 8.42059 38.5302V36.1141H9.15304V38.5302C9.66036 38.5492 10.1106 38.6602 10.5038 38.8631C10.9033 39.0597 11.214 39.3388 11.436 39.7002C11.658 40.0554 11.7689 40.4707 11.7689 40.9464ZM6.55616 40.9464C6.55616 41.479 6.72422 41.9008 7.06032 42.2115C7.39642 42.5159 7.85302 42.6808 8.4301 42.7061V39.1771C7.85302 39.2024 7.39642 39.3705 7.06032 39.6812C6.72422 39.9919 6.55616 40.4137 6.55616 40.9464ZM9.14353 42.7061C9.72061 42.6808 10.1772 42.5127 10.5133 42.202C10.8494 41.8912 11.0175 41.4695 11.0175 40.9368C11.0175 40.4041 10.8494 39.9856 10.5133 39.6812C10.1772 39.3705 9.72061 39.2024 9.14353 39.1771V42.7061Z" fill="#222222"/>
<path d="M2.41614 43.3435C1.97223 43.3435 1.56637 43.2357 1.19856 43.0201C0.830746 42.8045 0.539034 42.5128 0.32342 42.145C0.107807 41.7708 0 41.3649 0 40.9274C0 40.4835 0.107807 40.0776 0.32342 39.7098C0.539034 39.3356 0.830746 39.0439 1.19856 38.8347C1.57271 38.619 1.98174 38.5112 2.42565 38.5112C2.86956 38.5112 3.27542 38.619 3.64323 38.8347C4.01739 39.0503 4.31227 39.342 4.52788 39.7098C4.7435 40.0776 4.8513 40.4835 4.8513 40.9274C4.8513 41.3649 4.7435 41.7708 4.52788 42.145C4.31227 42.5128 4.01739 42.8045 3.64323 43.0201C3.26908 43.2357 2.86005 43.3435 2.41614 43.3435ZM2.41614 42.6681C2.72688 42.6681 3.00908 42.592 3.26274 42.4398C3.52274 42.2876 3.72567 42.0815 3.87153 41.8215C4.02373 41.5552 4.09983 41.2603 4.09983 40.9369C4.09983 40.6071 4.0269 40.3091 3.88104 40.0427C3.73519 39.7764 3.53226 39.5671 3.27225 39.4149C3.01859 39.2627 2.73639 39.1866 2.42565 39.1866C2.10857 39.1866 1.8232 39.2627 1.56954 39.4149C1.31588 39.5671 1.11612 39.7764 0.97026 40.0427C0.824404 40.3091 0.751476 40.6071 0.751476 40.9369C0.751476 41.2603 0.824404 41.5552 0.97026 41.8215C1.11612 42.0815 1.31588 42.2876 1.56954 42.4398C1.8232 42.592 2.1054 42.6681 2.41614 42.6681Z" fill="#222222"/>
</svg>
