<svg display="none" xmlns="http://www.w3.org/2000/svg">
  <symbol id="svg-compare" viewBox="0 0 20 20">
    <path fill-rule="evenodd" clip-rule="evenodd" d="M9.79167 2.5C10.1368 2.5 10.4167 2.77982 10.4167 3.125L10.4167 16.875C10.4167 17.2202 10.1368 17.5 9.79167 17.5C9.44649 17.5 9.16667 17.2202 9.16667 16.875L9.16667 3.125C9.16667 2.77982 9.44649 2.5 9.79167 2.5ZM3.125 10C3.47018 10 3.75 10.2798 3.75 10.625L3.75 16.875C3.75 17.2202 3.47018 17.5 3.125 17.5C2.77982 17.5 2.5 17.2202 2.5 16.875V10.625C2.5 10.2798 2.77982 10 3.125 10ZM17.0833 7.29167C17.0833 6.94649 16.8035 6.66667 16.4583 6.66667C16.1132 6.66667 15.8333 6.94649 15.8333 7.29167L15.8333 16.875C15.8333 17.2202 16.1132 17.5 16.4583 17.5C16.8035 17.5 17.0833 17.2202 17.0833 16.875V7.29167Z" />
  </symbol>

  <symbol id="svg-catalog" viewBox="0 0 20 20">
    <path fill-rule="evenodd" clip-rule="evenodd" d="M3.33203 5.00016C3.33203 4.07969 4.07822 3.3335 4.9987 3.3335H6.66536C7.58584 3.3335 8.33203 4.07969 8.33203 5.00016V6.66683C8.33203 7.5873 7.58584 8.3335 6.66536 8.3335H4.9987C4.07822 8.3335 3.33203 7.5873 3.33203 6.66683V5.00016ZM13.332 3.3335C12.4116 3.3335 11.6654 4.07969 11.6654 5.00016V6.66683C11.6654 7.5873 12.4116 8.3335 13.332 8.3335H14.9987C15.9192 8.3335 16.6654 7.5873 16.6654 6.66683V5.00016C16.6654 4.07969 15.9192 3.3335 14.9987 3.3335H13.332ZM14.1654 16.6668C15.5461 16.6668 16.6654 15.5475 16.6654 14.1668C16.6654 12.7861 15.5461 11.6668 14.1654 11.6668C12.7847 11.6668 11.6654 12.7861 11.6654 14.1668C11.6654 15.5475 12.7847 16.6668 14.1654 16.6668ZM4.9987 11.6668C4.07822 11.6668 3.33203 12.413 3.33203 13.3335V15.0002C3.33203 15.9206 4.07822 16.6668 4.9987 16.6668H6.66536C7.58584 16.6668 8.33203 15.9206 8.33203 15.0002V13.3335C8.33203 12.413 7.58584 11.6668 6.66536 11.6668H4.9987Z" />
  </symbol>

  <symbol id="svg-cart" viewBox="0 0 20 20">
    <path fill-rule="evenodd" clip-rule="evenodd" d="M4.53115 1.90909C5.23302 1.34759 6.10508 1.04169 7.00391 1.04169L12.9987 1.0417C13.8975 1.0417 14.7696 1.3476 15.4714 1.90909L18.0996 4.01158C18.6432 4.44648 18.9596 5.1049 18.9596 5.80107V15C18.9596 17.1862 17.1874 18.9584 15.0013 18.9584H5.0013C2.81518 18.9584 1.04297 17.1862 1.04297 15V5.80107C1.04297 5.1049 1.35942 4.44648 1.90304 4.01158L2.29347 4.49962L1.90304 4.01158L4.53115 1.90909ZM7.00391 2.29169C6.38892 2.29169 5.79225 2.50099 5.31202 2.88517L2.68391 4.98767C2.43681 5.18535 2.29297 5.48463 2.29297 5.80107V15C2.29297 16.4958 3.50553 17.7084 5.0013 17.7084H15.0013C16.4971 17.7084 17.7096 16.4958 17.7096 15V5.80107C17.7096 5.48463 17.5658 5.18535 17.3187 4.98767L14.6906 2.88518C14.2104 2.501 13.6137 2.2917 12.9987 2.2917L7.00391 2.29169Z" />
    <path fill-rule="evenodd" clip-rule="evenodd" d="M6.875 5C6.875 4.65482 7.15482 4.375 7.5 4.375H12.5C12.8452 4.375 13.125 4.65482 13.125 5V7.5C13.125 9.22589 11.7259 10.625 10 10.625C8.27411 10.625 6.875 9.22589 6.875 7.5V5ZM8.125 5.625V7.5C8.125 8.53553 8.96447 9.375 10 9.375C11.0355 9.375 11.875 8.53553 11.875 7.5V5.625H8.125Z" />
    <path fill-rule="evenodd" clip-rule="evenodd" d="M1.45703 5C1.45703 4.65482 1.73685 4.375 2.08203 4.375H17.9154C18.2605 4.375 18.5404 4.65482 18.5404 5C18.5404 5.34518 18.2605 5.625 17.9154 5.625H2.08203C1.73685 5.625 1.45703 5.34518 1.45703 5Z" />
  </symbol>

  <symbol id="svg-close" viewBox="0 0 20 20">
    <path fill-rule="evenodd" clip-rule="evenodd" d="M6.0229 6.02241C6.26698 5.77834 6.66271 5.77834 6.90679 6.02241L10.0004 9.11603L13.094 6.02246C13.338 5.77838 13.7338 5.77838 13.9779 6.02246C14.2219 6.26654 14.2219 6.66226 13.9779 6.90634L10.8843 9.99991L13.9779 13.0935C14.2219 13.3376 14.2219 13.7333 13.9779 13.9774C13.7338 14.2214 13.338 14.2214 13.094 13.9774L10.0004 10.8838L6.90679 13.9774C6.66271 14.2215 6.26698 14.2215 6.0229 13.9774C5.77882 13.7333 5.77882 13.3376 6.0229 13.0935L9.11652 9.99991L6.0229 6.9063C5.77882 6.66222 5.77882 6.26649 6.0229 6.02241Z" />
  </symbol>

  <symbol id="svg-location" viewBox="0 0 14 14">
    <path fill-rule="evenodd" clip-rule="evenodd" d="M7 1.60419C4.33699 1.60419 2.1875 3.73491 2.1875 6.35187C2.1875 7.63752 2.93704 9.16026 3.97093 10.3842C4.48206 10.9892 5.04606 11.5008 5.58931 11.8577C6.14149 12.2204 6.63024 12.3959 7 12.3959C7.36976 12.3959 7.85851 12.2204 8.41069 11.8577C8.95394 11.5008 9.51794 10.9892 10.0291 10.3842C11.063 9.16026 11.8125 7.63752 11.8125 6.35187C11.8125 3.73491 9.66301 1.60419 7 1.60419ZM1.3125 6.35187C1.3125 3.24144 3.86402 0.729187 7 0.729187C10.136 0.729187 12.6875 3.24144 12.6875 6.35187C12.6875 7.92993 11.7964 9.64793 10.6975 10.9488C10.1422 11.6062 9.51677 12.178 8.89107 12.589C8.2743 12.9941 7.61461 13.2709 7 13.2709C6.38539 13.2709 5.7257 12.9941 5.10893 12.589C4.48323 12.178 3.85778 11.6062 3.3025 10.9488C2.20358 9.64793 1.3125 7.92993 1.3125 6.35187ZM7 5.10419C6.27513 5.10419 5.6875 5.69181 5.6875 6.41669C5.6875 7.14156 6.27513 7.72919 7 7.72919C7.72487 7.72919 8.3125 7.14156 8.3125 6.41669C8.3125 5.69181 7.72487 5.10419 7 5.10419ZM4.8125 6.41669C4.8125 5.20856 5.79188 4.22919 7 4.22919C8.20812 4.22919 9.1875 5.20856 9.1875 6.41669C9.1875 7.62481 8.20812 8.60419 7 8.60419C5.79188 8.60419 4.8125 7.62481 4.8125 6.41669Z" />
  </symbol>

  <symbol id="svg-search" viewBox="0 0 20 20">
    <path fill-rule="evenodd" clip-rule="evenodd" d="M9.58464 2.29169C5.55756 2.29169 2.29297 5.55628 2.29297 9.58335C2.29297 13.6104 5.55756 16.875 9.58464 16.875C13.6117 16.875 16.8763 13.6104 16.8763 9.58335C16.8763 5.55628 13.6117 2.29169 9.58464 2.29169ZM1.04297 9.58335C1.04297 4.86592 4.8672 1.04169 9.58464 1.04169C14.3021 1.04169 18.1263 4.86592 18.1263 9.58335C18.1263 14.3008 14.3021 18.125 9.58464 18.125C4.8672 18.125 1.04297 14.3008 1.04297 9.58335ZM16.2261 16.2247C16.4701 15.9807 16.8659 15.9807 17.1099 16.2247L18.7766 17.8914C19.0207 18.1355 19.0207 18.5312 18.7766 18.7753C18.5325 19.0194 18.1368 19.0194 17.8927 18.7753L16.2261 17.1086C15.982 16.8646 15.982 16.4688 16.2261 16.2247Z" />
  </symbol>

  <symbol id="svg-select" viewBox="0 0 14 14">
    <path fill-rule="evenodd" clip-rule="evenodd" d="M3.74042 5.56003C3.89136 5.37135 4.16667 5.34076 4.35535 5.4917L6.99871 7.60639L9.64208 5.4917C9.83075 5.34076 10.1061 5.37135 10.257 5.56003C10.408 5.7487 10.3774 6.02402 10.1887 6.17496L7.27202 8.50829C7.11224 8.63612 6.88519 8.63612 6.72541 8.50829L3.80874 6.17496C3.62007 6.02402 3.58948 5.7487 3.74042 5.56003Z" />
  </symbol>

  <symbol id="svg-wishlist" viewBox="0 0 20 20">
    <path fill-rule="evenodd" clip-rule="evenodd" d="M8.90627 4.3444C7.39294 2.71853 4.95918 2.71853 3.44585 4.3444C1.90868 5.99587 1.90868 8.69074 3.44585 10.3422L9.18371 16.5067C9.64073 16.9978 10.3619 16.9978 10.8189 16.5067L16.5568 10.3422C18.0939 8.69074 18.0939 5.99587 16.5568 4.3444C15.0434 2.71853 12.6097 2.71853 11.0963 4.3444L10.4588 5.02935C10.3406 5.15637 10.1748 5.22852 10.0013 5.22852C9.82777 5.22852 9.66204 5.15637 9.54381 5.02935L8.90627 4.3444ZM2.53087 3.49275C4.53857 1.33575 7.81355 1.33575 9.82125 3.49275L10.0013 3.68619L10.1813 3.49275C12.1891 1.33575 15.464 1.33575 17.4717 3.49275C19.4556 5.62413 19.4556 9.06249 17.4717 11.1939L11.7339 17.3584C10.7825 18.3805 9.22012 18.3805 8.26873 17.3584L2.53087 11.1939C0.547002 9.06249 0.547003 5.62413 2.53087 3.49275Z" />
  </symbol>

  <symbol id="svg-vk" viewBox="0 0 30 30">
    <path fill-rule="evenodd" clip-rule="evenodd" d="M24.5411 10.334C24.6802 9.87049 24.5411 9.52979 23.8794 9.52979H21.6914C21.135 9.52979 20.8787 9.82407 20.7396 10.1487C20.7396 10.1487 19.6269 12.8607 18.0505 14.6224C17.5406 15.1323 17.3088 15.2944 17.0306 15.2944C16.8915 15.2944 16.6902 15.1323 16.6902 14.6688V10.334C16.6902 9.77766 16.5288 9.52979 16.0651 9.52979H12.6268C12.2792 9.52979 12.0701 9.78797 12.0701 10.0327C12.0701 10.5602 12.8581 10.6818 12.9394 12.1652V15.3874C12.9394 16.0938 12.8118 16.222 12.5336 16.222C11.7919 16.222 9.98773 13.4976 8.91748 10.3805C8.70774 9.77453 8.49738 9.52979 7.93819 9.52979H5.75018C5.12503 9.52979 5 9.82407 5 10.1487C5 10.7282 5.74189 13.6026 8.45393 17.4041C10.2622 20 12.8093 21.4076 15.1274 21.4076C16.5183 21.4076 16.6902 21.095 16.6902 20.5566V18.5944C16.6902 17.9693 16.822 17.8445 17.2622 17.8445C17.587 17.8445 18.1432 18.0068 19.4415 19.2585C20.925 20.7418 21.1694 21.4076 22.004 21.4076H24.192C24.8171 21.4076 25.1297 21.095 24.9493 20.4781C24.7521 19.8633 24.0438 18.9715 23.1039 17.9141C22.594 17.3113 21.8289 16.6622 21.5973 16.3378C21.2727 15.9205 21.3654 15.7351 21.5973 15.3644C21.5973 15.3644 24.2629 11.6092 24.5411 10.3342V10.334Z" />
  </symbol>

  <symbol id="svg-ok" viewBox="0 0 30 30">
    <g clip-path="url(#clip0_4050_30367)">
      <path d="M12.8506 18.6284C11.6118 18.3182 10.5064 17.7931 9.51296 17.0315C9.22738 16.8124 9.22223 16.7737 9.43103 16.4852C9.76671 16.022 10.1029 15.5587 10.4385 15.0955C10.6558 14.7957 10.7134 14.7895 10.9919 15.0167C11.8281 15.698 12.7527 16.2037 13.8117 16.4299C15.6053 16.8129 17.2055 16.3407 18.669 15.2886C18.8212 15.1791 18.9677 15.0615 19.111 14.9397C19.2542 14.8179 19.3755 14.8259 19.4865 14.9789C19.8774 15.5186 20.2669 16.0588 20.6602 16.5971C20.7603 16.734 20.7084 16.8133 20.5913 16.9078C19.61 17.7015 18.5122 18.2573 17.294 18.5718C17.2341 18.5874 17.1755 18.6081 17.088 18.635C17.2238 18.8811 17.3525 19.1195 17.4855 19.3561C18.1896 20.6064 18.8947 21.8568 19.5988 23.1072C19.6297 23.1619 19.663 23.2158 19.6864 23.2738C19.7542 23.4419 19.6892 23.5642 19.5094 23.5652C18.6667 23.5713 17.824 23.5742 16.9817 23.5581C16.9017 23.5567 16.7916 23.433 16.7504 23.3414C16.2378 22.2048 15.7359 21.063 15.2308 19.9232C15.1488 19.7381 15.065 19.553 14.9676 19.3353C14.6226 20.1125 14.2921 20.8572 13.9611 21.6018C13.6998 22.1892 13.432 22.7738 13.1811 23.3659C13.1141 23.5241 13.0233 23.5732 12.8623 23.5723C12.0977 23.5666 11.3327 23.5704 10.5682 23.5694C10.2115 23.5694 10.1427 23.4552 10.3168 23.1454C11.1347 21.6896 11.955 20.2348 12.7738 18.7795C12.7963 18.7399 12.8155 18.6983 12.8501 18.6299L12.8506 18.6284Z"/>
      <path d="M10.7934 10.6912C10.7822 8.36188 12.6764 6.43913 14.9929 6.42826C17.294 6.41788 19.2004 8.32411 19.2098 10.6454C19.2191 12.9908 17.3446 14.9064 15.0267 14.9197C12.7148 14.9329 10.8047 13.0248 10.793 10.6912H10.7934ZM15.0238 8.73066C13.9639 8.72783 13.1067 9.58863 13.0992 10.6638C13.0917 11.7092 13.9616 12.5946 14.9995 12.5984C16.0683 12.6021 16.9401 11.7253 16.9349 10.652C16.9302 9.59619 16.0726 8.73397 15.0238 8.73114V8.73066Z"/>
    </g>
    <defs>
      <clipPath id="clip0_4050_30367">
        <rect width="11.4286" height="17.1429" fill="white" transform="translate(9.28516 6.42822)" />
      </clipPath>
    </defs>
  </symbol>

  <symbol id="svg-youtube" viewBox="0 0 30 30">
    <path fill-rule="evenodd" clip-rule="evenodd" d="M22.3362 8.8376C23.1393 9.05382 23.7726 9.68706 23.9888 10.4902C24.3904 11.9574 24.3749 15.0155 24.3749 15.0155C24.3749 15.0155 24.3749 18.0581 23.9888 19.5254C23.7726 20.3285 23.1393 20.9617 22.3362 21.1779C20.869 21.5641 15 21.5641 15 21.5641C15 21.5641 9.1464 21.5641 7.66371 21.1625C6.86058 20.9463 6.22735 20.313 6.01112 19.5099C5.625 18.0581 5.625 15.0001 5.625 15.0001C5.625 15.0001 5.625 11.9574 6.01112 10.4902C6.22735 9.68706 6.87602 9.03838 7.66371 8.82215C9.13096 8.43604 15 8.43604 15 8.43604C15 8.43604 20.869 8.43604 22.3362 8.8376ZM18.0117 15.0001L13.1311 17.811V12.1891L18.0117 15.0001Z"/>
  </symbol>

  <symbol id="svg-text-link" viewBox="0 0 18 18">
    <path fill-rule="evenodd" clip-rule="evenodd" d="M14 9C14 8.86739 13.9473 8.74022 13.8536 8.64645L10.8536 5.64645C10.6583 5.45118 10.3417 5.45118 10.1464 5.64645C9.95118 5.84171 9.95118 6.15829 10.1464 6.35355L12.2929 8.5L1.5 8.5C1.22386 8.5 1 8.72386 1 9C1 9.27614 1.22386 9.5 1.5 9.5L12.2929 9.5L10.1464 11.6464C9.95118 11.8417 9.95118 12.1583 10.1464 12.3536C10.3417 12.5488 10.6583 12.5488 10.8536 12.3536L13.8536 9.35355C13.9473 9.25979 14 9.13261 14 9Z"/>
  </symbol>

  <symbol id="svg-filter" viewBox="0 0 24 24">
    <path fill-rule="evenodd" clip-rule="evenodd" d="M2.74637 5.76506C1.43652 3.82334 2.85623 1.25 5.17993 1.25H18.8176C21.1413 1.25 22.561 3.82335 21.2511 5.76506C21.2428 5.77738 21.2342 5.78944 21.2251 5.80124L15.5176 13.2645C15.1316 13.8442 14.9263 14.5222 14.9263 15.2148V18.7699C14.9263 19.2571 14.7304 19.7225 14.3846 20.0642L12.2071 22.2161C11.0606 23.3492 9.07125 22.5649 9.07125 20.9219V15.2148C9.07125 14.5222 8.86593 13.8442 8.47989 13.2645L2.77237 5.80124C2.76335 5.78944 2.75468 5.77738 2.74637 5.76506ZM3.97881 4.90955L9.68558 12.3718C9.69461 12.3836 9.70328 12.3957 9.71158 12.408C10.2718 13.2384 10.5712 14.2151 10.5712 15.2148V20.9219C10.5712 21.196 10.9274 21.3719 11.1527 21.1492L13.3302 18.9973C13.3928 18.9355 13.4263 18.8535 13.4263 18.7699V15.2148C13.4263 14.2151 13.7258 13.2384 14.2859 12.408C14.2942 12.3957 14.3029 12.3836 14.3119 12.3718L20.0187 4.90954C20.6193 3.99261 19.9653 2.75 18.8176 2.75H5.17993C4.03226 2.75 3.37823 3.99262 3.97881 4.90955Z"/>
  </symbol>

  <symbol id="svg-compare-plus" viewBox="0 0 28 28">
    <path d="M10.8625 16.44H0.0625V10.98H10.8625V0H16.9825V10.98H27.5425V16.44H16.9825V27.54H10.8625V16.44Z"/>
  </symbol>

  <symbol id="svg-installments" viewBox="0 0 18 18">
    <path fill-rule="evenodd" clip-rule="evenodd" d="M0.9375 5.25C0.9375 3.28249 2.53249 1.6875 4.5 1.6875H13.5C15.4675 1.6875 17.0625 3.28249 17.0625 5.25V6C17.0625 6.75184 16.4566 7.2286 15.9476 7.40482C15.2862 7.63383 14.8125 8.26233 14.8125 9C14.8125 9.73767 15.2862 10.3662 15.9476 10.5952C16.4566 10.7714 17.0625 11.2482 17.0625 12V12.75C17.0625 14.7175 15.4675 16.3125 13.5 16.3125H4.5C2.53249 16.3125 0.9375 14.7175 0.9375 12.75V12C0.9375 11.2482 1.54338 10.7714 2.05239 10.5952C2.71384 10.3662 3.1875 9.73767 3.1875 9C3.1875 8.26233 2.71384 7.63383 2.05239 7.40482L2.22649 6.90195L2.05239 7.40482C1.54338 7.2286 0.9375 6.75184 0.9375 6V5.25ZM4.5 2.8125C3.15381 2.8125 2.0625 3.90381 2.0625 5.25V6C2.0625 6.0419 2.0781 6.09687 2.13879 6.16403C2.20245 6.23449 2.30231 6.30083 2.42045 6.34173C3.52096 6.72275 4.3125 7.76821 4.3125 9C4.3125 10.2318 3.52096 11.2772 2.42045 11.6583C2.30231 11.6992 2.20245 11.7655 2.13879 11.836C2.0781 11.9031 2.0625 11.9581 2.0625 12V12.75C2.0625 14.0962 3.15381 15.1875 4.5 15.1875H13.5C14.8462 15.1875 15.9375 14.0962 15.9375 12.75V12C15.9375 11.9581 15.9219 11.9031 15.8612 11.836C15.7975 11.7655 15.6977 11.6992 15.5795 11.6583C14.479 11.2772 13.6875 10.2318 13.6875 9C13.6875 7.76821 14.479 6.72275 15.5796 6.34173C15.6977 6.30083 15.7975 6.23449 15.8612 6.16404C15.9219 6.09687 15.9375 6.0419 15.9375 6V5.25C15.9375 3.90381 14.8462 2.8125 13.5 2.8125H4.5Z"/>
    <path d="M7.5 6.75C7.5 7.16421 7.16421 7.5 6.75 7.5C6.33579 7.5 6 7.16421 6 6.75C6 6.33579 6.33579 6 6.75 6C7.16421 6 7.5 6.33579 7.5 6.75Z"/>
    <path d="M12 11.25C12 11.6642 11.6642 12 11.25 12C10.8358 12 10.5 11.6642 10.5 11.25C10.5 10.8358 10.8358 10.5 11.25 10.5C11.6642 10.5 12 10.8358 12 11.25Z"/>
    <path fill-rule="evenodd" clip-rule="evenodd" d="M11.6477 6.35225C11.8674 6.57192 11.8674 6.92808 11.6477 7.14775L7.14775 11.6477C6.92808 11.8674 6.57192 11.8674 6.35225 11.6477C6.13258 11.4281 6.13258 11.0719 6.35225 10.8523L10.8523 6.35225C11.0719 6.13258 11.4281 6.13258 11.6477 6.35225Z"/>
  </symbol>

  <symbol id="svg-star" viewBox="0 0 12 12">
    <path d="M3.69998 10.4452H3.69878C3.48578 10.5634 3.21218 10.4836 3.08978 10.2364C3.04012 10.1351 3.02354 10.0207 3.04238 9.9094V9.90879L3.45158 7.43619C3.45928 7.38943 3.45579 7.3415 3.4414 7.29634C3.42701 7.25119 3.40212 7.21008 3.36878 7.1764L1.64798 5.43639V5.43519C1.55593 5.33921 1.50321 5.2122 1.50021 5.07925C1.49721 4.94629 1.54415 4.81704 1.63178 4.717C1.70057 4.63971 1.79413 4.58879 1.89638 4.573L4.28678 4.21239C4.33536 4.20505 4.38139 4.1859 4.42083 4.1566C4.46027 4.12731 4.49191 4.08878 4.51298 4.0444L5.59178 1.7734V1.7722C5.70998 1.522 5.98178 1.4362 6.19778 1.549C6.29029 1.59845 6.36345 1.67685 6.40718 1.7722L6.40778 1.7734L7.48658 4.0444C7.50764 4.08878 7.53929 4.12731 7.57873 4.1566C7.61817 4.1859 7.6642 4.20505 7.71278 4.21239L10.102 4.57239H10.1032C10.3414 4.60839 10.5334 4.8502 10.495 5.13939C10.4809 5.25092 10.4307 5.35478 10.3522 5.43519L10.3516 5.4358L8.63078 7.17579C8.59735 7.20954 8.57241 7.25075 8.55801 7.29602C8.54362 7.34129 8.54018 7.38933 8.54798 7.43619L8.95658 9.90879V9.91C9.00518 10.198 8.82158 10.4482 8.58338 10.4926C8.48667 10.5105 8.38674 10.4942 8.30078 10.4464L8.29958 10.4458L6.14318 9.26979C6.09918 9.24585 6.04988 9.2333 5.99978 9.2333C5.94968 9.2333 5.90038 9.24585 5.85638 9.26979L3.69998 10.4452Z"/>
    <path fill-rule="evenodd" clip-rule="evenodd" d="M5.99971 2.07982L7.0348 4.25881C7.03478 4.25876 7.03482 4.25886 7.0348 4.25881C7.09098 4.37711 7.17541 4.47996 7.28053 4.55803C7.38571 4.63615 7.50846 4.68724 7.638 4.70681L9.99971 5.06267C9.99991 5.06535 9.99988 5.06895 9.99926 5.07361L9.99886 5.07667C9.99845 5.07994 9.99704 5.08299 9.99482 5.08543C9.99496 5.08529 9.9947 5.08557 9.99482 5.08543L8.2755 6.82394M8.0546 7.51775L8.45651 9.94986V9.95192L8.45837 9.96294L6.3825 8.83086C6.26515 8.767 6.1333 8.73333 5.99971 8.73333C5.86612 8.73333 5.73465 8.76679 5.61731 8.83065L3.57249 9.94523H3.56927L3.54067 9.9611L3.54231 9.95145V9.94992L3.9448 7.51786C3.96534 7.39315 3.9561 7.26497 3.91772 7.14455C3.87936 7.02419 3.81305 6.91464 3.72422 6.82484L2.04402 5.1259L2.00879 5.08916C2.00332 5.08345 2.00019 5.0759 2.00001 5.068C1.99997 5.06632 2.00007 5.06464 2.00029 5.063L4.36129 4.70683C4.49083 4.68726 4.6137 4.63615 4.71888 4.55803C4.82401 4.47995 4.90837 4.37726 4.96454 4.25897C4.96452 4.25902 4.96456 4.25892 4.96454 4.25897L5.99971 2.07982M1.40766 4.51763L1.25821 4.38461C1.40425 4.22052 1.60289 4.11242 1.81998 4.07889L1.82172 4.07862L4.10687 3.7339L5.09171 1.6607L5.13962 1.55865C5.37317 1.06428 5.94927 0.855211 6.42916 1.10582L6.31448 1.32542L6.31664 1.32655L6.43343 1.10808C6.62066 1.20817 6.76827 1.36548 6.8574 1.55479L6.85943 1.55884L7.89253 3.73388L10.1394 4.07243H10.1407L10.1778 4.07804C10.7026 4.15735 11.0617 4.66267 10.9908 5.20356C10.9628 5.42263 10.8641 5.62661 10.7098 5.78461L10.7059 5.78863L9.0578 7.45503L9.45651 9.86779V9.87484C9.51989 10.3956 9.18418 10.8892 8.67493 10.9842C8.4682 11.0225 8.25421 10.9891 8.06925 10.8897L8.06798 10.8891L5.99968 9.76113L3.82733 10.9452H3.80331C3.35935 11.1054 2.86153 10.9024 2.64163 10.4583L2.64071 10.4564C2.55214 10.2757 2.51815 10.0734 2.54231 9.87427V9.86773L2.94151 7.45553L1.14791 5.64191V5.59954C1.05588 5.44674 1.00434 5.27149 1.00026 5.09055C0.994443 4.83254 1.08554 4.58172 1.25558 4.38758L1.40607 4.51939L1.40766 4.51763ZM9.04112 7.35411C9.04109 7.35392 9.04115 7.35431 9.04112 7.35411ZM7.93803 3.82965C7.93796 3.82952 7.93809 3.82978 7.93803 3.82965ZM4.06127 3.82989C4.06126 3.82992 4.06129 3.82985 4.06127 3.82989Z"/>
  </symbol>

  <symbol id="svg-calendar" viewBox="0 0 24 24">
    <path fill-rule="evenodd" clip-rule="evenodd" d="M2.25 7.5C2.25 4.87665 4.37665 2.75 7 2.75H17C19.6234 2.75 21.75 4.87665 21.75 7.5V18C21.75 20.6234 19.6234 22.75 17 22.75H7C4.37665 22.75 2.25 20.6234 2.25 18V7.5ZM7 4.25C5.20507 4.25 3.75 5.70507 3.75 7.5V18C3.75 19.7949 5.20507 21.25 7 21.25H17C18.7949 21.25 20.25 19.7949 20.25 18V7.5C20.25 5.70507 18.7949 4.25 17 4.25H7Z"/>
    <path fill-rule="evenodd" clip-rule="evenodd" d="M2.25 9C2.25 8.58579 2.58579 8.25 3 8.25H21C21.4142 8.25 21.75 8.58579 21.75 9C21.75 9.41421 21.4142 9.75 21 9.75H3C2.58579 9.75 2.25 9.41421 2.25 9Z"/>
    <path fill-rule="evenodd" clip-rule="evenodd" d="M8 1.25C8.41421 1.25 8.75 1.58579 8.75 2L8.75 5C8.75 5.41421 8.41421 5.75 8 5.75C7.58579 5.75 7.25 5.41421 7.25 5L7.25 2C7.25 1.58579 7.58579 1.25 8 1.25Z"/>
    <path fill-rule="evenodd" clip-rule="evenodd" d="M16 1.25C16.4142 1.25 16.75 1.58579 16.75 2V5C16.75 5.41421 16.4142 5.75 16 5.75C15.5858 5.75 15.25 5.41421 15.25 5V2C15.25 1.58579 15.5858 1.25 16 1.25Z"/>
    <path d="M13 15C13 15.5523 12.5523 16 12 16C11.4477 16 11 15.5523 11 15C11 14.4477 11.4477 14 12 14C12.5523 14 13 14.4477 13 15Z"/>
    <path d="M17 15C17 15.5523 16.5523 16 16 16C15.4477 16 15 15.5523 15 15C15 14.4477 15.4477 14 16 14C16.5523 14 17 14.4477 17 15Z"/>
    <path d="M9 15C9 15.5523 8.55228 16 8 16C7.44772 16 7 15.5523 7 15C7 14.4477 7.44772 14 8 14C8.55228 14 9 14.4477 9 15Z"/>
  </symbol>
</svg>