<svg width="216" height="41" viewBox="0 0 216 41" fill="none" xmlns="http://www.w3.org/2000/svg">
<path d="M101.48 34.6599H105.761L111.745 12.4275V34.6599H116.561V5.27612H109.945L103.961 26.8275L97.977 5.27612H91.2148V34.6599H95.35V12.4275L101.48 34.6599ZM136.701 20.114C136.701 14.9086 134.123 12.9626 128.772 12.9626C125.415 12.9626 122.788 13.9842 121.231 14.9086V19.0437C122.545 18.0221 125.512 16.9518 128.139 16.9518C130.62 16.9518 131.642 17.8761 131.642 20.0653V21.2329H130.863C123.177 21.2329 119.674 23.8113 119.674 28.141C119.674 32.4707 122.253 34.9032 126.193 34.9032C129.161 34.9032 130.474 33.9788 131.399 32.9572H131.642C131.642 33.4923 131.885 34.2707 132.031 34.6599H136.993C136.847 32.9572 136.75 31.1572 136.75 29.4545C136.701 29.4545 136.701 20.114 136.701 20.114ZM131.642 29.6004C131.009 30.5248 129.842 31.3032 127.993 31.3032C125.901 31.3032 124.88 29.9896 124.88 28.1896C124.88 25.7086 126.582 24.8329 131.009 24.8329H131.788V29.6491H131.642V29.6004ZM145.409 13.3518H140.739V40.7896H145.799V32.2275C147.112 34.1734 148.912 35.0977 151.15 35.0977C156.112 35.0977 159.469 31.2059 159.469 24.0545C159.469 16.9032 156.209 13.0113 151.393 13.0113C149.058 13.0113 147.112 14.0329 145.653 16.1248C145.701 16.0761 145.409 13.3518 145.409 13.3518ZM149.739 31.1572C147.161 31.1572 145.701 28.968 145.701 24.1518C145.701 19.1896 147.112 17.0005 149.982 17.0005C152.707 17.0005 154.118 19.1896 154.118 24.0059C154.118 28.968 152.707 31.1572 149.739 31.1572ZM175.182 34.6599H180.923L172.847 23.2275L179.999 13.3518H174.939L167.788 23.2275V13.3518H162.728V34.6599H167.788V24.2491L175.182 34.6599ZM197.804 33.2491V29.114C196.247 30.1356 193.669 31.0599 191.188 31.0599C187.539 31.0599 186.128 29.3572 185.836 25.7086H197.901V22.9842C197.901 15.5896 194.642 12.8653 189.582 12.8653C183.453 12.8653 180.485 17.5356 180.485 24.0545C180.485 31.4491 184.134 35.0977 190.507 35.0977C194.058 35.0491 196.393 34.2707 197.804 33.2491ZM189.631 17.0005C192.112 17.0005 192.891 19.0923 192.891 21.6707V22.0599H185.836C185.982 18.7032 187.296 17.0005 189.631 17.0005ZM215.999 17.3896V13.3518H199.118V17.3896H205.101V34.6599H210.161V17.3896H215.999Z" fill="black"/>
<path d="M61.2003 39.8653C72.0003 39.8653 80.7084 31.1572 80.7084 20.3572C80.7084 9.55722 72.0003 0.849121 61.2003 0.849121C50.4003 0.849121 41.6922 9.55722 41.6922 20.3572C41.5949 31.1572 50.449 39.8653 61.2003 39.8653Z" fill="#FED42B"/>
<path d="M19.5081 39.8653C30.2821 39.8653 39.0162 31.1313 39.0162 20.3572C39.0162 9.58319 30.2821 0.849121 19.5081 0.849121C8.73408 0.849121 0 9.58319 0 20.3572C0 31.1313 8.73408 39.8653 19.5081 39.8653Z" fill="#FC3F1D"/>
<path d="M22.3284 11.795H20.3824C17.0257 11.795 15.323 13.4977 15.323 16.0761C15.323 18.9463 16.4905 20.3571 18.9716 22.0598L20.9176 23.4707L15.323 32.1788H10.75L16.1014 24.249C12.9878 22.0598 11.2851 19.9679 11.2851 16.3193C11.2851 11.7463 14.3986 8.63281 20.3824 8.63281H26.3662V32.0328H22.4743V11.7463H22.3284V11.795Z" fill="white"/>
<mask id="mask0_4018_30640" style="mask-type:luminance" maskUnits="userSpaceOnUse" x="41" y="0" width="40" height="40">
<path d="M61.2003 39.8653C72.0003 39.8653 80.7084 31.1572 80.7084 20.3572C80.7084 9.55722 72.0003 0.849121 61.2003 0.849121C50.4003 0.849121 41.6922 9.55722 41.6922 20.3572C41.5949 31.1572 50.449 39.8653 61.2003 39.8653Z" fill="white"/>
</mask>
<g mask="url(#mask0_4018_30640)">
<path d="M51.6183 11.5517L34.4453 34.0273L39.0183 39.2327L51.7642 22.3517L50.4507 31.5949L57.6021 34.076L66.3102 20.1625C65.921 22.7409 65.2886 28.7246 70.9804 30.5733C79.9318 33.2976 87.7642 17.1949 91.3642 9.02193L86.1588 6.29761C82.121 14.7625 75.894 24.103 73.4129 23.4706C70.9318 22.8382 73.1696 14.9084 74.5804 9.80031V9.65436L66.6507 6.93004L57.1642 22.4003L58.4777 13.9354L51.6183 11.5517Z" fill="black"/>
</g>
</svg>
