<svg width="26" height="26" viewBox="0 0 26 26" fill="none" xmlns="http://www.w3.org/2000/svg">
<mask id="mask0_4018_49418" style="mask-type:alpha" maskUnits="userSpaceOnUse" x="0" y="0" width="26" height="26">
<circle cx="13" cy="13" r="13" fill="#FE0000"/>
</mask>
<g mask="url(#mask0_4018_49418)">
<circle cx="13" cy="13" r="13" fill="#FE0000"/>
<path d="M23.9611 23H15.659C12.2866 22.6626 8.71298 22.4234 8 18.3871V16.1234C9.12852 11.314 14.8848 10.7032 18.979 10.9509C19.6234 10.9908 19.8028 10.7288 19.517 10.165C18.0342 7.24782 14.6399 7.66639 11.788 7.75182C11.6072 7.75751 11.5182 7.67209 11.5212 7.49555L11.5343 6.11595C11.5352 5.97843 11.5824 5.84503 11.6685 5.73623C11.7547 5.62743 11.875 5.54925 12.0111 5.51371C15.3383 4.61676 18.3943 4.89439 21.1792 6.34659C23.6155 7.61941 23.9742 9.67813 23.9917 12.2964C24.0092 15.8642 23.999 19.4321 23.9611 23ZM19.7007 20.0828L19.5957 13.7443C19.5946 13.6997 19.5757 13.6574 19.543 13.6263C19.5103 13.5951 19.4664 13.5777 19.4208 13.5777L16.8357 13.6162C16.2424 13.6252 15.6561 13.7125 15.1103 13.8732C14.5645 14.0339 14.07 14.2648 13.6549 14.5528C13.2398 14.8407 12.9122 15.1801 12.691 15.5514C12.4697 15.9228 12.3591 16.3189 12.3654 16.7171L12.3741 17.3321C12.3802 17.7304 12.5033 18.1231 12.7361 18.4876C12.9689 18.8522 13.307 19.1815 13.7311 19.4567C14.1552 19.732 14.6569 19.9478 15.2076 20.0919C15.7583 20.236 16.3472 20.3054 16.9407 20.2963L19.5258 20.2536C19.5722 20.2536 19.6167 20.2356 19.6495 20.2036C19.6823 20.1715 19.7007 20.1281 19.7007 20.0828Z" fill="white"/>
</g>
</svg>
