<svg width="26" height="26" viewBox="0 0 26 26" fill="none" xmlns="http://www.w3.org/2000/svg">
<path fill-rule="evenodd" clip-rule="evenodd" d="M13 3.75C7.89137 3.75 3.75 7.89137 3.75 13C3.75 15.4212 4.67957 17.6247 6.20297 19.2741C7.52006 16.8764 10.0694 15.25 13 15.25C15.9306 15.25 18.4799 16.8764 19.797 19.2741C21.3204 17.6247 22.25 15.4212 22.25 13C22.25 7.89137 18.1086 3.75 13 3.75ZM18.6502 20.3244C17.6473 18.2103 15.4934 16.75 13 16.75C10.5066 16.75 8.35273 18.2103 7.34982 20.3244C8.91279 21.5321 10.8718 22.25 13 22.25C15.1282 22.25 17.0872 21.5321 18.6502 20.3244ZM2.25 13C2.25 7.06294 7.06294 2.25 13 2.25C18.9371 2.25 23.75 7.06294 23.75 13C23.75 16.2395 22.3161 19.145 20.051 21.1148C18.1639 22.7557 15.6971 23.75 13 23.75C10.3029 23.75 7.83607 22.7557 5.94902 21.1148C3.68387 19.145 2.25 16.2395 2.25 13ZM13 7.75C11.7574 7.75 10.75 8.75736 10.75 10C10.75 11.2426 11.7574 12.25 13 12.25C14.2426 12.25 15.25 11.2426 15.25 10C15.25 8.75736 14.2426 7.75 13 7.75ZM9.25 10C9.25 7.92893 10.9289 6.25 13 6.25C15.0711 6.25 16.75 7.92893 16.75 10C16.75 12.0711 15.0711 13.75 13 13.75C10.9289 13.75 9.25 12.0711 9.25 10Z" fill="#222222"/>
</svg>
