<svg width="24" height="24" viewBox="0 0 24 24" fill="none" xmlns="http://www.w3.org/2000/svg">
<path fill-rule="evenodd" clip-rule="evenodd" d="M8.38732 4.8C8.38732 3.35071 9.62003 2.25 11.0464 2.25H12.9555C14.3819 2.25 15.6146 3.35071 15.6146 4.8C15.6146 5.36861 16.223 5.73011 16.7224 5.45825L16.8239 5.40301C18.0707 4.72429 19.6842 5.1111 20.4299 6.32892L21.3845 7.88777C22.1474 9.13374 21.6749 10.7055 20.4047 11.397C19.9269 11.6571 19.9269 12.3429 20.4047 12.603C21.6749 13.2945 22.1474 14.8663 21.3845 16.1122L20.4299 17.6711C19.6842 18.8889 18.0707 19.2757 16.8239 18.597L16.7224 18.5417C16.223 18.2699 15.6146 18.6314 15.6146 19.2C15.6146 20.6493 14.3819 21.75 12.9555 21.75H11.0464C9.62003 21.75 8.38732 20.6493 8.38732 19.2C8.38732 18.6314 7.77895 18.2699 7.27955 18.5418L6.92096 17.883L7.27954 18.5418L7.17806 18.597L6.81948 17.9383L7.17806 18.597C5.93123 19.2757 4.31772 18.8889 3.57199 17.6711L2.61744 16.1122C1.85448 14.8663 2.32702 13.2945 3.59725 12.603C4.075 12.3429 4.075 11.6571 3.59725 11.397C2.32703 10.7055 1.85448 9.13373 2.61744 7.88775L3.57199 6.32891C4.31772 5.11109 5.93123 4.72428 7.17806 5.403L7.27955 5.45824C7.77895 5.7301 8.38732 5.3686 8.38732 4.8ZM11.0464 3.75C10.3641 3.75 9.88732 4.26107 9.88732 4.8C9.88732 6.50663 8.06131 7.59165 6.56238 6.77569L6.4609 6.72045C5.88151 6.40506 5.15985 6.6082 4.85121 7.11223L3.89666 8.67108C3.60526 9.14696 3.75843 9.77688 4.31441 10.0795C5.83595 10.9078 5.83594 13.0922 4.31441 13.9205C3.75842 14.2231 3.60526 14.853 3.89666 15.3289L4.85121 16.8878C5.15985 17.3918 5.88151 17.5949 6.4609 17.2795L6.80424 17.9103L6.4609 17.2795L6.56238 17.2243C8.06131 16.4084 9.88732 17.4934 9.88732 19.2C9.88732 19.7389 10.3641 20.25 11.0464 20.25H12.9555C13.6379 20.25 14.1146 19.7389 14.1146 19.2C14.1146 17.4934 15.9406 16.4083 17.4396 17.2243L17.541 17.2795C18.1204 17.5949 18.8421 17.3918 19.1507 16.8878L20.1053 15.3289C20.3967 14.853 20.2435 14.2231 19.6875 13.9204C18.166 13.0922 18.166 10.9078 19.6875 10.0795C20.2435 9.77689 20.3967 9.14697 20.1053 8.67109L19.1507 7.11225C18.8421 6.60822 18.1204 6.40507 17.541 6.72046L17.4396 6.7757C15.9406 7.59166 14.1146 6.50663 14.1146 4.8C14.1146 4.26107 13.6379 3.75 12.9555 3.75H11.0464ZM12.001 9.75C10.7583 9.75 9.75097 10.7574 9.75097 12C9.75097 13.2426 10.7583 14.25 12.001 14.25C13.2436 14.25 14.251 13.2426 14.251 12C14.251 10.7574 13.2436 9.75 12.001 9.75ZM8.25097 12C8.25097 9.92893 9.9299 8.25 12.001 8.25C14.072 8.25 15.751 9.92893 15.751 12C15.751 14.0711 14.072 15.75 12.001 15.75C9.9299 15.75 8.25097 14.0711 8.25097 12Z" fill="#222222"/>
</svg>
