<svg width="24" height="24" viewBox="0 0 24 24" fill="none" xmlns="http://www.w3.org/2000/svg">
<path d="M18.8617 9.97C18.8317 9.92 18.7917 9.87 18.7517 9.83V8.5C18.7517 8.09 19.0917 7.75 19.5017 7.75C20.7417 7.75 21.7517 6.74 21.7517 5.5C21.7517 4.26 20.7417 3.25 19.5017 3.25H15.0017C14.5917 3.25 14.2517 3.59 14.2517 4C14.2517 4.41 14.5917 4.75 15.0017 4.75H19.5017C19.9117 4.75 20.2517 5.09 20.2517 5.5C20.2517 5.91 19.9117 6.25 19.5017 6.25C18.2617 6.25 17.2517 7.26 17.2517 8.5V9.06C15.2917 8.7 10.5417 8.26 6.54172 11.41C3.99172 13.42 2.82172 15.99 2.29172 17.79C2.29172 17.82 2.29172 17.84 2.29172 17.87C2.29172 17.91 2.26172 17.96 2.26172 18V19C2.26172 19.96 3.05172 20.75 4.01172 20.75H17.0117C17.9717 20.75 18.7617 19.96 18.7617 19V18.07C18.8117 17.72 18.9917 17.09 19.5417 16.53C19.7517 16.32 20.0117 16.14 20.2817 16C20.7117 15.79 21.0317 15.41 21.1717 14.94C21.3117 14.46 21.2417 13.93 20.9817 13.5L18.8617 9.98V9.97ZM17.0017 19.25H4.00172C3.86172 19.25 3.75172 19.14 3.75172 19V18.75H17.2517V19C17.2517 19.14 17.1417 19.25 17.0017 19.25ZM19.6017 14.66C19.1817 14.87 18.7917 15.15 18.4717 15.47C17.8717 16.07 17.5617 16.72 17.4017 17.25H4.05172C4.62172 15.79 5.65172 14.02 7.47172 12.59C11.3417 9.55 16.0617 10.32 17.4217 10.63C17.4917 10.65 17.5417 10.68 17.5817 10.75L19.7017 14.28C19.7417 14.35 19.7617 14.45 19.7317 14.53C19.7217 14.58 19.6917 14.64 19.6217 14.67L19.6017 14.66Z" fill="#FF3030"/>
<path d="M14.5 11.25C13.26 11.25 12.25 12.26 12.25 13.5C12.25 14.74 13.26 15.75 14.5 15.75C15.74 15.75 16.75 14.74 16.75 13.5C16.75 12.26 15.74 11.25 14.5 11.25ZM14.5 14.25C14.09 14.25 13.75 13.91 13.75 13.5C13.75 13.09 14.09 12.75 14.5 12.75C14.91 12.75 15.25 13.09 15.25 13.5C15.25 13.91 14.91 14.25 14.5 14.25Z" fill="#FF3030"/>
</svg>
