<svg width="24" height="24" viewBox="0 0 24 24" fill="none" xmlns="http://www.w3.org/2000/svg">
<path d="M18.75 15.2798V7.61977C18.75 4.65977 16.35 2.25977 13.39 2.25977C11.03 2.25977 8.98 3.76977 8.27 6.01977L4.45 18.2598H3C2.59 18.2598 2.25 18.5998 2.25 19.0098C2.25 19.4198 2.59 19.7598 3 19.7598H7C7.41 19.7598 7.75 19.4198 7.75 19.0098C7.75 18.5998 7.41 18.2598 7 18.2598H6.02L9.7 6.46977C10.21 4.84977 11.69 3.75977 13.38 3.75977C15.51 3.75977 17.24 5.48977 17.24 7.61977V10.2798C17.16 10.2698 17.08 10.2498 16.99 10.2498C12.72 10.2498 9.24 13.7298 9.24 17.9998V19.9998C9.24 20.9598 10.03 21.7498 10.99 21.7498H18.49C20.28 21.7498 21.74 20.2898 21.74 18.4998C21.74 16.7098 20.41 15.4098 18.74 15.2798H18.75ZM10.75 19.9998V17.9998C10.75 14.5498 13.55 11.7498 17 11.7498C17.14 11.7498 17.25 11.8598 17.25 11.9998V15.4998C16.08 15.9898 15.25 17.1498 15.25 18.4998C15.25 19.1498 15.44 19.7398 15.77 20.2498H11C10.86 20.2498 10.75 20.1398 10.75 19.9998ZM18.5 20.2498C17.54 20.2498 16.75 19.4598 16.75 18.4998C16.75 17.5398 17.54 16.7498 18.5 16.7498C19.46 16.7498 20.25 17.5398 20.25 18.4998C20.25 19.4598 19.46 20.2498 18.5 20.2498Z" fill="#FF3030"/>
</svg>
