<svg width="50" height="50" viewBox="0 0 50 50" fill="none" xmlns="http://www.w3.org/2000/svg">
<path fill-rule="evenodd" clip-rule="evenodd" d="M27.9333 5.24686C26.2434 3.80671 23.7579 3.80671 22.068 5.24685L20.5778 6.5168C19.8536 7.13394 18.9532 7.50689 18.0047 7.58258L16.053 7.73833C13.8397 7.91495 12.0822 9.67248 11.9056 11.8858L11.7498 13.8375C11.6741 14.7859 11.3012 15.6863 10.684 16.4105L9.41409 17.9007C7.97395 19.5907 7.97395 22.0762 9.41409 23.7661L10.684 25.2563C11.3012 25.9805 11.6741 26.8809 11.7498 27.8293L11.9056 29.7811C12.0822 31.9943 13.8397 33.7519 16.053 33.9285L18.0047 34.0842C18.9532 34.1599 19.8536 34.5329 20.5778 35.15L22.068 36.42C23.7579 37.8601 26.2434 37.8601 27.9333 36.42L29.4235 35.15C30.1477 34.5329 31.0481 34.1599 31.9966 34.0842L33.9483 33.9285C36.1616 33.7519 37.9191 31.9943 38.0957 29.7811L38.2515 27.8293C38.3272 26.8809 38.7001 25.9805 39.3173 25.2563L40.5872 23.7661C42.0274 22.0762 42.0274 19.5907 40.5872 17.9007L39.3173 16.4105C38.7001 15.6863 38.3272 14.7859 38.2515 13.8375L38.0957 11.8858C37.9191 9.67249 36.1616 7.91495 33.9483 7.73833L31.9966 7.58258C31.0481 7.50689 30.1477 7.13394 29.4235 6.5168L27.9333 5.24686ZM14.584 42.7561V36.8465C14.9795 36.9436 15.3872 37.0101 15.8044 37.0434L17.7562 37.1992C18.0491 37.2226 18.3272 37.3377 18.5508 37.5283L20.041 38.7983C22.8989 41.2338 27.1024 41.2338 29.9603 38.7983L31.4505 37.5283C31.6741 37.3377 31.9522 37.2226 32.2451 37.1992L34.1969 37.0434C34.6141 37.0101 35.0218 36.9436 35.4173 36.8465V42.7561C35.4173 44.23 33.9287 45.2378 32.5603 44.6904L25.7744 41.9761C25.2777 41.7774 24.7236 41.7774 24.2269 41.9761L17.441 44.6904C16.0726 45.2378 14.584 44.23 14.584 42.7561Z" fill="#222222"/>
</svg>
