<svg width="40" height="40" viewBox="0 0 40 40" fill="none" xmlns="http://www.w3.org/2000/svg">
<rect width="40" height="40" fill="#F1F3F5"/>
<path fill-rule="evenodd" clip-rule="evenodd" d="M19.5846 12.2917C15.5576 12.2917 12.293 15.5563 12.293 19.5834C12.293 23.6104 15.5576 26.875 19.5846 26.875C23.6117 26.875 26.8763 23.6104 26.8763 19.5834C26.8763 15.5563 23.6117 12.2917 19.5846 12.2917ZM11.043 19.5834C11.043 14.8659 14.8672 11.0417 19.5846 11.0417C24.3021 11.0417 28.1263 14.8659 28.1263 19.5834C28.1263 24.3008 24.3021 28.125 19.5846 28.125C14.8672 28.125 11.043 24.3008 11.043 19.5834ZM26.2261 26.2247C26.4701 25.9807 26.8659 25.9807 27.1099 26.2247L28.7766 27.8914C29.0207 28.1355 29.0207 28.5312 28.7766 28.7753C28.5325 29.0194 28.1368 29.0194 27.8927 28.7753L26.2261 27.1086C25.982 26.8646 25.982 26.4688 26.2261 26.2247Z" fill="#ACACAC"/>
</svg>
