<svg width="24" height="24" viewBox="0 0 24 24" fill="none" xmlns="http://www.w3.org/2000/svg">
<path d="M23.4503 1.38887C23.2326 1.19814 22.9675 1.07147 22.6838 1.02259C22.4001 0.973715 22.1086 1.00449 21.8409 1.11158L1.00274 9.41289C0.684922 9.53949 0.416077 9.76706 0.236435 10.0615C0.0567935 10.356 -0.0239862 10.7015 0.00618365 11.0464C0.0363535 11.3913 0.175851 11.717 0.403802 11.9749C0.631753 12.2327 0.935901 12.4087 1.27074 12.4766L6.74529 13.5868V20.4786C6.74501 20.7957 6.83756 21.1058 7.01121 21.3696C7.18486 21.6334 7.4318 21.839 7.72076 21.9603C8.00972 22.0817 8.32769 22.1133 8.63442 22.0513C8.94114 21.9893 9.22281 21.8364 9.44375 21.6119L12.5227 18.4897L17.1278 22.599C17.4142 22.8569 17.7837 22.9995 18.1668 23C18.3333 22.9998 18.4987 22.9732 18.6571 22.9212C18.9184 22.8371 19.1533 22.6851 19.3386 22.4802C19.5238 22.2754 19.6528 22.0249 19.7128 21.7537L23.9596 2.96158C24.0243 2.67726 24.0111 2.38042 23.9213 2.1032C23.8315 1.82598 23.6686 1.57895 23.4503 1.38887ZM1.3558 10.925C1.34849 10.8753 1.35878 10.8246 1.38484 10.7819C1.41091 10.7392 1.45105 10.7073 1.49815 10.6918L18.9345 3.74564L7.26573 12.2912L1.53641 11.1293C1.48734 11.1224 1.44226 11.0981 1.40919 11.0607C1.37612 11.0233 1.35721 10.9752 1.3558 10.925ZM8.48568 20.6405C8.4541 20.6725 8.41387 20.6943 8.37006 20.7032C8.32626 20.712 8.28086 20.7075 8.23959 20.6901C8.19833 20.6728 8.16306 20.6434 8.13825 20.6058C8.11344 20.5681 8.1002 20.5239 8.1002 20.4786V14.5432L11.5036 17.5803L8.48568 20.6405ZM18.3921 21.4467C18.3833 21.4854 18.3649 21.5211 18.3384 21.5504C18.312 21.5796 18.2785 21.6014 18.2413 21.6136C18.2041 21.6257 18.1643 21.6279 18.126 21.6199C18.0877 21.6118 18.0521 21.5938 18.0228 21.5676L8.50751 13.0766L22.6193 2.74187L18.3921 21.4467Z" fill="#222222"/>
</svg>
