<svg width="54" height="54" viewBox="0 0 54 54" fill="none" xmlns="http://www.w3.org/2000/svg">
<path d="M5.9082 25.5272C5.9082 14.1502 15.1311 4.92725 26.5082 4.92725C37.8853 4.92725 47.1082 14.1502 47.1082 25.5272V42.0909C47.1082 45.4046 44.4219 48.0909 41.1082 48.0909H11.9082C8.5945 48.0909 5.9082 45.4046 5.9082 42.0909V25.5272Z" fill="white" stroke="#222222" stroke-width="2"/>
<path fill-rule="evenodd" clip-rule="evenodd" d="M17.7266 35.3455C16.0697 35.3455 14.7266 36.6886 14.7266 38.3455V44.1273C14.7266 45.7841 16.0697 47.1273 17.7266 47.1273H35.2902C36.9471 47.1273 38.2902 45.7841 38.2902 44.1273V38.3455C38.2902 36.6886 36.9471 35.3455 35.2902 35.3455H17.7266ZM26.5084 44.1818C28.1351 44.1818 29.4538 42.8631 29.4538 41.2364C29.4538 39.6096 28.1351 38.2909 26.5084 38.2909C24.8817 38.2909 23.5629 39.6096 23.5629 41.2364C23.5629 42.8631 24.8817 44.1818 26.5084 44.1818Z" fill="#222222"/>
<path d="M27.6777 29.4192C27.8767 29.4192 28.039 29.4087 28.1647 29.3878C28.3009 29.3668 28.4108 29.3197 28.4946 29.2464C28.5784 29.1626 28.636 29.0474 28.6674 28.9008C28.7093 28.7437 28.7355 28.5395 28.746 28.2881L29.0287 19.978H33.9142V30.9744H32.1548V21.5489H30.6468L30.4582 28.1939C30.4268 29.1993 30.2121 29.9166 29.8142 30.346C29.4267 30.7754 28.8036 30.9901 27.9448 30.9901H27.6777V29.4192Z" fill="#222222"/>
<path d="M22.6621 12.7636C25.419 12.7636 26.6954 14.525 26.6954 17.2564V17.7159C26.6954 19.5539 25.9551 20.8558 24.5256 21.3918C26.0317 21.9534 26.6954 23.3064 26.6954 25.0933V26.4718C26.6954 29.2032 25.419 30.9901 22.6621 30.9901C19.9307 30.9901 18.6543 29.2032 18.6543 26.4718V25.2464H20.5178V26.5994C20.5178 28.2076 21.1815 29.1776 22.611 29.1776C24.0661 29.1776 24.7043 28.2331 24.7043 26.4207V25.0422C24.7043 23.2808 23.964 22.4384 22.4579 22.3874H21.3857V20.6005H22.56C23.8874 20.5494 24.7043 19.707 24.7043 18.1499V17.333C24.7043 15.495 24.0661 14.5505 22.611 14.5505C21.1815 14.5505 20.5178 15.5461 20.5178 17.1543V18.0733H18.6543V17.2564C18.6543 14.525 19.9307 12.7636 22.6621 12.7636Z" fill="#222222"/>
</svg>
