<svg width="54" height="54" viewBox="0 0 54 54" fill="none" xmlns="http://www.w3.org/2000/svg">
<path fill-rule="evenodd" clip-rule="evenodd" d="M25.5627 3.92725C24.4582 3.92725 23.5627 4.82268 23.5627 5.92725V14.7272C21.1878 14.7272 19.2067 16.4138 18.7519 18.6545H13.7446C8.86438 18.6545 4.9082 22.6107 4.9082 27.4909H50.0718C50.0718 22.6107 46.1157 18.6545 41.2355 18.6545H36.2282C35.7733 16.4138 33.7923 14.7272 31.4173 14.7272V5.92725C31.4173 4.82268 30.5219 3.92725 29.4173 3.92725H25.5627ZM41.8986 35.3454C45.6069 35.3454 48.8992 32.9725 50.0718 29.4545L4.90821 29.4545C6.08087 32.9725 9.37312 35.3454 13.0814 35.3454L41.8986 35.3454Z" fill="#222222"/>
<path fill-rule="evenodd" clip-rule="evenodd" d="M30.9282 41.5L27.4641 37L24 41.5H25.4641V51H29.4641V41.5H30.9282Z" fill="#222222"/>
<path fill-rule="evenodd" clip-rule="evenodd" d="M38.9282 41.5L35.4641 37L32 41.5H33.4641V49.0116H37.4641V41.5H38.9282Z" fill="#222222"/>
<path fill-rule="evenodd" clip-rule="evenodd" d="M14.9282 41.5L11.4641 37L8 41.5H9.46411V47.9961H13.4641V41.5H14.9282Z" fill="#222222"/>
<path fill-rule="evenodd" clip-rule="evenodd" d="M46.9282 41.5L43.4641 37L40 41.5H41.4641V47.9961H45.4641V41.5H46.9282Z" fill="#222222"/>
<path fill-rule="evenodd" clip-rule="evenodd" d="M22.9282 41.5L19.4641 37L16 41.5H17.4641V49.0116H21.4641V41.5H22.9282Z" fill="#222222"/>
</svg>
