<svg width="54" height="54" viewBox="0 0 54 54" fill="none" xmlns="http://www.w3.org/2000/svg">
<path fill-rule="evenodd" clip-rule="evenodd" d="M25.5627 3.92725C24.4582 3.92725 23.5627 4.82268 23.5627 5.92725V14.7272C21.1878 14.7272 19.2067 16.4138 18.7519 18.6545H13.7446C8.86438 18.6545 4.9082 22.6107 4.9082 27.4909H50.0718C50.0718 22.6107 46.1157 18.6545 41.2355 18.6545H36.2282C35.7733 16.4138 33.7923 14.7272 31.4173 14.7272V5.92725C31.4173 4.82268 30.5219 3.92725 29.4173 3.92725H25.5627ZM41.8986 35.3454C45.6069 35.3454 48.8992 32.9725 50.0718 29.4545L4.90821 29.4545C6.08087 32.9725 9.37312 35.3454 13.0814 35.3454L41.8986 35.3454Z" fill="#222222"/>
<rect x="6.87109" y="38.2909" width="41.2364" height="1.96364" rx="0.981819" fill="#222222"/>
<rect x="6.87109" y="47.1273" width="41.2364" height="1.96363" rx="0.981817" fill="#222222"/>
<path fill-rule="evenodd" clip-rule="evenodd" d="M12.0261 42.2182C11.8905 42.2182 11.7806 42.1083 11.7806 41.9727L11.7806 36.5727C11.7806 36.4372 11.8905 36.3273 12.0261 36.3273C12.1617 36.3273 12.2716 36.4372 12.2716 36.5727L12.2716 41.9727C12.2716 42.1083 12.1617 42.2182 12.0261 42.2182ZM10.7988 40.9909C10.7988 41.1265 10.9087 41.2364 11.0443 41.2364C11.1798 41.2364 11.2897 41.1265 11.2897 40.9909V37.5545C11.2897 37.419 11.1798 37.3091 11.0443 37.3091C10.9087 37.3091 10.7988 37.419 10.7988 37.5545V40.9909ZM13.7443 40.9909C13.7443 41.1265 13.8542 41.2364 13.9897 41.2364C14.1253 41.2364 14.2352 41.1265 14.2352 40.9909V37.5545C14.2352 37.419 14.1253 37.3091 13.9897 37.3091C13.8542 37.3091 13.7443 37.419 13.7443 37.5545V40.9909ZM12.7625 41.9727C12.7625 42.1083 12.8724 42.2182 13.0079 42.2182C13.1435 42.2182 13.2534 42.1083 13.2534 41.9727L13.2534 36.5727C13.2534 36.4372 13.1435 36.3273 13.0079 36.3273C12.8724 36.3273 12.7625 36.4372 12.7625 36.5727L12.7625 41.9727Z" fill="black"/>
<path fill-rule="evenodd" clip-rule="evenodd" d="M19.3894 42.2182C19.2538 42.2182 19.1439 42.1083 19.1439 41.9727L19.1439 36.5727C19.1439 36.4372 19.2538 36.3273 19.3894 36.3273C19.5249 36.3273 19.6348 36.4372 19.6348 36.5727L19.6348 41.9727C19.6348 42.1083 19.5249 42.2182 19.3894 42.2182ZM18.1621 40.9909C18.1621 41.1265 18.272 41.2364 18.4076 41.2364C18.5431 41.2364 18.653 41.1265 18.653 40.9909V37.5545C18.653 37.419 18.5431 37.3091 18.4076 37.3091C18.272 37.3091 18.1621 37.419 18.1621 37.5545V40.9909ZM21.1076 40.9909C21.1076 41.1265 21.2175 41.2364 21.353 41.2364C21.4886 41.2364 21.5985 41.1265 21.5985 40.9909V37.5545C21.5985 37.419 21.4886 37.3091 21.353 37.3091C21.2175 37.3091 21.1076 37.419 21.1076 37.5545V40.9909ZM20.1257 41.9727C20.1257 42.1083 20.2356 42.2182 20.3712 42.2182C20.5068 42.2182 20.6167 42.1083 20.6167 41.9727L20.6167 36.5727C20.6167 36.4372 20.5068 36.3273 20.3712 36.3273C20.2356 36.3273 20.1257 36.4372 20.1257 36.5727L20.1257 41.9727Z" fill="black"/>
<path fill-rule="evenodd" clip-rule="evenodd" d="M26.7546 42.2182C26.6191 42.2182 26.5092 42.1083 26.5092 41.9727L26.5092 36.5727C26.5092 36.4372 26.6191 36.3273 26.7546 36.3273C26.8902 36.3273 27.0001 36.4372 27.0001 36.5727L27.0001 41.9727C27.0001 42.1083 26.8902 42.2182 26.7546 42.2182ZM25.5273 40.9909C25.5273 41.1265 25.6372 41.2364 25.7728 41.2364C25.9084 41.2364 26.0183 41.1265 26.0183 40.9909V37.5545C26.0183 37.419 25.9084 37.3091 25.7728 37.3091C25.6372 37.3091 25.5273 37.419 25.5273 37.5545V40.9909ZM28.4728 40.9909C28.4728 41.1265 28.5827 41.2364 28.7183 41.2364C28.8538 41.2364 28.9637 41.1265 28.9637 40.9909V37.5545C28.9637 37.419 28.8538 37.3091 28.7183 37.3091C28.5827 37.3091 28.4728 37.419 28.4728 37.5545V40.9909ZM27.491 41.9727C27.491 42.1083 27.6009 42.2182 27.7364 42.2182C27.872 42.2182 27.9819 42.1083 27.9819 41.9727L27.9819 36.5727C27.9819 36.4372 27.872 36.3273 27.7364 36.3273C27.6009 36.3273 27.491 36.4372 27.491 36.5727L27.491 41.9727Z" fill="black"/>
<path fill-rule="evenodd" clip-rule="evenodd" d="M34.1179 42.2182C33.9823 42.2182 33.8724 42.1083 33.8724 41.9727L33.8724 36.5727C33.8724 36.4372 33.9823 36.3273 34.1179 36.3273C34.2535 36.3273 34.3634 36.4372 34.3634 36.5727L34.3634 41.9727C34.3634 42.1083 34.2535 42.2182 34.1179 42.2182ZM32.8906 40.9909C32.8906 41.1265 33.0005 41.2364 33.1361 41.2364C33.2716 41.2364 33.3815 41.1265 33.3815 40.9909V37.5545C33.3815 37.419 33.2716 37.3091 33.1361 37.3091C33.0005 37.3091 32.8906 37.419 32.8906 37.5545V40.9909ZM35.8361 40.9909C35.8361 41.1265 35.946 41.2364 36.0815 41.2364C36.2171 41.2364 36.327 41.1265 36.327 40.9909V37.5545C36.327 37.419 36.2171 37.3091 36.0815 37.3091C35.946 37.3091 35.8361 37.419 35.8361 37.5545V40.9909ZM34.8543 41.9727C34.8543 42.1083 34.9642 42.2182 35.0997 42.2182C35.2353 42.2182 35.3452 42.1083 35.3452 41.9727L35.3452 36.5727C35.3452 36.4372 35.2353 36.3273 35.0997 36.3273C34.9642 36.3273 34.8543 36.4372 34.8543 36.5727L34.8543 41.9727Z" fill="black"/>
<path fill-rule="evenodd" clip-rule="evenodd" d="M41.4812 42.2182C41.3456 42.2182 41.2357 42.1083 41.2357 41.9727L41.2357 36.5727C41.2357 36.4372 41.3456 36.3273 41.4812 36.3273C41.6167 36.3273 41.7266 36.4372 41.7266 36.5727L41.7266 41.9727C41.7266 42.1083 41.6167 42.2182 41.4812 42.2182ZM40.2539 40.9909C40.2539 41.1265 40.3638 41.2364 40.4994 41.2364C40.6349 41.2364 40.7448 41.1265 40.7448 40.9909V37.5545C40.7448 37.419 40.6349 37.3091 40.4994 37.3091C40.3638 37.3091 40.2539 37.419 40.2539 37.5545V40.9909ZM43.1994 40.9909C43.1994 41.1265 43.3093 41.2364 43.4448 41.2364C43.5804 41.2364 43.6903 41.1265 43.6903 40.9909V37.5545C43.6903 37.419 43.5804 37.3091 43.4448 37.3091C43.3093 37.3091 43.1994 37.419 43.1994 37.5545V40.9909ZM42.2175 41.9727C42.2175 42.1083 42.3274 42.2182 42.463 42.2182C42.5986 42.2182 42.7085 42.1083 42.7085 41.9727L42.7085 36.5727C42.7085 36.4372 42.5986 36.3273 42.463 36.3273C42.3274 36.3273 42.2175 36.4372 42.2175 36.5727L42.2175 41.9727Z" fill="black"/>
<path fill-rule="evenodd" clip-rule="evenodd" d="M7.85352 48.6C7.85352 47.7818 8.14806 46.1454 9.32624 46.1454V48.6H7.85352ZM10.3081 48.6C10.3081 47.7818 10.6026 46.1454 11.7808 46.1454V48.6H10.3081ZM14.2353 46.1454C13.0572 46.1454 12.7626 47.7818 12.7626 48.6H14.2353V46.1454ZM15.2172 48.6C15.2172 47.7818 15.5117 46.1454 16.6899 46.1454V48.6H15.2172ZM19.1444 46.1454C17.9662 46.1454 17.6717 47.7818 17.6717 48.6H19.1444V46.1454ZM20.1262 48.6C20.1262 47.7818 20.4208 46.1454 21.599 46.1454V48.6H20.1262ZM24.0535 46.1454C22.8753 46.1454 22.5808 47.7818 22.5808 48.6H24.0535V46.1454ZM25.0353 48.6C25.0353 47.7818 25.3299 46.1454 26.5081 46.1454V48.6H25.0353ZM28.9626 46.1454C27.7844 46.1454 27.4899 47.7818 27.4899 48.6H28.9626V46.1454ZM29.9444 48.6C29.9444 47.7818 30.239 46.1454 31.4172 46.1454V48.6H29.9444ZM33.8717 46.1454C32.6935 46.1454 32.399 47.7818 32.399 48.6H33.8717V46.1454ZM34.8535 48.6C34.8535 47.7818 35.1481 46.1454 36.3262 46.1454V48.6H34.8535ZM38.7808 46.1454C37.6026 46.1454 37.3081 47.7818 37.3081 48.6H38.7808V46.1454ZM39.7626 48.6C39.7626 47.7818 40.0572 46.1454 41.2353 46.1454V48.6H39.7626ZM43.6899 46.1454C42.5117 46.1454 42.2172 47.7818 42.2172 48.6H43.6899V46.1454ZM44.6717 48.6C44.6717 47.7818 44.9662 46.1454 46.1444 46.1454V48.6H44.6717Z" fill="#222222"/>
</svg>
