<svg width="44" height="44" viewBox="0 0 44 44" fill="none" xmlns="http://www.w3.org/2000/svg">
<rect x="23.832" y="5.5" width="16.5" height="16.5" rx="2" stroke="#222222" stroke-width="2.5"/>
<path d="M33.918 11L30.2513 11" stroke="#222222" stroke-width="2.5" stroke-linecap="round" stroke-linejoin="round"/>
<path d="M3.66797 16.5H7.33464L20.1827 22.121C21.1893 22.5614 21.6522 23.7313 21.2194 24.7412L20.0391 27.495C19.604 28.5103 18.4283 28.9806 17.413 28.5455L12.8346 26.5833" stroke="#222222" stroke-width="2.5" stroke-linecap="round" stroke-linejoin="round"/>
<path d="M4.22699 31.882C3.60951 31.5732 2.85867 31.8235 2.54993 32.441C2.2412 33.0585 2.49148 33.8093 3.10895 34.118L4.22699 31.882ZM20.727 26.382L19.609 25.8229L18.4909 28.059L19.609 28.618L20.727 26.382ZM26.2344 30.5332L26.7934 29.4152L26.2344 30.5332ZM28.9177 32.4167H34.668V29.9167H28.9177V32.4167ZM35.418 33.1667V36.5H37.918V33.1667H35.418ZM34.668 37.25H16.5565V39.75H34.668V37.25ZM13.5378 36.5374L4.22699 31.882L3.10895 34.118L12.4198 38.7735L13.5378 36.5374ZM26.7934 29.4152L20.727 26.382L19.609 28.618L25.6754 31.6513L26.7934 29.4152ZM16.5565 37.25C15.5086 37.25 14.4751 37.006 13.5378 36.5374L12.4198 38.7735C13.7042 39.4157 15.1205 39.75 16.5565 39.75V37.25ZM35.418 36.5C35.418 36.9142 35.0822 37.25 34.668 37.25V39.75C36.4629 39.75 37.918 38.2949 37.918 36.5H35.418ZM34.668 32.4167C35.0822 32.4167 35.418 32.7525 35.418 33.1667H37.918C37.918 31.3717 36.4629 29.9167 34.668 29.9167V32.4167ZM28.9177 29.9167C28.1803 29.9167 27.453 29.745 26.7934 29.4152L25.6754 31.6513C26.6821 32.1546 27.7922 32.4167 28.9177 32.4167V29.9167Z" fill="#222222"/>
</svg>
