<svg width="99" height="49" viewBox="0 0 99 49" fill="none" xmlns="http://www.w3.org/2000/svg">
<g clip-path="url(#clip0_4018_45238)">
<path d="M86.7806 13.9871V25.9668H82.4419V17.5633H78.2644V25.9668H73.9258V13.9863H86.7806V13.9871Z" fill="black"/>
<path fill-rule="evenodd" clip-rule="evenodd" d="M65.0135 26.3947C68.8979 26.3947 71.782 24.0468 71.782 20.4878C71.782 17.0427 69.6541 14.8058 66.0978 14.8058C64.4565 14.8058 63.1022 15.3755 62.0822 16.3583C62.3257 14.3269 64.068 12.8438 65.9864 12.8438C66.4291 12.8438 69.7622 12.8369 69.7622 12.8369L71.6466 9.28027C71.6466 9.28027 67.4624 9.37419 65.5171 9.37419C61.0725 9.45096 58.0703 13.4342 58.0703 18.2718C58.0703 23.9084 60.9983 26.3952 65.0139 26.3952L65.0135 26.3947ZM65.0376 17.9557C66.4796 17.9557 67.4794 18.89 67.4794 20.4874C67.4794 21.9247 66.591 23.1097 65.0376 23.113C63.5516 23.113 62.5518 22.0154 62.5518 20.5119C62.5518 18.9141 63.5516 17.9557 65.0376 17.9557Z" fill="black"/>
<path d="M54.541 21.956C54.541 21.956 53.5164 22.5383 51.9857 22.6486C50.2269 22.7 48.6593 21.6045 48.6593 19.6579C48.6593 17.7592 50.0426 16.671 51.9418 16.671C53.1064 16.671 54.6471 17.4668 54.6471 17.4668C54.6471 17.4668 55.7744 15.4272 56.3583 14.4072C55.289 13.6081 53.8647 13.1699 52.2081 13.1699C48.0273 13.1699 44.7891 15.8576 44.7891 19.6338C44.7891 23.4583 47.8326 26.0835 52.2081 26.0038C53.4311 25.9589 55.1184 25.5359 56.1467 24.8846L54.541 21.956Z" fill="black"/>
<path d="M1.18945 10.6655L7.20788 21.272V27.7416L1.19649 38.3272L1.18945 10.6655Z" fill="#5B57A2"/>
<path d="M24.2988 17.4127L29.9383 14.0048L41.4798 13.9941L24.2988 24.3715V17.4127Z" fill="#D90751"/>
<path d="M24.2662 10.6032L24.2981 24.6458L18.2656 20.9912V0L24.2662 10.6032Z" fill="#FAB718"/>
<path d="M41.4791 13.994L29.9372 14.0046L24.2662 10.6032L18.2656 0L41.4791 13.994Z" fill="#ED6F26"/>
<path d="M24.2981 38.3865V31.5734L18.2656 27.9883L18.2689 49.0003L24.2981 38.3865Z" fill="#63B22F"/>
<path d="M29.9232 35.0091L7.20747 21.272L1.18945 10.6655L41.4544 34.9953L29.9232 35.0091Z" fill="#1487C9"/>
<path d="M18.2695 48.9997L24.2979 38.3859L29.9233 35.009L41.4545 34.9951L18.2695 48.9997Z" fill="#017F36"/>
<path d="M1.19727 38.3273L18.3153 27.9883L12.5603 24.5068L7.20865 27.7417L1.19727 38.3273Z" fill="#984995"/>
<path d="M48.6591 34.029C48.5266 34.1956 48.3522 34.3214 48.1431 34.4063C47.9285 34.4925 47.6989 34.5363 47.4672 34.5354C47.2368 34.5384 47.0077 34.5005 46.7909 34.4235C46.5962 34.3537 46.4182 34.245 46.2682 34.1042C46.1201 33.963 46.0039 33.7927 45.927 33.6044C45.8437 33.3979 45.8022 33.1773 45.8048 32.9551C45.8048 32.7346 45.8433 32.5304 45.9233 32.3373C45.9964 32.1504 46.1078 31.9802 46.2504 31.8375C46.3926 31.6957 46.5607 31.5817 46.7458 31.5014C46.9375 31.4198 47.1467 31.3757 47.3765 31.3757C47.6242 31.3757 47.854 31.4063 48.0632 31.4671C48.2723 31.5284 48.45 31.6305 48.5962 31.7734L48.3419 32.1981C48.2189 32.0882 48.074 32.0047 47.9166 31.9531C47.7667 31.9055 47.6102 31.8815 47.4527 31.882C47.314 31.882 47.1814 31.909 47.0526 31.9596C46.9257 32.0101 46.8097 32.0841 46.711 32.1776C46.61 32.2737 46.5305 32.3894 46.4774 32.5174C46.4173 32.6567 46.3877 32.807 46.3904 32.9584C46.3904 33.1254 46.4215 33.2748 46.4807 33.4035C46.5403 33.5366 46.6203 33.6485 46.7209 33.7436C46.8224 33.8391 46.9404 33.9102 47.0767 33.958C47.2149 34.0089 47.3615 34.0342 47.509 34.0327C47.6971 34.0327 47.8681 33.9951 48.0143 33.9237C48.1592 33.8547 48.2893 33.7591 48.3978 33.6419L48.6591 34.029ZM49.3768 34.4639V31.4402H49.9277V33.693L51.7189 31.4402H52.2697V34.4643H51.7189V32.2115L49.9277 34.4643L49.3768 34.4639ZM55.9183 34.029C55.7828 34.197 55.6051 34.3271 55.4027 34.4063C55.188 34.4924 54.9582 34.5362 54.7264 34.5354C54.4961 34.5384 54.2672 34.5005 54.0505 34.4235C53.8557 34.3538 53.6776 34.245 53.5275 34.1042C53.3794 33.963 53.2631 33.7927 53.1862 33.6044C53.1029 33.3979 53.0614 33.1773 53.064 32.9551C53.064 32.7346 53.1025 32.5304 53.1825 32.3373C53.2595 32.1433 53.3709 31.9771 53.5097 31.8375C53.6518 31.6957 53.8199 31.5817 54.005 31.5014C54.2036 31.4152 54.4187 31.3723 54.6357 31.3757C54.8834 31.3757 55.1132 31.4063 55.3224 31.4671C55.5315 31.5284 55.7092 31.6305 55.8558 31.7734L55.6011 32.1981C55.4783 32.0881 55.3336 32.0046 55.1762 31.9531C55.0263 31.9055 54.8698 31.8815 54.7123 31.882C54.4356 31.883 54.1699 31.9888 53.9702 32.1776C53.8701 32.2744 53.7907 32.3899 53.7366 32.5174C53.6765 32.6567 53.6469 32.807 53.6496 32.9584C53.6496 33.1254 53.6811 33.2748 53.7403 33.4035C53.7996 33.5366 53.8795 33.6485 53.9805 33.7436C54.0816 33.8391 54.2 33.9102 54.3363 33.958C54.4721 34.0053 54.615 34.0327 54.7683 34.0327C54.9567 34.0327 55.124 33.9951 55.2735 33.9237C55.4184 33.8547 55.5486 33.7591 55.657 33.6419L55.9183 34.029ZM56.2008 31.4402H59.027V31.9771H57.8909V34.4639H57.3401V31.9771H56.2041V31.4402H56.2008Z" fill="black"/>
<path fill-rule="evenodd" clip-rule="evenodd" d="M61.5987 34.4334C61.8078 34.3689 61.9855 34.27 62.1388 34.1345L61.9714 33.7131C61.8704 33.8017 61.7345 33.8764 61.571 33.9376C61.4069 33.9989 61.2222 34.0291 61.0201 34.0291C60.717 34.0291 60.466 33.9511 60.2672 33.7915C60.0684 33.6314 59.9607 33.4076 59.9359 33.1218H62.3202C62.3455 33.0023 62.3572 32.8804 62.3549 32.7584C62.3575 32.5645 62.3183 32.3723 62.2398 32.1945C62.1685 32.0295 62.0643 31.8804 61.9333 31.7559C61.8006 31.6326 61.6441 31.5368 61.4732 31.4742C61.2943 31.4057 61.1039 31.3711 60.912 31.3721C60.654 31.3721 60.4275 31.4162 60.2287 31.4979C60.0413 31.5757 59.8718 31.6902 59.7305 31.8343C59.5931 31.9778 59.4876 32.1478 59.4207 32.3337C59.3471 32.5317 59.3104 32.7411 59.3126 32.9519C59.3126 33.19 59.354 33.4072 59.431 33.6012C59.5056 33.7891 59.6196 33.9593 59.7657 34.1006C59.9086 34.2394 60.0825 34.3452 60.2883 34.4199C60.5087 34.4969 60.7412 34.5348 60.975 34.5318C61.1867 34.5305 61.397 34.497 61.5987 34.4334ZM60.2047 32.1059C60.3753 31.9531 60.6018 31.8784 60.8876 31.8784C61.156 31.8784 61.3722 31.9499 61.5291 32.0928C61.6861 32.2353 61.7693 32.4325 61.7834 32.6837H59.9015C59.9282 32.4613 60.0359 32.2557 60.2047 32.1059Z" fill="black"/>
<path d="M63.1055 31.4399H63.6074L64.7993 32.9385L65.9283 31.4399H66.4162V34.4641H65.8654V32.2591L64.7923 33.6621H64.7712L63.6563 32.2586V34.4636H63.1055V31.4399Z" fill="black"/>
<path fill-rule="evenodd" clip-rule="evenodd" d="M67.9133 31.4503C67.7463 31.4934 67.5867 31.5609 67.4399 31.6504L67.5861 32.0792C67.7116 32.0179 67.8371 31.9669 67.9626 31.9228C68.0881 31.8779 68.2483 31.8575 68.4401 31.8575C68.5933 31.8575 68.7155 31.882 68.8095 31.9293C68.9035 31.9734 68.9731 32.0416 69.022 32.1233C69.0708 32.2049 69.1023 32.3066 69.1197 32.4254C69.1371 32.5443 69.1441 32.6733 69.1441 32.813C69.0313 32.7355 68.9027 32.6832 68.7673 32.6598C68.6366 32.6342 68.5038 32.6205 68.3705 32.619C68.2065 32.619 68.0533 32.6431 67.9067 32.6835C67.7605 32.7243 67.635 32.7856 67.5339 32.8673C67.4306 32.9487 67.3471 33.052 67.2896 33.1694C67.2283 33.298 67.1975 33.4386 67.1993 33.5806C67.1993 33.8763 67.2863 34.1074 67.4602 34.2707C67.635 34.4336 67.8648 34.5149 68.1506 34.5149C68.4086 34.5149 68.6144 34.4708 68.771 34.3826C68.928 34.294 69.0534 34.1923 69.1437 34.0763V34.4675H69.6598V32.6125C69.6598 32.218 69.5728 31.9126 69.3947 31.6978C69.2208 31.4842 68.9101 31.3752 68.4711 31.3752C68.2761 31.3752 68.091 31.4026 67.9133 31.4503ZM68.8344 33.9003C68.7089 33.9885 68.5445 34.029 68.3428 34.029C68.1647 34.029 68.0255 33.9849 67.9282 33.8999C67.8305 33.8117 67.7816 33.6958 67.7816 33.5529C67.7816 33.4687 67.799 33.3973 67.8375 33.3324C67.876 33.2674 67.9282 33.2172 67.9874 33.1764C68.0522 33.1337 68.1241 33.1026 68.1999 33.0845C68.2802 33.0641 68.3602 33.0539 68.4438 33.0539C68.7159 33.0539 68.9491 33.1184 69.1408 33.254V33.6378C69.0505 33.7378 68.9475 33.8263 68.8344 33.9003ZM74.5219 30.3764C74.6333 30.3258 74.7372 30.2409 74.8354 30.1151L74.5356 29.6904C74.4589 29.7925 74.372 29.8636 74.2742 29.9011C74.1706 29.941 74.0632 29.9706 73.9537 29.9893L73.8493 30.0077C73.7582 30.0232 73.6613 30.0404 73.5565 30.0575C73.3885 30.0882 73.2247 30.1383 73.0686 30.207C72.821 30.3123 72.6226 30.4548 72.4723 30.6349C72.3219 30.815 72.2043 31.0187 72.124 31.2433C72.0426 31.4708 71.9877 31.7067 71.9604 31.9465C71.9322 32.1915 71.9185 32.4254 71.9185 32.6496C71.9185 32.9387 71.9566 33.2001 72.0333 33.4344C72.1103 33.6692 72.218 33.866 72.3604 34.0257C72.5037 34.189 72.6748 34.3115 72.8769 34.3997C73.079 34.4879 73.3055 34.532 73.5598 34.532C73.7934 34.532 74.0096 34.4879 74.2046 34.4063C74.3927 34.3278 74.5633 34.2136 74.7066 34.0702C74.8457 33.9306 74.9576 33.764 75.0338 33.5774C75.1138 33.3879 75.1542 33.1844 75.1526 32.9791C75.1526 32.7517 75.1178 32.5447 75.0516 32.3609C74.9905 32.1858 74.8932 32.025 74.7658 31.8889C74.6381 31.7551 74.4822 31.6505 74.309 31.5826C74.1183 31.5086 73.9147 31.4717 73.7097 31.474C73.5772 31.474 73.4484 31.4912 73.3229 31.5251C73.2009 31.559 73.0837 31.6081 72.9742 31.6713C72.868 31.7312 72.7707 31.8054 72.6851 31.8918C72.6015 31.9771 72.5319 32.0722 72.483 32.1809H72.4689C72.4792 32.0371 72.499 31.8941 72.5282 31.7529C72.5596 31.6067 72.6048 31.4671 72.6644 31.3348C72.7236 31.2025 72.8003 31.0833 72.8943 30.9746C72.9951 30.865 73.1187 30.7781 73.2567 30.7198C73.4084 30.6486 73.5689 30.5972 73.7342 30.5671L73.8435 30.5475C73.9524 30.5279 74.0564 30.5091 74.1558 30.4887C74.2883 30.4618 74.4101 30.4271 74.5219 30.3764ZM72.5837 33.2817C72.5299 33.1102 72.5042 32.9312 72.5075 32.7517C72.5308 32.6486 72.5734 32.5508 72.6329 32.463C72.6943 32.3696 72.7708 32.2869 72.8595 32.218C73.0642 32.0599 73.3172 31.975 73.5772 31.9771C73.9015 31.9771 74.1454 32.0751 74.3161 32.2695C74.4871 32.4663 74.5707 32.7105 74.5707 33.0065C74.5707 33.1527 74.5426 33.2854 74.4941 33.4075C74.447 33.528 74.3758 33.6379 74.2847 33.7307C74.1936 33.8235 74.0846 33.8973 73.964 33.9477C73.8389 34.002 73.7027 34.0294 73.5495 34.0294C73.3962 34.0294 73.2567 33.9988 73.1279 33.9375C72.9998 33.8775 72.8867 33.7905 72.7965 33.6827C72.7021 33.5626 72.6301 33.4268 72.5841 33.2817H72.5837ZM79.3765 31.4401H78.8257V34.4643H79.3765V31.4401ZM75.947 31.4401H76.4978V32.3475H77.0068C77.247 32.3475 77.4416 32.3781 77.599 32.4357C77.756 32.4936 77.8815 32.5716 77.9755 32.6668C78.0695 32.7619 78.1358 32.8742 78.1743 32.9996C78.2124 33.1253 78.2335 33.2544 78.2335 33.3903C78.2335 33.5263 78.2124 33.6558 78.1672 33.7848C78.1254 33.9138 78.0521 34.0257 77.9544 34.1278C77.857 34.2299 77.7245 34.3115 77.5568 34.3728C77.3899 34.4336 77.1878 34.4675 76.9438 34.4675H75.9437V31.4401H75.947ZM76.4978 32.853V33.9612H76.8987C77.1741 33.9612 77.3692 33.9138 77.4806 33.8183C77.5924 33.7231 77.6479 33.5876 77.6479 33.4075C77.6479 33.2237 77.5887 33.0849 77.4773 32.9894C77.3621 32.8942 77.1704 32.8464 76.9057 32.8464H76.4978V32.853Z" fill="black"/>
<path d="M83.0185 34.029C82.886 34.1956 82.7116 34.3214 82.5025 34.4063C82.2879 34.4924 82.0583 34.5363 81.8266 34.5354C81.5962 34.5384 81.3671 34.5005 81.1503 34.4235C80.9555 34.3539 80.7775 34.2451 80.6276 34.1042C80.4795 33.963 80.3631 33.7927 80.2859 33.6044C80.203 33.3978 80.1616 33.1773 80.1642 32.9551C80.1642 32.7346 80.2023 32.5304 80.2826 32.3373C80.3558 32.1504 80.4671 31.9802 80.6098 31.8375C80.7498 31.6946 80.9163 31.5864 81.1051 31.5014C81.3037 31.4152 81.5189 31.3723 81.7359 31.3757C81.9831 31.3757 82.2134 31.4063 82.4225 31.4671C82.6317 31.5284 82.8094 31.6305 82.9555 31.7734L82.7013 32.1981C82.5783 32.0882 82.4334 32.0047 82.2759 31.9531C82.1261 31.9055 81.9695 31.8815 81.8121 31.882C81.6733 31.882 81.5408 31.909 81.4116 31.9596C81.2848 32.0101 81.1689 32.0841 81.0703 32.1776C80.9701 32.2743 80.8907 32.3898 80.8368 32.5174C80.7767 32.6567 80.747 32.807 80.7498 32.9584C80.7498 33.1254 80.7808 33.2748 80.8401 33.4035C80.8993 33.5366 80.9796 33.6485 81.0803 33.7436C81.1817 33.8392 81.2998 33.9102 81.436 33.958C81.5723 34.0053 81.7152 34.0327 81.8684 34.0327C82.0431 34.0349 82.2159 33.9976 82.3737 33.9237C82.5185 33.8547 82.6487 33.7591 82.7572 33.6419L83.0185 34.029ZM83.3001 31.4402H86.1271V31.9772H84.9907V34.4639H84.4399V31.9772H83.3043V31.4402H83.3001Z" fill="black"/>
<path fill-rule="evenodd" clip-rule="evenodd" d="M87.2774 31.4405H86.7266V35.8097H87.2774V34.325C87.3888 34.3964 87.5213 34.4475 87.6746 34.4813C87.8278 34.5152 87.9881 34.532 88.1521 34.532C88.396 34.532 88.6155 34.4879 88.8143 34.4066C89.005 34.3262 89.1777 34.2097 89.3229 34.0636C89.4669 33.9154 89.5783 33.7394 89.65 33.5467C89.7271 33.3466 89.7656 33.1322 89.7656 32.9048C89.7656 32.6802 89.7308 32.4732 89.6645 32.2861C89.6022 32.1085 89.5051 31.9447 89.3788 31.8039C89.2548 31.6666 89.1011 31.5585 88.929 31.4879C88.7408 31.4081 88.5375 31.3687 88.3326 31.3723C88.1173 31.3723 87.9152 31.4131 87.7234 31.4948C87.5317 31.5765 87.3817 31.6745 87.2774 31.797V31.4405ZM87.6609 32.0011C87.8179 31.9195 87.9881 31.8786 88.1732 31.8786C88.3335 31.8786 88.4763 31.9023 88.6056 31.9534C88.731 32.0044 88.8354 32.0759 88.9228 32.171C89.0098 32.2661 89.076 32.3752 89.1175 32.5038C89.163 32.6328 89.1837 32.7725 89.1837 32.9252C89.1837 33.0885 89.156 33.2343 89.1075 33.3703C89.0618 33.4992 88.9893 33.6173 88.8946 33.7169C88.7995 33.8154 88.6844 33.8929 88.5567 33.9444C88.4144 34.0032 88.2612 34.0321 88.1069 34.0293C87.9574 34.0293 87.8178 34.0126 87.6853 33.9787C87.5402 33.9398 87.4026 33.8777 87.2778 33.7949V32.2964C87.3751 32.1812 87.5043 32.0828 87.6609 32.0011ZM93.9891 31.4401H93.4383V34.4642H93.9891V31.4401ZM90.5566 31.4401H91.1074V32.3474H91.616C91.8562 32.3474 92.0517 32.378 92.2083 32.4356C92.3656 32.4936 92.4911 32.5716 92.5851 32.6667C92.6791 32.7619 92.7454 32.8741 92.7835 32.9995C92.822 33.1253 92.8427 33.2543 92.8427 33.3903C92.8427 33.5263 92.822 33.6557 92.7765 33.7847C92.7351 33.9138 92.6617 34.0256 92.564 34.1277C92.4667 34.2298 92.3342 34.3115 92.1664 34.3727C91.9995 34.4336 91.7974 34.4675 91.5535 34.4675H90.5533V31.4401H90.5566ZM91.1112 32.8529V33.9611H91.5121C91.7871 33.9611 91.9825 33.9138 92.0939 33.8182C92.2054 33.7231 92.2613 33.5875 92.2613 33.4074C92.2613 33.2237 92.202 33.0848 92.0906 32.9893C91.9755 32.8942 91.7838 32.8464 91.5191 32.8464H91.1112V32.8529Z" fill="black"/>
<path d="M96.6305 32.8977L97.8083 34.4641H97.1324L96.2225 33.2407L95.299 34.4641H94.6579L95.8287 32.9246L94.7271 31.4399H95.4038L96.2437 32.5816L97.0968 31.4399H97.7388L96.6305 32.8977ZM48.2507 38.2015H46.5606V40.7226H46.0098V37.6989H48.8011V40.7226H48.2503L48.2507 38.2015ZM51.9271 38.2354H50.84L50.8048 38.745C50.7667 39.1766 50.7145 39.5233 50.6412 39.7879C50.5679 40.0533 50.4772 40.2571 50.3728 40.3996C50.2685 40.5425 50.1463 40.6405 50.0067 40.6887C49.8628 40.7402 49.7105 40.7655 49.5574 40.7634L49.5155 40.2399C49.5866 40.2415 49.657 40.2264 49.721 40.1958C49.798 40.1619 49.8742 40.0872 49.9475 39.9753C50.0208 39.8594 50.0871 39.6964 50.1463 39.4853C50.2055 39.2718 50.244 38.9933 50.2647 38.6429L50.3207 37.7017H52.478V40.7258H51.9271V38.2354Z" fill="black"/>
<path fill-rule="evenodd" clip-rule="evenodd" d="M53.9645 37.7061C53.7864 37.7534 53.6261 37.8212 53.4903 37.9062L53.6369 38.3345C53.7624 38.2732 53.8879 38.2222 54.013 38.1781C54.1384 38.134 54.2987 38.1136 54.4905 38.1136C54.6437 38.1136 54.7659 38.1373 54.8599 38.1846C54.9543 38.2291 55.0239 38.2969 55.0728 38.3786C55.1212 38.4603 55.1527 38.5623 55.1701 38.6808C55.1875 38.8 55.1945 38.929 55.1945 39.0683C55.0817 38.9909 54.9531 38.9388 54.8176 38.9156C54.687 38.8899 54.5541 38.8763 54.4209 38.8747C54.2573 38.8747 54.1036 38.8984 53.957 38.9392C53.8108 38.9801 53.6854 39.0413 53.5843 39.123C53.481 39.2045 53.3975 39.3077 53.34 39.4252C53.2789 39.5538 53.2481 39.6943 53.2501 39.8363C53.2501 40.1316 53.3371 40.3631 53.511 40.526C53.6849 40.6889 53.9156 40.7706 54.2014 40.7706C54.4594 40.7706 54.6648 40.7265 54.8218 40.6379C54.9783 40.5497 55.1034 40.4476 55.1945 40.3317V40.7228H55.7106V38.8678C55.7106 38.4737 55.6232 38.1679 55.4455 37.9539C55.2711 37.7396 54.9609 37.6313 54.5219 37.6313C54.3336 37.6315 54.1461 37.6569 53.9645 37.7061ZM54.888 40.1553C54.763 40.2439 54.599 40.2847 54.3969 40.2847C54.2155 40.2847 54.0796 40.2406 53.9823 40.1553C53.8846 40.0671 53.8357 39.9511 53.8357 39.809C53.8357 39.7241 53.8531 39.6526 53.8916 39.5881C53.9297 39.5236 53.9823 39.4725 54.0415 39.4317C54.1008 39.3909 54.1736 39.3602 54.254 39.3398C54.3337 39.3195 54.4156 39.3094 54.4979 39.3096C54.7696 39.3096 55.0032 39.3741 55.1949 39.5097V39.8935C55.1044 39.9932 55.0013 40.0814 54.888 40.1553Z" fill="black"/>
<path d="M56.25 37.6992H59.0766V38.2358H57.9401V40.7225H57.3893V38.2358H56.2537V37.6992H56.25Z" fill="black"/>
<path fill-rule="evenodd" clip-rule="evenodd" d="M61.6479 40.6924C61.8571 40.6278 62.0347 40.529 62.188 40.3935L62.0207 39.9721C61.9196 40.0607 61.7838 40.1354 61.6198 40.1966C61.4562 40.2579 61.2715 40.2881 61.069 40.2881C60.7662 40.2881 60.5152 40.2101 60.3164 40.0505C60.1177 39.8908 60.01 39.6666 59.9851 39.3808H62.3694C62.3934 39.2758 62.4042 39.1562 62.4042 39.0174C62.4042 38.8103 62.3657 38.6233 62.289 38.4535C62.2177 38.2885 62.1133 38.1395 61.9822 38.0153C61.8497 37.8918 61.6933 37.7958 61.5224 37.7332C61.3435 37.6648 61.1532 37.6301 60.9613 37.6311C60.7033 37.6311 60.4767 37.6752 60.2779 37.7568C60.0904 37.8345 59.9209 37.949 59.7797 38.0933C59.6422 38.2368 59.5365 38.4068 59.4691 38.5927C59.3958 38.7907 59.3593 39.0001 59.3614 39.2109C59.3614 39.449 59.4028 39.6662 59.4799 39.8602C59.5569 40.0537 59.6716 40.2203 59.8145 40.3596C59.9574 40.4988 60.1317 40.6042 60.3376 40.6789C60.5578 40.7561 60.7901 40.7941 61.0238 40.7912C61.2296 40.7912 61.4388 40.7569 61.6479 40.6924ZM60.2506 38.3616C60.4212 38.2089 60.6478 38.1341 60.9335 38.1341C61.2056 38.1341 61.4181 38.2089 61.575 38.3481C61.7316 38.491 61.8153 38.6878 61.8293 38.9394H59.9474C59.974 38.7169 60.0818 38.5115 60.2506 38.3616ZM62.6725 37.6993H63.3696L64.4323 39.157L63.2963 40.723H62.6204L63.8119 39.1566L62.6725 37.6993ZM64.5681 37.6993H65.1189V40.723H64.5681V37.6993ZM67.0878 40.723L65.8752 39.1566L67.0079 37.6989H66.3245L65.2548 39.1566L66.4049 40.723H67.0878ZM69.6042 40.6924C69.8133 40.6278 69.991 40.529 70.1442 40.3935L69.9769 39.9721C69.8759 40.0607 69.74 40.1354 69.5764 40.1966C69.4124 40.2579 69.2277 40.2881 69.0256 40.2881C68.7224 40.2881 68.4715 40.2101 68.2727 40.0505C68.0739 39.8908 67.9662 39.6666 67.9414 39.3808H70.3256C70.3501 39.2758 70.3604 39.1562 70.3604 39.0174C70.3604 38.8103 70.3223 38.6233 70.2453 38.4535C70.1739 38.2886 70.0697 38.1397 69.9388 38.0153C69.8062 37.8918 69.6497 37.7958 69.4787 37.7332C69.2998 37.6647 69.1094 37.6301 68.9175 37.6311C68.6599 37.6311 68.433 37.6752 68.2342 37.7568C68.0468 37.8346 67.8775 37.9491 67.7364 38.0933C67.5986 38.2366 67.4928 38.4067 67.4257 38.5927C67.3523 38.7907 67.3158 39.0001 67.3181 39.2109C67.3181 39.449 67.3595 39.6662 67.4365 39.8602C67.5131 40.0537 67.6283 40.2203 67.7711 40.3596C67.914 40.4988 68.088 40.6042 68.2938 40.6789C68.5141 40.7561 68.7466 40.7941 68.9805 40.7912C69.1922 40.7896 69.4026 40.7563 69.6042 40.6924ZM68.2068 38.3616C68.3779 38.2089 68.6044 38.1341 68.8902 38.1341C69.1585 38.1341 69.3743 38.2089 69.5313 38.3481C69.6882 38.491 69.7715 38.6878 69.7856 38.9394H67.9037C67.9302 38.7169 68.038 38.5115 68.2068 38.3616ZM72.5947 36.6833C72.2705 36.6833 72.0928 36.5065 72.0646 36.1533H71.5457C71.5457 36.2889 71.5701 36.4114 71.6153 36.5269C71.6608 36.6425 71.7271 36.7409 71.8141 36.8226C71.901 36.9042 72.0129 36.9688 72.1413 37.0194C72.2705 37.0704 72.4204 37.0941 72.591 37.0941C72.7353 37.0969 72.8787 37.0715 73.013 37.0194C73.1385 36.972 73.2429 36.9042 73.3336 36.8226C73.4224 36.7394 73.4924 36.6387 73.539 36.5269C73.5879 36.4114 73.6123 36.2889 73.6123 36.1533H73.0967C73.0719 36.5065 72.9012 36.6833 72.5947 36.6833ZM71.1063 37.6989V40.723H71.6571L73.4483 38.4702V40.723H73.9991V37.6989H73.4483L71.6571 39.9516V37.6989H71.1063Z" fill="black"/>
</g>
<defs>
<clipPath id="clip0_4018_45238">
<rect width="99" height="49" fill="white"/>
</clipPath>
</defs>
</svg>
