<svg width="20" height="20" viewBox="0 0 20 20" fill="none" xmlns="http://www.w3.org/2000/svg">
<path fill-rule="evenodd" clip-rule="evenodd" d="M4.53115 1.90909C5.23302 1.34759 6.10508 1.04169 7.00391 1.04169L12.9987 1.0417C13.8975 1.0417 14.7696 1.3476 15.4714 1.90909L18.0996 4.01158C18.6432 4.44648 18.9596 5.1049 18.9596 5.80107V15C18.9596 17.1862 17.1874 18.9584 15.0013 18.9584H5.0013C2.81518 18.9584 1.04297 17.1862 1.04297 15V5.80107C1.04297 5.1049 1.35942 4.44648 1.90304 4.01158L2.29347 4.49962L1.90304 4.01158L4.53115 1.90909ZM7.00391 2.29169C6.38892 2.29169 5.79225 2.50099 5.31202 2.88517L2.68391 4.98767C2.43681 5.18535 2.29297 5.48463 2.29297 5.80107V15C2.29297 16.4958 3.50553 17.7084 5.0013 17.7084H15.0013C16.4971 17.7084 17.7096 16.4958 17.7096 15V5.80107C17.7096 5.48463 17.5658 5.18535 17.3187 4.98767L14.6906 2.88518C14.2104 2.501 13.6137 2.2917 12.9987 2.2917L7.00391 2.29169Z" fill="#222222"/>
<path fill-rule="evenodd" clip-rule="evenodd" d="M6.875 5C6.875 4.65482 7.15482 4.375 7.5 4.375H12.5C12.8452 4.375 13.125 4.65482 13.125 5V7.5C13.125 9.22589 11.7259 10.625 10 10.625C8.27411 10.625 6.875 9.22589 6.875 7.5V5ZM8.125 5.625V7.5C8.125 8.53553 8.96447 9.375 10 9.375C11.0355 9.375 11.875 8.53553 11.875 7.5V5.625H8.125Z" fill="#222222"/>
<path fill-rule="evenodd" clip-rule="evenodd" d="M1.45703 5C1.45703 4.65482 1.73685 4.375 2.08203 4.375H17.9154C18.2605 4.375 18.5404 4.65482 18.5404 5C18.5404 5.34518 18.2605 5.625 17.9154 5.625H2.08203C1.73685 5.625 1.45703 5.34518 1.45703 5Z" fill="#222222"/>
</svg>
